SplineFontDB: 3.0
FontName: Georgia
FullName: Georgia
FamilyName: Georgia
Weight: Book
Copyright: (c) 2006 Microsoft Corporation. All Rights Reserved.
Version: 5.00x-4
ItalicAngle: 0
UnderlinePosition: -231
UnderlineWidth: 101
Ascent: 1638
Descent: 410
InvalidEm: 0
sfntRevision: 0x00050000
LayerCount: 2
Layer: 0 1 "Back" 1
Layer: 1 1 "Fore" 0
XUID: [1021 23 -821672044 15411844]
StyleMap: 0x0040
FSType: 8
OS2Version: 3
OS2_WeightWidthSlopeOnly: 0
OS2_UseTypoMetrics: 0
CreationTime: 823878739
ModificationTime: 1483823453
PfmFamily: 17
TTFWeight: 400
TTFWidth: 5
LineGap: 0
VLineGap: 0
Panose: 2 4 5 2 5 4 5 2 3 3
OS2TypoAscent: 1549
OS2TypoAOffset: 0
OS2TypoDescent: -444
OS2TypoDOffset: 0
OS2TypoLinegap: 198
OS2WinAscent: 1878
OS2WinAOffset: 0
OS2WinDescent: 449
OS2WinDOffset: 0
HheadAscent: 1878
HheadAOffset: 0
HheadDescent: -449
HheadDOffset: 0
OS2SubXSize: 1434
OS2SubYSize: 1331
OS2SubXOff: 0
OS2SubYOff: 155
OS2SupXSize: 1434
OS2SupYSize: 1331
OS2SupXOff: 0
OS2SupYOff: 542
OS2StrikeYSize: 101
OS2StrikeYPos: 594
OS2CapHeight: 1419
OS2XHeight: 986
OS2FamilyClass: 1027
OS2Vendor: 'MS  '
OS2CodePages: 2000009f.00000000
OS2UnicodeRanges: 00000287.00000000.00000000.00000000
Lookup: 1 0 0 "'aalt' Access All Alternates in Latin lookup 0" { "'aalt' Access All Alternates in Latin lookup 0 subtable"  } ['aalt' ('latn' <'dflt' > ) ]
Lookup: 1 0 0 "'locl' Localized Forms in Latin lookup 1" { "'locl' Localized Forms in Latin lookup 1 subtable"  } ['locl' ('latn' <'LTH ' > ) ]
Lookup: 1 0 0 "'locl' Localized Forms in Latin lookup 2" { "'locl' Localized Forms in Latin lookup 2 subtable"  } ['locl' ('latn' <'ROM ' > ) ]
DEI: 91125
TtTable: prep
PUSHW_1
 85
CALL
NPUSHB
 21
 84
 0
 202
 1
 31
 224
 47
 224
 2
 64
 210
 42
 45
 54
 0
 228
 16
 228
 32
 228
 3
PUSHW_1
 -64
NPUSHB
 50
 228
 29
 37
 54
 143
 228
 1
 15
 220
 31
 220
 63
 220
 79
 220
 4
 31
 209
 47
 209
 63
 209
 79
 209
 95
 209
 111
 209
 6
 31
 208
 47
 208
 63
 208
 79
 208
 4
 204
 203
 16
 31
 205
 207
 26
 31
 206

StartChar: .notdef
Encoding: 65536 -1 0
Width: 2048
GlyphClass: 2
Flags: W
LayerCount: 2
Fore
SplineSet
256 0 m 1,0,-1
 256 1536 l 1,1,-1
 1792 1536 l 1,2,-1
 1792 0 l 1,3,-1
 256 0 l 1,0,-1
384 128 m 1,4,-1
 1664 128 l 1,5,-1
 1664 1408 l 1,6,-1
 384 1408 l 1,7,-1
 384 128 l 1,4,-1
EndSplineSet
Validated: 1
EndChar

StartChar: exclam
Encoding: 33 33 4
Width: 678
GlyphClass: 2
Flags: W
LayerCount: 2
Fore
SplineSet
472 1321 m 0,0,1
 472 1271 472 1271 439 985 c 128,-1,2
 406 699 406 699 381 432 c 1,3,-1
 303 432 l 1,4,5
 281 699 281 699 248.5 985 c 128,-1,6
 216 1271 216 1271 216 1321 c 0,7,8
 216 1378 216 1378 252 1417 c 128,-1,9
 288 1456 288 1456 344 1456 c 256,10,11
 400 1456 400 1456 436 1417.5 c 128,-1,12
 472 1379 472 1379 472 1321 c 0,0,1
481 115 m 256,13,14
 481 59 481 59 440.5 19.5 c 128,-1,15
 400 -20 400 -20 344 -20 c 256,16,17
 288 -20 288 -20 247.5 19.5 c 128,-1,18
 207 59 207 59 207 115 c 256,19,20
 207 171 207 171 247.5 211.5 c 128,-1,21
 288 252 288 252 344 252 c 256,22,23
 400 252 400 252 440.5 211.5 c 128,-1,24
 481 171 481 171 481 115 c 256,13,14
EndSplineSet
Validated: 1
EndChar

StartChar: quotedbl
Encoding: 34 34 5
Width: 843
GlyphClass: 2
Flags: W
LayerCount: 2
Fore
SplineSet
725 1417 m 0,0,1
 725 1377 725 1377 699 1263 c 128,-1,2
 673 1149 673 1149 641 967 c 1,3,-1
 579 967 l 1,4,5
 556 1115 556 1115 527.5 1249 c 128,-1,6
 499 1383 499 1383 499 1417 c 0,7,8
 499 1463 499 1463 527 1496 c 128,-1,9
 555 1529 555 1529 612 1529 c 0,10,11
 667 1529 667 1529 696 1496 c 128,-1,12
 725 1463 725 1463 725 1417 c 0,0,1
343 1417 m 0,13,14
 343 1377 343 1377 317 1263 c 128,-1,15
 291 1149 291 1149 259 967 c 1,16,-1
 198 967 l 1,17,18
 171 1137 171 1137 144.5 1257.5 c 128,-1,19
 118 1378 118 1378 118 1417 c 0,20,21
 118 1463 118 1463 146 1496 c 128,-1,22
 174 1529 174 1529 231 1529 c 0,23,24
 285 1529 285 1529 314 1496 c 128,-1,25
 343 1463 343 1463 343 1417 c 0,13,14
EndSplineSet
Validated: 1
EndChar

StartChar: numbersign
Encoding: 35 35 6
Width: 1317
GlyphClass: 2
Flags: W
LayerCount: 2
Fore
SplineSet
1163 745 m 1,0,-1
 914 745 l 1,1,-1
 842 494 l 1,2,-1
 1103 494 l 1,3,-1
 1103 371 l 1,4,-1
 807 371 l 1,5,-1
 700 0 l 1,6,-1
 589 0 l 1,7,-1
 696 371 l 1,8,-1
 479 371 l 1,9,-1
 372 0 l 1,10,-1
 261 0 l 1,11,-1
 368 371 l 1,12,-1
 154 371 l 1,13,-1
 154 494 l 1,14,-1
 403 494 l 1,15,-1
 476 745 l 1,16,-1
 214 745 l 1,17,-1
 214 868 l 1,18,-1
 510 868 l 1,19,-1
 615 1230 l 1,20,-1
 726 1230 l 1,21,-1
 621 868 l 1,22,-1
 838 868 l 1,23,-1
 943 1230 l 1,24,-1
 1054 1230 l 1,25,-1
 949 868 l 1,26,-1
 1163 868 l 1,27,-1
 1163 745 l 1,0,-1
807 747 m 1,28,-1
 585 747 l 1,29,-1
 511 492 l 1,30,-1
 732 492 l 1,31,-1
 807 747 l 1,28,-1
EndSplineSet
Validated: 1
EndChar

StartChar: dollar
Encoding: 36 36 7
Width: 1249
GlyphClass: 2
Flags: W
LayerCount: 2
Fore
SplineSet
1018 580 m 0,0,1
 1058 541 1058 541 1080.5 489 c 128,-1,2
 1103 437 1103 437 1103 365 c 0,3,4
 1103 208 1103 208 983 101.5 c 128,-1,5
 863 -5 863 -5 681 -17 c 1,6,-1
 681 -299 l 1,7,-1
 599 -299 l 1,8,-1
 599 -19 l 1,9,10
 401 -15 401 -15 278 75.5 c 128,-1,11
 155 166 155 166 155 300 c 0,12,13
 155 359 155 359 181 390.5 c 128,-1,14
 207 422 207 422 254 422 c 0,15,16
 307 422 307 422 337 395.5 c 128,-1,17
 367 369 367 369 367 333 c 0,18,19
 367 306 367 306 348 251.5 c 128,-1,20
 329 197 329 197 324 177 c 1,21,22
 353 125 353 125 424.5 93 c 128,-1,23
 496 61 496 61 599 60 c 1,24,-1
 599 566 l 1,25,26
 555 582 555 582 522.5 594 c 128,-1,27
 490 606 490 606 437 628 c 0,28,29
 322 675 322 675 257 751.5 c 128,-1,30
 192 828 192 828 192 950 c 0,31,32
 192 1094 192 1094 312 1193 c 128,-1,33
 432 1292 432 1292 599 1295 c 1,34,-1
 599 1524 l 1,35,-1
 681 1524 l 1,36,-1
 681 1295 l 1,37,38
 780 1293 780 1293 856 1266 c 128,-1,39
 932 1239 932 1239 980 1199 c 256,40,41
 1028 1159 1028 1159 1052.5 1111 c 128,-1,42
 1077 1063 1077 1063 1077 1018 c 256,43,44
 1077 973 1077 973 1056 941.5 c 128,-1,45
 1035 910 1035 910 987 910 c 0,46,47
 938 910 938 910 905.5 935 c 128,-1,48
 873 960 873 960 873 991 c 0,49,50
 873 1028 873 1028 881 1064.5 c 128,-1,51
 889 1101 889 1101 895 1129 c 1,52,53
 892 1135 892 1135 875 1150.5 c 128,-1,54
 858 1166 858 1166 835 1179 c 0,55,56
 810 1193 810 1193 769 1204 c 128,-1,57
 728 1215 728 1215 681 1215 c 1,58,-1
 681 751 l 1,59,60
 720 737 720 737 746.5 726.5 c 128,-1,61
 773 716 773 716 812 701 c 0,62,63
 874 677 874 677 926 648.5 c 128,-1,64
 978 620 978 620 1018 580 c 0,0,1
599 775 m 1,65,-1
 599 1215 l 1,66,67
 502 1215 502 1215 436 1160 c 128,-1,68
 370 1105 370 1105 370 1025 c 0,69,70
 370 938 370 938 411 886 c 128,-1,71
 452 834 452 834 535 800 c 0,72,73
 547 795 547 795 565 788 c 128,-1,74
 583 781 583 781 599 775 c 1,65,-1
915 284 m 0,75,76
 915 366 915 366 872.5 426.5 c 128,-1,77
 830 487 830 487 728 527 c 0,78,79
 715 532 715 532 703.5 536 c 128,-1,80
 692 540 692 540 681 544 c 1,81,-1
 681 61 l 1,82,83
 798 68 798 68 856.5 127.5 c 128,-1,84
 915 187 915 187 915 284 c 0,75,76
EndSplineSet
Validated: 1
EndChar

StartChar: percent
Encoding: 37 37 8
Width: 1674
GlyphClass: 2
Flags: W
LayerCount: 2
Fore
SplineSet
788 1083 m 0,0,1
 788 907 788 907 693 810 c 128,-1,2
 598 713 598 713 448 713 c 256,3,4
 298 713 298 713 203.5 810 c 128,-1,5
 109 907 109 907 109 1083 c 0,6,7
 109 1249 109 1249 201.5 1351 c 128,-1,8
 294 1453 294 1453 449 1453 c 0,9,10
 602 1453 602 1453 695 1351 c 128,-1,11
 788 1249 788 1249 788 1083 c 0,0,1
619 1083 m 0,12,13
 619 1213 619 1213 576 1296 c 128,-1,14
 533 1379 533 1379 449 1379 c 0,15,16
 363 1379 363 1379 320.5 1296 c 128,-1,17
 278 1213 278 1213 278 1083 c 0,18,19
 278 950 278 950 321 868.5 c 128,-1,20
 364 787 364 787 448 787 c 256,21,22
 532 787 532 787 575.5 868.5 c 128,-1,23
 619 950 619 950 619 1083 c 0,12,13
1565 338 m 0,24,25
 1565 162 1565 162 1470 65 c 128,-1,26
 1375 -32 1375 -32 1225 -32 c 256,27,28
 1075 -32 1075 -32 980.5 65 c 128,-1,29
 886 162 886 162 886 338 c 0,30,31
 886 504 886 504 978.5 606 c 128,-1,32
 1071 708 1071 708 1226 708 c 0,33,34
 1379 708 1379 708 1472 606 c 128,-1,35
 1565 504 1565 504 1565 338 c 0,24,25
1396 338 m 0,36,37
 1396 468 1396 468 1353 551 c 128,-1,38
 1310 634 1310 634 1226 634 c 0,39,40
 1140 634 1140 634 1097.5 551 c 128,-1,41
 1055 468 1055 468 1055 338 c 0,42,43
 1055 205 1055 205 1098 123.5 c 128,-1,44
 1141 42 1141 42 1225 42 c 256,45,46
 1309 42 1309 42 1352.5 123.5 c 128,-1,47
 1396 205 1396 205 1396 338 c 0,36,37
1499 1424 m 1,48,-1
 320 0 l 1,49,-1
 182 0 l 1,50,-1
 1358 1424 l 1,51,-1
 1499 1424 l 1,48,-1
EndSplineSet
Validated: 1
EndChar

StartChar: ampersand
Encoding: 38 38 9
Width: 1455
GlyphClass: 2
Flags: W
LayerCount: 2
Fore
SplineSet
1454 828 m 1,0,1
 1395 823 1395 823 1335 804.5 c 128,-1,2
 1275 786 1275 786 1243 746 c 0,3,4
 1222 722 1222 722 1200.5 675 c 128,-1,5
 1179 628 1179 628 1149 564 c 256,6,7
 1119 500 1119 500 1088 438 c 128,-1,8
 1057 376 1057 376 1008 314 c 1,9,10
 1048 266 1048 266 1106 209.5 c 128,-1,11
 1164 153 1164 153 1205 128 c 0,12,13
 1245 105 1245 105 1318.5 89 c 128,-1,14
 1392 73 1392 73 1439 71 c 1,15,-1
 1439 0 l 1,16,-1
 1027 0 l 1,17,-1
 878 170 l 1,18,19
 845 134 845 134 802.5 95.5 c 128,-1,20
 760 57 760 57 713 29 c 0,21,22
 661 -1 661 -1 608.5 -18 c 128,-1,23
 556 -35 556 -35 485 -35 c 0,24,25
 411 -35 411 -35 338 -13.5 c 128,-1,26
 265 8 265 8 205 55 c 0,27,28
 147 101 147 101 111 173 c 128,-1,29
 75 245 75 245 75 345 c 0,30,31
 75 469 75 469 140.5 569.5 c 128,-1,32
 206 670 206 670 385 783 c 1,33,34
 304 890 304 890 259 968 c 128,-1,35
 214 1046 214 1046 214 1143 c 0,36,37
 214 1212 214 1212 241.5 1269.5 c 128,-1,38
 269 1327 269 1327 319 1370 c 0,39,40
 365 1409 365 1409 431 1431 c 128,-1,41
 497 1453 497 1453 565 1453 c 0,42,43
 645 1453 645 1453 705.5 1427.5 c 128,-1,44
 766 1402 766 1402 804 1361 c 0,45,46
 839 1323 839 1323 857.5 1273 c 128,-1,47
 876 1223 876 1223 876 1173 c 0,48,49
 876 1053 876 1053 801.5 966.5 c 128,-1,50
 727 880 727 880 596 811 c 1,51,52
 690 684 690 684 780 579.5 c 128,-1,53
 870 475 870 475 953 374 c 1,54,55
 1020 481 1020 481 1057 575.5 c 128,-1,56
 1094 670 1094 670 1094 742 c 0,57,58
 1094 774 1094 774 1047.5 792.5 c 128,-1,59
 1001 811 1001 811 919 828 c 1,60,-1
 919 899 l 1,61,-1
 1454 899 l 1,62,-1
 1454 828 l 1,0,1
747 1153 m 0,63,64
 747 1255 747 1255 702 1309.5 c 128,-1,65
 657 1364 657 1364 574 1364 c 0,66,67
 527 1364 527 1364 496 1345 c 128,-1,68
 465 1326 465 1326 443 1297 c 0,69,70
 423 1269 423 1269 414 1237 c 128,-1,71
 405 1205 405 1205 405 1180 c 0,72,73
 405 1111 405 1111 441 1040.5 c 128,-1,74
 477 970 477 970 553 870 c 1,75,76
 656 928 656 928 701.5 995.5 c 128,-1,77
 747 1063 747 1063 747 1153 c 0,63,64
825 228 m 1,78,79
 732 346 732 346 615.5 486.5 c 128,-1,80
 499 627 499 627 429 724 c 1,81,82
 348 668 348 668 314.5 592.5 c 128,-1,83
 281 517 281 517 281 420 c 0,84,85
 281 284 281 284 358.5 194.5 c 128,-1,86
 436 105 436 105 566 105 c 0,87,88
 639 105 639 105 709.5 136.5 c 128,-1,89
 780 168 780 168 825 228 c 1,78,79
EndSplineSet
Validated: 1
EndChar

StartChar: quotesingle
Encoding: 39 39 10
Width: 441
GlyphClass: 2
Flags: W
LayerCount: 2
Fore
SplineSet
333 1417 m 0,0,1
 333 1377 333 1377 307 1263 c 128,-1,2
 281 1149 281 1149 249 967 c 1,3,-1
 188 967 l 1,4,5
 161 1137 161 1137 134.5 1257.5 c 128,-1,6
 108 1378 108 1378 108 1417 c 0,7,8
 108 1463 108 1463 136 1496 c 128,-1,9
 164 1529 164 1529 221 1529 c 0,10,11
 275 1529 275 1529 304 1496 c 128,-1,12
 333 1463 333 1463 333 1417 c 0,0,1
EndSplineSet
Validated: 1
EndChar

StartChar: parenleft
Encoding: 40 40 11
Width: 768
GlyphClass: 2
Flags: W
LayerCount: 2
Fore
SplineSet
701 -328 m 1,0,1
 428 -294 428 -294 272.5 -53 c 128,-1,2
 117 188 117 188 117 596 c 0,3,4
 117 1011 117 1011 272.5 1253.5 c 128,-1,5
 428 1496 428 1496 701 1532 c 1,6,-1
 701 1449 l 1,7,8
 509 1414 509 1414 409 1204 c 128,-1,9
 309 994 309 994 309 594 c 0,10,11
 309 213 309 213 407 1.5 c 128,-1,12
 505 -210 505 -210 701 -246 c 1,13,-1
 701 -328 l 1,0,1
EndSplineSet
Validated: 1
EndChar

StartChar: parenright
Encoding: 41 41 12
Width: 768
GlyphClass: 2
Flags: W
LayerCount: 2
Fore
SplineSet
651 596 m 0,0,1
 651 188 651 188 495.5 -53 c 128,-1,2
 340 -294 340 -294 67 -328 c 1,3,-1
 67 -246 l 1,4,5
 263 -210 263 -210 361 1.5 c 128,-1,6
 459 213 459 213 459 594 c 0,7,8
 459 994 459 994 359 1204 c 128,-1,9
 259 1414 259 1414 67 1449 c 1,10,-1
 67 1532 l 1,11,12
 340 1496 340 1496 495.5 1253.5 c 128,-1,13
 651 1011 651 1011 651 596 c 0,0,1
EndSplineSet
Validated: 1
EndChar

StartChar: asterisk
Encoding: 42 42 13
Width: 967
GlyphClass: 2
Flags: W
LayerCount: 2
Fore
SplineSet
882 1099 m 0,0,1
 882 1062 882 1062 861 1045 c 128,-1,2
 840 1028 840 1028 807 1028 c 0,3,4
 785 1028 785 1028 701.5 1049.5 c 128,-1,5
 618 1071 618 1071 514 1083 c 1,6,7
 559 1021 559 1021 598 979.5 c 128,-1,8
 637 938 637 938 663 910 c 0,9,10
 690 881 690 881 705 859 c 128,-1,11
 720 837 720 837 720 812 c 0,12,13
 720 785 720 785 696 765 c 128,-1,14
 672 745 672 745 645 745 c 0,15,16
 627 745 627 745 611 755.5 c 128,-1,17
 595 766 595 766 584 785 c 0,18,19
 568 814 568 814 552.5 878 c 128,-1,20
 537 942 537 942 484 1066 c 1,21,22
 436 947 436 947 417 877.5 c 128,-1,23
 398 808 398 808 384 785 c 0,24,25
 371 765 371 765 357.5 755 c 128,-1,26
 344 745 344 745 323 745 c 0,27,28
 295 745 295 745 271.5 764 c 128,-1,29
 248 783 248 783 248 812 c 0,30,31
 248 836 248 836 262 857 c 128,-1,32
 276 878 276 878 305 910 c 0,33,34
 330 936 330 936 371.5 981 c 128,-1,35
 413 1026 413 1026 454 1083 c 1,36,37
 356 1073 356 1073 271.5 1050.5 c 128,-1,38
 187 1028 187 1028 161 1028 c 0,39,40
 128 1028 128 1028 107 1044.5 c 128,-1,41
 86 1061 86 1061 86 1099 c 0,42,43
 86 1133 86 1133 107 1151.5 c 128,-1,44
 128 1170 128 1170 161 1170 c 0,45,46
 191 1170 191 1170 266.5 1149 c 128,-1,47
 342 1128 342 1128 454 1117 c 1,48,49
 415 1170 415 1170 372 1217.5 c 128,-1,50
 329 1265 329 1265 305 1290 c 0,51,52
 277 1320 277 1320 262.5 1341.5 c 128,-1,53
 248 1363 248 1363 248 1388 c 0,54,55
 248 1415 248 1415 272 1435 c 128,-1,56
 296 1455 296 1455 323 1455 c 0,57,58
 341 1455 341 1455 356.5 1445 c 128,-1,59
 372 1435 372 1435 384 1415 c 0,60,61
 398 1391 398 1391 421 1307.5 c 128,-1,62
 444 1224 444 1224 484 1134 c 1,63,64
 529 1236 529 1236 549.5 1312.5 c 128,-1,65
 570 1389 570 1389 584 1415 c 0,66,67
 595 1434 595 1434 610.5 1444.5 c 128,-1,68
 626 1455 626 1455 645 1455 c 0,69,70
 673 1455 673 1455 696.5 1436 c 128,-1,71
 720 1417 720 1417 720 1388 c 0,72,73
 720 1347 720 1347 664.5 1292 c 128,-1,74
 609 1237 609 1237 514 1117 c 1,75,76
 622 1129 622 1129 701.5 1149.5 c 128,-1,77
 781 1170 781 1170 807 1170 c 0,78,79
 840 1170 840 1170 861 1152 c 128,-1,80
 882 1134 882 1134 882 1099 c 0,0,1
EndSplineSet
Validated: 1
EndChar

StartChar: plus
Encoding: 43 43 14
Width: 1317
GlyphClass: 2
Flags: W
LayerCount: 2
Fore
SplineSet
1173 497 m 1,0,-1
 722 497 l 1,1,-1
 722 46 l 1,2,-1
 595 46 l 1,3,-1
 595 497 l 1,4,-1
 144 497 l 1,5,-1
 144 622 l 1,6,-1
 595 622 l 1,7,-1
 595 1073 l 1,8,-1
 722 1073 l 1,9,-1
 722 622 l 1,10,-1
 1173 622 l 1,11,-1
 1173 497 l 1,0,-1
EndSplineSet
Validated: 1
EndChar

StartChar: comma
Encoding: 44 44 15
Width: 552
GlyphClass: 2
Flags: WO
LayerCount: 2
Fore
SplineSet
429 35 m 0,0,1
 429 -37 429 -37 396.5 -101 c 128,-1,2
 364 -165 364 -165 322 -211 c 0,3,4
 279 -259 279 -259 231 -296 c 128,-1,5
 183 -333 183 -333 143 -354 c 1,6,-1
 97 -287 l 1,7,8
 145 -257 145 -257 183 -227 c 128,-1,9
 221 -197 221 -197 245 -167 c 0,10,11
 275 -132 275 -132 296 -91 c 128,-1,12
 317 -50 317 -50 323 2 c 1,13,-1
 272 2 l 2,14,15
 205 2 205 2 167.5 37 c 128,-1,16
 130 72 130 72 130 131 c 0,17,18
 130 173 130 173 164 212.5 c 128,-1,19
 198 252 198 252 257 252 c 0,20,21
 343 252 343 252 386 194.5 c 128,-1,22
 429 137 429 137 429 35 c 0,0,1
419 35 m 0,23,24
 419 84.6555784382 419 84.6555784382 408.666006934 122.983702082 c 128,-1,25
 398.332013868 161.311825726 398.332013868 161.311825726 377.991651221 188.51114787 c 0,26,27
 364.658536212 206.340313289 364.658536212 206.340313289 347.057857245 218.167270881 c 128,-1,28
 329.457178278 229.994228473 329.457178278 229.994228473 306.947477856 235.997114236 c 128,-1,29
 284.437777433 242 284.437777433 242 257 242 c 0,30,31
 202.586748192 242 202.586748192 242 171.579005565 205.976299007 c 0,32,33
 140 169.288924895 140 169.288924895 140 131 c 0,34,35
 140 76.3455230191 140 76.3455230191 174.323182504 44.3105526824 c 0,36,37
 208.941631806 12 208.941631806 12 272 12 c 2,38,-1
 323 12 l 1,39,-1
 334.220194099 12 l 1,40,-1
 332.934089359 0.853758920149 l 2,41,42
 326.726408608 -52.9461409204 326.726408608 -52.9461409204 304.900433649 -95.5587586981 c 0,43,44
 294.184452252 -116.480436662 294.184452252 -116.480436662 281.049338677 -136.056540737 c 128,-1,45
 267.914225101 -155.632644811 267.914225101 -155.632644811 252.702837977 -173.379263122 c 0,46,47
 228.094175147 -204.140091659 228.094175147 -204.140091659 189.196442886 -234.848827655 c 0,48,49
 154.455334394 -262.27601857 154.455334394 -262.27601857 111.127547964 -289.909439188 c 1,50,-1
 146.159513282 -340.934258239 l 1,51,52
 182.517903872 -320.745515703 182.517903872 -320.745515703 224.894921397 -288.079898028 c 0,53,54
 272.1658612 -251.64188193 272.1658612 -251.64188193 314.551646643 -204.327516784 c 0,55,56
 355.69821815 -159.262224181 355.69821815 -159.262224181 387.583764926 -96.4722243763 c 0,57,58
 403.315636928 -65.4925379715 403.315636928 -65.4925379715 411.157818464 -32.6760124048 c 128,-1,59
 419 0.140513162041 419 0.140513162041 419 35 c 0,23,24
EndSplineSet
Validated: 524289
EndChar

StartChar: hyphen
Encoding: 45 45 16
Width: 766
GlyphClass: 2
Flags: W
LayerCount: 2
Fore
SplineSet
681 465 m 1,0,-1
 85 465 l 1,1,-1
 85 622 l 1,2,-1
 681 622 l 1,3,-1
 681 465 l 1,0,-1
EndSplineSet
Validated: 1
EndChar

StartChar: period
Encoding: 46 46 17
Width: 552
GlyphClass: 2
Flags: W
LayerCount: 2
Fore
SplineSet
415 115 m 256,0,1
 415 59 415 59 374.5 19.5 c 128,-1,2
 334 -20 334 -20 278 -20 c 256,3,4
 222 -20 222 -20 181.5 19.5 c 128,-1,5
 141 59 141 59 141 115 c 256,6,7
 141 171 141 171 181.5 211.5 c 128,-1,8
 222 252 222 252 278 252 c 256,9,10
 334 252 334 252 374.5 211.5 c 128,-1,11
 415 171 415 171 415 115 c 256,0,1
EndSplineSet
Validated: 1
EndChar

StartChar: slash
Encoding: 47 47 18
Width: 960
GlyphClass: 2
Flags: W
LayerCount: 2
Fore
SplineSet
870 1523 m 1,0,-1
 179 -424 l 1,1,-1
 49 -424 l 1,2,-1
 738 1523 l 1,3,-1
 870 1523 l 1,0,-1
EndSplineSet
Validated: 1
EndChar

StartChar: zero
Encoding: 48 48 19
Width: 1257
GlyphClass: 2
Flags: W
LayerCount: 2
Fore
SplineSet
1027 934 m 0,0,1
 1091 857 1091 857 1122.5 753.5 c 128,-1,2
 1154 650 1154 650 1154 537 c 0,3,4
 1154 401 1154 401 1115 293.5 c 128,-1,5
 1076 186 1076 186 1008 115 c 0,6,7
 938 42 938 42 842 5 c 128,-1,8
 746 -32 746 -32 628 -32 c 0,9,10
 499 -32 499 -32 398 11 c 128,-1,11
 297 54 297 54 234 129 c 0,12,13
 168 207 168 207 135.5 311.5 c 128,-1,14
 103 416 103 416 103 537 c 0,15,16
 103 656 103 656 134.5 756 c 128,-1,17
 166 856 166 856 233 937 c 0,18,19
 297 1015 297 1015 398 1060 c 128,-1,20
 499 1105 499 1105 629 1105 c 0,21,22
 766 1105 766 1105 864 1059 c 128,-1,23
 962 1013 962 1013 1027 934 c 0,0,1
933 537 m 0,24,25
 933 775 933 775 851.5 906 c 128,-1,26
 770 1037 770 1037 630 1037 c 0,27,28
 488 1037 488 1037 406 906 c 128,-1,29
 324 775 324 775 324 537 c 0,30,31
 324 311 324 311 402.5 173.5 c 128,-1,32
 481 36 481 36 628 36 c 256,33,34
 775 36 775 36 854 173.5 c 128,-1,35
 933 311 933 311 933 537 c 0,24,25
EndSplineSet
Validated: 1
EndChar

StartChar: one
Encoding: 49 49 20
Width: 880
GlyphClass: 2
Flags: W
LayerCount: 2
Fore
SplineSet
809 0 m 1,0,-1
 135 0 l 1,1,-1
 135 71 l 1,2,3
 165 73 165 73 228.5 79.5 c 128,-1,4
 292 86 292 86 316 93 c 0,5,6
 347 103 347 103 363.5 125.5 c 128,-1,7
 380 148 380 148 380 193 c 2,8,-1
 380 895 l 1,9,-1
 131 895 l 1,10,-1
 131 979 l 1,11,-1
 186 979 l 2,12,13
 294 979 294 979 379.5 1019 c 128,-1,14
 465 1059 465 1059 502 1105 c 1,15,-1
 585 1105 l 1,16,17
 582 1040 582 1040 579 953 c 128,-1,18
 576 866 576 866 576 797 c 2,19,-1
 576 204 l 2,20,21
 576 169 576 169 591.5 141.5 c 128,-1,22
 607 114 607 114 636 101 c 0,23,24
 662 90 662 90 721 81 c 128,-1,25
 780 72 780 72 809 71 c 1,26,-1
 809 0 l 1,0,-1
EndSplineSet
Validated: 1
EndChar

StartChar: two
Encoding: 50 50 21
Width: 1144
GlyphClass: 2
Flags: W
LayerCount: 2
Fore
SplineSet
1047 0 m 1,0,-1
 110 0 l 1,1,-1
 110 136 l 1,2,3
 137 167 137 167 185 205.5 c 128,-1,4
 233 244 233 244 299 289 c 0,5,6
 339 316 339 316 395 348 c 128,-1,7
 451 380 451 380 522 418 c 0,8,9
 601 460 601 460 643.5 492 c 128,-1,10
 686 524 686 524 721 571 c 0,11,12
 744 602 744 602 758 648.5 c 128,-1,13
 772 695 772 695 772 781 c 0,14,15
 772 906 772 906 705 964.5 c 128,-1,16
 638 1023 638 1023 533 1023 c 0,17,18
 468 1023 468 1023 410 997.5 c 128,-1,19
 352 972 352 972 323 927 c 1,20,21
 330 895 330 895 340.5 851 c 128,-1,22
 351 807 351 807 351 765 c 0,23,24
 351 727 351 727 319.5 697.5 c 128,-1,25
 288 668 288 668 226 668 c 0,26,27
 176 668 176 668 149 702.5 c 128,-1,28
 122 737 122 737 122 795 c 0,29,30
 122 849 122 849 152 903.5 c 128,-1,31
 182 958 182 958 238 1004 c 0,32,33
 293 1049 293 1049 374 1077 c 128,-1,34
 455 1105 455 1105 549 1105 c 0,35,36
 754 1105 754 1105 874.5 1013.5 c 128,-1,37
 995 922 995 922 995 769 c 0,38,39
 995 696 995 696 973.5 636 c 128,-1,40
 952 576 952 576 904 530 c 0,41,42
 851 479 851 479 780 442.5 c 128,-1,43
 709 406 709 406 563 341 c 0,44,45
 476 302 476 302 401 259.5 c 128,-1,46
 326 217 326 217 278 177 c 1,47,-1
 1047 177 l 1,48,-1
 1047 0 l 1,0,-1
EndSplineSet
Validated: 1
EndChar

StartChar: three
Encoding: 51 51 22
Width: 1130
GlyphClass: 2
Flags: W
LayerCount: 2
Fore
SplineSet
487 -365 m 0,0,1
 393 -365 393 -365 315 -341.5 c 128,-1,2
 237 -318 237 -318 181 -278 c 256,3,4
 125 -238 125 -238 94.5 -186 c 128,-1,5
 64 -134 64 -134 64 -79 c 0,6,7
 64 -30 64 -30 88 9.5 c 128,-1,8
 112 49 112 49 165 49 c 0,9,10
 225 49 225 49 256.5 19.5 c 128,-1,11
 288 -10 288 -10 288 -48 c 0,12,13
 288 -80 288 -80 277.5 -129 c 128,-1,14
 267 -178 267 -178 261 -199 c 1,15,16
 268 -208 268 -208 286.5 -223 c 128,-1,17
 305 -238 305 -238 332 -250 c 0,18,19
 364 -265 364 -265 399 -274 c 128,-1,20
 434 -283 434 -283 498 -283 c 0,21,22
 558 -283 558 -283 613.5 -263 c 128,-1,23
 669 -243 669 -243 711 -199 c 0,24,25
 755 -153 755 -153 779.5 -91.5 c 128,-1,26
 804 -30 804 -30 804 70 c 0,27,28
 804 124 804 124 792.5 177 c 128,-1,29
 781 230 781 230 750 269 c 256,30,31
 719 308 719 308 665.5 329.5 c 128,-1,32
 612 351 612 351 530 351 c 2,33,-1
 399 351 l 1,34,-1
 399 466 l 1,35,-1
 486 466 l 2,36,37
 624 466 624 466 685 542 c 128,-1,38
 746 618 746 618 746 771 c 0,39,40
 746 896 746 896 687 959.5 c 128,-1,41
 628 1023 628 1023 520 1023 c 0,42,43
 468 1023 468 1023 434.5 1010.5 c 128,-1,44
 401 998 401 998 380 986 c 0,45,46
 355 972 355 972 339 955 c 128,-1,47
 323 938 323 938 315 930 c 1,48,49
 322 898 322 898 332 851.5 c 128,-1,50
 342 805 342 805 342 763 c 0,51,52
 342 726 342 726 310.5 696.5 c 128,-1,53
 279 667 279 667 218 667 c 0,54,55
 165 667 165 667 140.5 705 c 128,-1,56
 116 743 116 743 116 793 c 0,57,58
 116 845 116 845 145 899 c 128,-1,59
 174 953 174 953 231 1000 c 256,60,61
 288 1047 288 1047 370 1076 c 128,-1,62
 452 1105 452 1105 559 1105 c 0,63,64
 682 1105 682 1105 762.5 1068.5 c 128,-1,65
 843 1032 843 1032 889 980 c 0,66,67
 934 929 934 929 951 873 c 128,-1,68
 968 817 968 817 968 777 c 0,69,70
 968 727 968 727 954 676.5 c 128,-1,71
 940 626 940 626 908 583 c 0,72,73
 873 536 873 536 815.5 497.5 c 128,-1,74
 758 459 758 459 671 435 c 1,75,-1
 671 419 l 1,76,77
 727 414 727 414 790.5 394 c 128,-1,78
 854 374 854 374 905 335 c 0,79,80
 958 294 958 294 992 229.5 c 128,-1,81
 1026 165 1026 165 1026 66 c 0,82,83
 1026 -126 1026 -126 872 -245.5 c 128,-1,84
 718 -365 718 -365 487 -365 c 0,0,1
EndSplineSet
Validated: 1
EndChar

StartChar: four
Encoding: 52 52 23
Width: 1157
GlyphClass: 2
Flags: W
LayerCount: 2
Fore
SplineSet
1084 90 m 1,0,-1
 881 90 l 1,1,-1
 881 -365 l 1,2,-1
 689 -365 l 1,3,-1
 689 90 l 1,4,-1
 49 90 l 1,5,-1
 49 244 l 1,6,-1
 750 1099 l 1,7,-1
 881 1099 l 1,8,-1
 881 221 l 1,9,-1
 1084 221 l 1,10,-1
 1084 90 l 1,0,-1
689 221 m 1,11,-1
 689 876 l 1,12,-1
 149 221 l 1,13,-1
 689 221 l 1,11,-1
EndSplineSet
Validated: 1
EndChar

StartChar: five
Encoding: 53 53 24
Width: 1082
GlyphClass: 2
Flags: W
LayerCount: 2
Fore
SplineSet
843 469 m 256,0,1
 909 417 909 417 952.5 335 c 128,-1,2
 996 253 996 253 996 130 c 0,3,4
 996 -85 996 -85 849 -225 c 128,-1,5
 702 -365 702 -365 476 -365 c 0,6,7
 301 -365 301 -365 180 -282 c 128,-1,8
 59 -199 59 -199 59 -89 c 0,9,10
 59 -38 59 -38 84 0 c 128,-1,11
 109 38 109 38 161 38 c 0,12,13
 221 38 221 38 252.5 6.5 c 128,-1,14
 284 -25 284 -25 284 -62 c 0,15,16
 284 -94 284 -94 273 -142 c 128,-1,17
 262 -190 262 -190 256 -213 c 1,18,19
 264 -220 264 -220 282 -232 c 128,-1,20
 300 -244 300 -244 325 -255 c 0,21,22
 351 -266 351 -266 388.5 -274.5 c 128,-1,23
 426 -283 426 -283 476 -283 c 0,24,25
 540 -283 540 -283 597 -257 c 128,-1,26
 654 -231 654 -231 693 -180 c 0,27,28
 736 -124 736 -124 757.5 -52.5 c 128,-1,29
 779 19 779 19 779 129 c 0,30,31
 779 270 779 270 700.5 362.5 c 128,-1,32
 622 455 622 455 494 455 c 0,33,34
 414 455 414 455 344.5 425 c 128,-1,35
 275 395 275 395 220 325 c 1,36,-1
 153 351 l 1,37,-1
 238 1073 l 1,38,-1
 954 1073 l 1,39,-1
 954 895 l 1,40,-1
 319 895 l 1,41,-1
 267 471 l 1,42,43
 312 503 312 503 385.5 534.5 c 128,-1,44
 459 566 459 566 547 566 c 0,45,46
 620 566 620 566 698.5 543.5 c 128,-1,47
 777 521 777 521 843 469 c 256,0,1
EndSplineSet
Validated: 1
EndChar

StartChar: six
Encoding: 54 54 25
Width: 1159
GlyphClass: 2
Flags: W
LayerCount: 2
Fore
SplineSet
1075 461 m 0,0,1
 1075 357 1075 357 1037.5 266 c 128,-1,2
 1000 175 1000 175 937 111 c 0,3,4
 864 38 864 38 775.5 3 c 128,-1,5
 687 -32 687 -32 591 -32 c 0,6,7
 480 -32 480 -32 390 9 c 128,-1,8
 300 50 300 50 237 125 c 0,9,10
 173 201 173 201 138 311 c 128,-1,11
 103 421 103 421 103 558 c 0,12,13
 103 915 103 915 315.5 1160 c 128,-1,14
 528 1405 528 1405 885 1454 c 1,15,-1
 903 1364 l 1,16,-1
 813 1348 l 1,17,18
 596 1278 596 1278 477.5 1130 c 128,-1,19
 359 982 359 982 324 771 c 1,20,21
 410 846 410 846 494 877 c 128,-1,22
 578 908 578 908 671 908 c 0,23,24
 838 908 838 908 956.5 780 c 128,-1,25
 1075 652 1075 652 1075 461 c 0,0,1
858 434 m 0,26,27
 858 596 858 596 783.5 694 c 128,-1,28
 709 792 709 792 584 792 c 0,29,30
 509 792 509 792 444.5 764 c 128,-1,31
 380 736 380 736 320 670 c 1,32,33
 319 658 319 658 317 614.5 c 128,-1,34
 315 571 315 571 315 546 c 0,35,36
 315 312 315 312 391.5 179.5 c 128,-1,37
 468 47 468 47 593 47 c 0,38,39
 712 47 712 47 785 150.5 c 128,-1,40
 858 254 858 254 858 434 c 0,26,27
EndSplineSet
Validated: 1
EndChar

StartChar: seven
Encoding: 55 55 26
Width: 1029
GlyphClass: 2
Flags: W
LayerCount: 2
Fore
SplineSet
1029 1008 m 1,0,-1
 316 -365 l 1,1,-1
 191 -365 l 1,2,-1
 862 905 l 1,3,-1
 469 905 l 2,4,5
 382 905 382 905 333 903 c 128,-1,6
 284 901 284 901 243 884 c 0,7,8
 212 871 212 871 187.5 817.5 c 128,-1,9
 163 764 163 764 150 681 c 1,10,-1
 89 681 l 1,11,-1
 89 1073 l 1,12,-1
 1029 1073 l 1,13,-1
 1029 1008 l 1,0,-1
EndSplineSet
Validated: 1
EndChar

StartChar: eight
Encoding: 56 56 27
Width: 1221
GlyphClass: 2
Flags: W
LayerCount: 2
Fore
SplineSet
1117 376 m 0,0,1
 1117 208 1117 208 972 87 c 128,-1,2
 827 -34 827 -34 591 -34 c 0,3,4
 370 -34 370 -34 237 77 c 128,-1,5
 104 188 104 188 104 363 c 0,6,7
 104 492 104 492 182.5 578.5 c 128,-1,8
 261 665 261 665 415 725 c 1,9,10
 288 796 288 796 225 881 c 128,-1,11
 162 966 162 966 162 1073 c 0,12,13
 162 1236 162 1236 300.5 1346 c 128,-1,14
 439 1456 439 1456 632 1456 c 256,15,16
 825 1456 825 1456 944.5 1352 c 128,-1,17
 1064 1248 1064 1248 1064 1091 c 0,18,19
 1064 990 1064 990 998 899.5 c 128,-1,20
 932 809 932 809 804 751 c 1,21,22
 970 680 970 680 1043.5 594 c 128,-1,23
 1117 508 1117 508 1117 376 c 0,0,1
875 1102 m 0,24,25
 875 1224 875 1224 802.5 1300.5 c 128,-1,26
 730 1377 730 1377 617 1377 c 256,27,28
 504 1377 504 1377 432 1303.5 c 128,-1,29
 360 1230 360 1230 360 1121 c 0,30,31
 360 1016 360 1016 442 943 c 128,-1,32
 524 870 524 870 734 787 c 1,33,34
 809 835 809 835 842 914 c 128,-1,35
 875 993 875 993 875 1102 c 0,24,25
917 329 m 0,36,37
 917 392 917 392 890 439.5 c 128,-1,38
 863 487 863 487 812 526 c 0,39,40
 763 564 763 564 675.5 605.5 c 128,-1,41
 588 647 588 647 486 690 c 1,42,43
 390 638 390 638 345 557.5 c 128,-1,44
 300 477 300 477 300 374 c 0,45,46
 300 227 300 227 386.5 136.5 c 128,-1,47
 473 46 473 46 617 46 c 0,48,49
 755 46 755 46 836 126 c 128,-1,50
 917 206 917 206 917 329 c 0,36,37
EndSplineSet
Validated: 1
EndChar

StartChar: nine
Encoding: 57 57 28
Width: 1159
GlyphClass: 2
Flags: W
LayerCount: 2
Fore
SplineSet
1056 516 m 0,0,1
 1056 342 1056 342 1001 188.5 c 128,-1,2
 946 35 946 35 843 -81 c 0,3,4
 742 -195 742 -195 596.5 -270.5 c 128,-1,5
 451 -346 451 -346 271 -370 c 1,6,-1
 253 -280 l 1,7,-1
 343 -264 l 1,8,9
 558 -196 558 -196 679 -55 c 128,-1,10
 800 86 800 86 835 303 c 1,11,12
 753 233 753 233 671.5 200.5 c 128,-1,13
 590 168 590 168 488 168 c 0,14,15
 325 168 325 168 204.5 295 c 128,-1,16
 84 422 84 422 84 615 c 0,17,18
 84 822 84 822 223.5 964 c 128,-1,19
 363 1106 363 1106 568 1106 c 0,20,21
 791 1106 791 1106 923.5 947 c 128,-1,22
 1056 788 1056 788 1056 516 c 0,0,1
844 528 m 0,23,24
 844 762 844 762 767.5 894.5 c 128,-1,25
 691 1027 691 1027 566 1027 c 0,26,27
 447 1027 447 1027 374 924.5 c 128,-1,28
 301 822 301 822 301 642 c 0,29,30
 301 480 301 480 375.5 382 c 128,-1,31
 450 284 450 284 575 284 c 0,32,33
 653 284 653 284 718 312.5 c 128,-1,34
 783 341 783 341 839 404 c 0,35,36
 839 408 839 408 840.5 420 c 128,-1,37
 842 432 842 432 842 454 c 0,38,39
 842 468 842 468 843 488 c 128,-1,40
 844 508 844 508 844 528 c 0,23,24
EndSplineSet
Validated: 1
EndChar

StartChar: colon
Encoding: 58 58 29
Width: 640
GlyphClass: 2
Flags: W
LayerCount: 2
Fore
SplineSet
457 853 m 256,0,1
 457 797 457 797 416.5 757 c 128,-1,2
 376 717 376 717 320 717 c 256,3,4
 264 717 264 717 223.5 757 c 128,-1,5
 183 797 183 797 183 853 c 256,6,7
 183 909 183 909 223 949.5 c 128,-1,8
 263 990 263 990 320 990 c 256,9,10
 377 990 377 990 417 949.5 c 128,-1,11
 457 909 457 909 457 853 c 256,0,1
457 115 m 256,12,13
 457 59 457 59 416.5 19.5 c 128,-1,14
 376 -20 376 -20 320 -20 c 256,15,16
 264 -20 264 -20 223.5 19.5 c 128,-1,17
 183 59 183 59 183 115 c 256,18,19
 183 171 183 171 223.5 211.5 c 128,-1,20
 264 252 264 252 320 252 c 256,21,22
 376 252 376 252 416.5 211.5 c 128,-1,23
 457 171 457 171 457 115 c 256,12,13
EndSplineSet
Validated: 1
EndChar

StartChar: semicolon
Encoding: 59 59 30
Width: 640
GlyphClass: 2
Flags: W
LayerCount: 2
Fore
SplineSet
457 853 m 256,0,1
 457 797 457 797 416.5 757 c 128,-1,2
 376 717 376 717 320 717 c 256,3,4
 264 717 264 717 223.5 757 c 128,-1,5
 183 797 183 797 183 853 c 256,6,7
 183 909 183 909 223 949.5 c 128,-1,8
 263 990 263 990 320 990 c 256,9,10
 377 990 377 990 417 949.5 c 128,-1,11
 457 909 457 909 457 853 c 256,0,1
474 35 m 0,12,13
 474 -37 474 -37 441.5 -100.5 c 128,-1,14
 409 -164 409 -164 367 -211 c 0,15,16
 324 -259 324 -259 276 -296 c 128,-1,17
 228 -333 228 -333 188 -354 c 1,18,-1
 142 -287 l 1,19,20
 190 -257 190 -257 227.5 -226.5 c 128,-1,21
 265 -196 265 -196 290 -167 c 0,22,23
 320 -132 320 -132 341 -91 c 128,-1,24
 362 -50 362 -50 368 2 c 1,25,-1
 317 2 l 2,26,27
 250 2 250 2 212.5 37 c 128,-1,28
 175 72 175 72 175 131 c 0,29,30
 175 173 175 173 209 212.5 c 128,-1,31
 243 252 243 252 302 252 c 0,32,33
 388 252 388 252 431 194.5 c 128,-1,34
 474 137 474 137 474 35 c 0,12,13
EndSplineSet
Validated: 1
EndChar

StartChar: less
Encoding: 60 60 31
Width: 1317
GlyphClass: 2
Flags: W
LayerCount: 2
Fore
SplineSet
1118 22 m 1,0,-1
 193 503 l 1,1,-1
 193 616 l 1,2,-1
 1118 1097 l 1,3,-1
 1118 960 l 1,4,-1
 349 560 l 1,5,-1
 1118 159 l 1,6,-1
 1118 22 l 1,0,-1
EndSplineSet
Validated: 1
EndChar

StartChar: equal
Encoding: 61 61 32
Width: 1317
GlyphClass: 2
Flags: W
LayerCount: 2
Fore
SplineSet
1163 683 m 1,0,-1
 154 683 l 1,1,-1
 154 808 l 1,2,-1
 1163 808 l 1,3,-1
 1163 683 l 1,0,-1
1163 311 m 1,4,-1
 154 311 l 1,5,-1
 154 436 l 1,6,-1
 1163 436 l 1,7,-1
 1163 311 l 1,4,-1
EndSplineSet
Validated: 1
EndChar

StartChar: greater
Encoding: 62 62 33
Width: 1317
GlyphClass: 2
Flags: W
LayerCount: 2
Fore
SplineSet
1124 503 m 1,0,-1
 199 22 l 1,1,-1
 199 159 l 1,2,-1
 968 560 l 1,3,-1
 199 960 l 1,4,-1
 199 1097 l 1,5,-1
 1124 616 l 1,6,-1
 1124 503 l 1,0,-1
EndSplineSet
Validated: 1
EndChar

StartChar: question
Encoding: 63 63 34
Width: 980
GlyphClass: 2
Flags: W
LayerCount: 2
Fore
SplineSet
771 1329 m 0,0,1
 826 1271 826 1271 852.5 1198.5 c 128,-1,2
 879 1126 879 1126 879 1041 c 0,3,4
 879 856 879 856 761 739 c 128,-1,5
 643 622 643 622 437 598 c 1,6,-1
 437 377 l 1,7,-1
 345 377 l 1,8,-1
 345 756 l 1,9,10
 408 761 408 761 470 776.5 c 128,-1,11
 532 792 532 792 581 827 c 0,12,13
 632 864 632 864 660.5 916.5 c 128,-1,14
 689 969 689 969 689 1063 c 0,15,16
 689 1213 689 1213 625.5 1293 c 128,-1,17
 562 1373 562 1373 440 1373 c 0,18,19
 394 1373 394 1373 359.5 1359.5 c 128,-1,20
 325 1346 325 1346 309 1334 c 1,21,22
 314 1310 314 1310 322.5 1265 c 128,-1,23
 331 1220 331 1220 331 1196 c 0,24,25
 331 1159 331 1159 299 1128.5 c 128,-1,26
 267 1098 267 1098 206 1098 c 0,27,28
 152 1098 152 1098 129 1135 c 128,-1,29
 106 1172 106 1172 106 1221 c 0,30,31
 106 1261 106 1261 128 1299.5 c 128,-1,32
 150 1338 150 1338 197 1374 c 0,33,34
 237 1406 237 1406 305.5 1429 c 128,-1,35
 374 1452 374 1452 448 1452 c 0,36,37
 554 1452 554 1452 636 1418.5 c 128,-1,38
 718 1385 718 1385 771 1329 c 0,0,1
531 115 m 256,39,40
 531 59 531 59 490.5 19.5 c 128,-1,41
 450 -20 450 -20 394 -20 c 256,42,43
 338 -20 338 -20 297.5 19.5 c 128,-1,44
 257 59 257 59 257 115 c 256,45,46
 257 171 257 171 297.5 211.5 c 128,-1,47
 338 252 338 252 394 252 c 256,48,49
 450 252 450 252 490.5 211.5 c 128,-1,50
 531 171 531 171 531 115 c 256,39,40
763.740412025 1322.12261633 m 0,51,52
 712.220402905 1376.55885238 712.220402905 1376.55885238 632.218067823 1409.24273318 c 128,-1,53
 552.036101274 1442 552.036101274 1442 448 1442 c 0,54,55
 375.63400762 1442 375.63400762 1442 308.683028974 1419.52010936 c 128,-1,56
 241.863076895 1397.08421304 241.863076895 1397.08421304 203.164546059 1366.12538837 c 0,57,58
 157.681835261 1331.28756734 157.681835261 1331.28756734 136.682431421 1294.53861062 c 0,59,60
 116 1258.34435563 116 1258.34435563 116 1221 c 0,61,62
 116 1174.85480079 116 1174.85480079 137.492853253 1140.27934121 c 0,63,64
 157.558389682 1108 157.558389682 1108 206 1108 c 0,65,66
 262.997737733 1108 262.997737733 1108 292.10062455 1135.738689 c 0,67,68
 321 1163.28340622 321 1163.28340622 321 1196 c 0,69,70
 321 1200.47439152 321 1200.47439152 320.673105054 1205.84055441 c 128,-1,71
 320.346210109 1211.20671731 320.346210109 1211.20671731 319.682066211 1217.51909454 c 128,-1,72
 319.017922313 1223.83147177 319.017922313 1223.83147177 318.026574964 1230.97071822 c 128,-1,73
 317.035227615 1238.10996467 317.035227615 1238.10996467 315.69057539 1246.20063151 c 128,-1,74
 314.345923165 1254.29129835 314.345923165 1254.29129835 312.673758983 1263.14393225 c 0,75,76
 308.432965854 1285.59519 308.432965854 1285.59519 305.064199708 1302.81325311 c 128,-1,77
 301.695433562 1320.03131622 301.695433562 1320.03131622 299.210195803 1331.96045746 c 2,78,-1
 297.913404921 1338.18505369 l 1,79,-1
 303 1342 l 2,80,81
 308.917912734 1346.43843455 308.917912734 1346.43843455 316.825712073 1350.90046356 c 128,-1,82
 324.733511412 1355.36249258 324.733511412 1355.36249258 334.354449447 1359.76299125 c 128,-1,83
 343.975387482 1364.16348991 343.975387482 1364.16348991 355.856006514 1368.8124278 c 0,84,85
 364.989661096 1372.38646655 364.989661096 1372.38646655 374.845426104 1375.05788463 c 128,-1,86
 384.701191113 1377.72930271 384.701191113 1377.72930271 395.228019016 1379.48981536 c 128,-1,87
 405.754846919 1381.250328 405.754846919 1381.250328 416.931238666 1382.125164 c 128,-1,88
 428.107630414 1383 428.107630414 1383 440 1383 c 0,89,90
 566.829798314 1383 566.829798314 1383 633.332510648 1299.21705533 c 0,91,92
 699 1216.48636008 699 1216.48636008 699 1063 c 0,93,94
 699 966.460728682 699 966.460728682 669.288534317 911.729081371 c 0,95,96
 639.707066604 857.236904005 639.707066604 857.236904005 586.872276152 818.90578152 c 0,97,98
 536.26663436 782.758894526 536.26663436 782.758894526 472.42535625 766.798574999 c 0,99,100
 442.904612595 759.418389085 442.904612595 759.418389085 414.30064795 754.539305822 c 128,-1,101
 385.696683305 749.660222559 385.696683305 749.660222559 355 746.817581382 c 1,102,-1
 355 387 l 1,103,-1
 427 387 l 1,104,-1
 427 598 l 1,105,-1
 427 606.902589616 l 1,106,-1
 435.842778688 607.932816259 l 2,107,108
 638.411878533 631.533099736 638.411878533 631.533099736 753.959085586 746.10109317 c 0,109,110
 869 860.167084581 869 860.167084581 869 1041 c 0,111,112
 869 1124.22969028 869 1124.22969028 843.107752363 1195.06697155 c 0,113,114
 830.207394977 1230.36040214 830.207394977 1230.36040214 810.386944276 1262.09684805 c 128,-1,115
 790.566493575 1293.83329397 790.566493575 1293.83329397 763.740412025 1322.12261633 c 0,51,52
521 115 m 128,-1,117
 521 166.857864376 521 166.857864376 483.428932188 204.428932188 c 128,-1,118
 445.857864376 242 445.857864376 242 394 242 c 0,119,120
 367.887693022 242 367.887693022 242 345.705353471 232.690439149 c 128,-1,121
 323.523013921 223.380878297 323.523013921 223.380878297 304.571067812 204.428932188 c 128,-1,122
 285.619435701 185.477300077 285.619435701 185.477300077 276.30971785 163.295421249 c 128,-1,123
 267 141.113542422 267 141.113542422 267 115 c 0,124,125
 267 63.2155461086 267 63.2155461086 304.482134006 26.6588968925 c 128,-1,126
 342.069104238 -10 342.069104238 -10 394 -10 c 128,-1,127
 445.930895762 -10 445.930895762 -10 483.517865994 26.6588968925 c 128,-1,116
 521 63.2155461086 521 63.2155461086 521 115 c 128,-1,117
EndSplineSet
Validated: 524289
EndChar

StartChar: at
Encoding: 64 64 35
Width: 1902
GlyphClass: 2
Flags: W
LayerCount: 2
Fore
SplineSet
1530 -119 m 1,0,1
 1430 -206 1430 -206 1292.5 -259.5 c 128,-1,2
 1155 -313 1155 -313 986 -313 c 0,3,4
 835 -313 835 -313 689 -264.5 c 128,-1,5
 543 -216 543 -216 426 -117 c 0,6,7
 310 -18 310 -18 239 129.5 c 128,-1,8
 168 277 168 277 168 477 c 0,9,10
 168 648 168 648 232 809 c 128,-1,11
 296 970 296 970 415 1096 c 0,12,13
 530 1219 530 1219 699.5 1294.5 c 128,-1,14
 869 1370 869 1370 1069 1370 c 0,15,16
 1242 1370 1242 1370 1369 1314.5 c 128,-1,17
 1496 1259 1496 1259 1577 1168 c 0,18,19
 1658 1078 1658 1078 1698.5 961 c 128,-1,20
 1739 844 1739 844 1739 717 c 0,21,22
 1739 473 1739 473 1605 304.5 c 128,-1,23
 1471 136 1471 136 1266 136 c 0,24,25
 1181 136 1181 136 1122 178.5 c 128,-1,26
 1063 221 1063 221 1056 298 c 1,27,-1
 1049 300 l 1,28,29
 1001 227 1001 227 939.5 183.5 c 128,-1,30
 878 140 878 140 815 140 c 0,31,32
 774 140 774 140 731.5 153.5 c 128,-1,33
 689 167 689 167 656 198 c 0,34,35
 623 231 623 231 603.5 284 c 128,-1,36
 584 337 584 337 584 415 c 0,37,38
 584 488 584 488 617.5 578.5 c 128,-1,39
 651 669 651 669 708 751 c 0,40,41
 765 834 765 834 855.5 895 c 128,-1,42
 946 956 946 956 1051 956 c 0,43,44
 1107 956 1107 956 1150.5 924.5 c 128,-1,45
 1194 893 1194 893 1204 832 c 1,46,-1
 1210 832 l 1,47,-1
 1253 944 l 1,48,-1
 1402 944 l 1,49,-1
 1213 406 l 2,50,51
 1204 381 1204 381 1198.5 348.5 c 128,-1,52
 1193 316 1193 316 1193 297 c 0,53,54
 1193 246 1193 246 1219 222.5 c 128,-1,55
 1245 199 1245 199 1286 199 c 0,56,57
 1441 199 1441 199 1545 344.5 c 128,-1,58
 1649 490 1649 490 1649 728 c 0,59,60
 1649 846 1649 846 1612 946.5 c 128,-1,61
 1575 1047 1575 1047 1499 1124 c 0,62,63
 1426 1200 1426 1200 1315 1244 c 128,-1,64
 1204 1288 1204 1288 1061 1288 c 0,65,66
 925 1288 925 1288 796 1235 c 128,-1,67
 667 1182 667 1182 561 1079 c 0,68,69
 458 979 458 979 394 830 c 128,-1,70
 330 681 330 681 330 493 c 0,71,72
 330 312 330 312 380 174.5 c 128,-1,73
 430 37 430 37 521 -56 c 0,74,75
 610 -146 610 -146 731 -191 c 128,-1,76
 852 -236 852 -236 993 -236 c 0,77,78
 1152 -236 1152 -236 1276 -193 c 128,-1,79
 1400 -150 1400 -150 1499 -68 c 1,80,-1
 1530 -119 l 1,0,1
1182 742 m 1,81,82
 1168 823 1168 823 1137 860 c 128,-1,83
 1106 897 1106 897 1046 897 c 0,84,85
 982 897 982 897 928.5 845.5 c 128,-1,86
 875 794 875 794 838 723 c 0,87,88
 799 649 799 649 777.5 561.5 c 128,-1,89
 756 474 756 474 756 400 c 0,90,91
 756 315 756 315 776.5 269.5 c 128,-1,92
 797 224 797 224 844 224 c 0,93,94
 912 224 912 224 966 271 c 128,-1,95
 1020 318 1020 318 1067 404 c 1,96,-1
 1182 742 l 1,81,82
EndSplineSet
Validated: 1
EndChar

StartChar: A
Encoding: 65 65 36
Width: 1374
GlyphClass: 2
Flags: W
LayerCount: 2
Fore
SplineSet
1421 0 m 1,0,-1
 830 0 l 1,1,-1
 830 71 l 1,2,3
 908 76 908 76 959.5 91 c 128,-1,4
 1011 106 1011 106 1011 128 c 0,5,6
 1011 137 1011 137 1009 150 c 128,-1,7
 1007 163 1007 163 1003 173 c 2,8,-1
 885 491 l 1,9,-1
 388 491 l 1,10,11
 360 421 360 421 342.5 369 c 128,-1,12
 325 317 325 317 311 273 c 0,13,14
 298 230 298 230 293 203 c 128,-1,15
 288 176 288 176 288 159 c 0,16,17
 288 119 288 119 351 97 c 128,-1,18
 414 75 414 75 493 71 c 1,19,-1
 493 0 l 1,20,-1
 -41 0 l 1,21,-1
 -41 71 l 1,22,23
 -15 73 -15 73 24 82.5 c 128,-1,24
 63 92 63 92 88 108 c 0,25,26
 128 135 128 135 150 164.5 c 128,-1,27
 172 194 172 194 193 246 c 0,28,29
 300 513 300 513 429 846 c 128,-1,30
 558 1179 558 1179 659 1439 c 1,31,-1
 739 1439 l 1,32,-1
 1212 215 l 2,33,34
 1227 176 1227 176 1246 152 c 128,-1,35
 1265 128 1265 128 1299 105 c 0,36,37
 1322 91 1322 91 1359 81.5 c 128,-1,38
 1396 72 1396 72 1421 71 c 1,39,-1
 1421 0 l 1,0,-1
849 580 m 1,40,-1
 634 1130 l 1,41,-1
 423 580 l 1,42,-1
 849 580 l 1,40,-1
1411 10 m 1,43,-1
 1411 61.6492807233 l 1,44,45
 1387.82882644 63.7736443211 1387.82882644 63.7736443211 1356.51309753 71.8141693135 c 0,46,47
 1318.07170354 81.6842569576 1318.07170354 81.6842569576 1293.80053053 96.4580144439 c 2,48,-1
 1293.59560993 96.5827487225 l 1,49,-1
 1293.39690632 96.7171658687 l 2,50,51
 1281.70448779 104.626743113 1281.70448779 104.626743113 1271.7239562 112.651491229 c 128,-1,52
 1261.74342462 120.676239345 1261.74342462 120.676239345 1253.31414115 128.987037004 c 128,-1,53
 1244.88485767 137.297834664 1244.88485767 137.297834664 1238.15954176 145.792970556 c 128,-1,54
 1231.43332123 154.289249116 1231.43332123 154.289249116 1225.2338332 164.467357996 c 128,-1,55
 1219.03434517 174.645466876 1219.03434517 174.645466876 1213.42706824 186.328616453 c 128,-1,56
 1207.81979131 198.01176603 1207.81979131 198.01176603 1202.66654394 211.410209207 c 2,57,-1
 732.143678282 1429 l 1,58,-1
 665.843449998 1429 l 1,59,60
 565.700467632 1171.1947399 565.700467632 1171.1947399 438.324768393 842.387702334 c 0,61,62
 309.309023048 509.346614637 309.309023048 509.346614637 202.282367359 242.280099972 c 0,63,64
 180.788548215 189.057309711 180.788548215 189.057309711 158.016274751 158.521761203 c 0,65,66
 135.001565285 127.661128056 135.001565285 127.661128056 93.4934528083 99.6431521336 c 0,67,68
 66.9864076427 82.6786432276 66.9864076427 82.6786432276 26.3666941654 72.784097637 c 0,69,70
 -6.73675662411 64.7204365472 -6.73675662411 64.7204365472 -31 61.9208315423 c 1,71,-1
 -31 10 l 1,72,-1
 483 10 l 1,73,-1
 483 61.5611153258 l 1,74,75
 408.077369556 66.4760292847 408.077369556 66.4760292847 347.703171672 87.5590825142 c 0,76,77
 278 111.899872622 278 111.899872622 278 159 c 0,78,79
 278 176.918120871 278 176.918120871 283.16717995 204.820892602 c 0,80,81
 288.267866823 232.364601714 288.267866823 232.364601714 301.448814442 275.963120762 c 0,82,83
 315.495877767 320.11103407 315.495877767 320.11103407 333.022319568 372.189603992 c 128,-1,84
 350.611450702 424.454450791 350.611450702 424.454450791 378.715233091 494.713906764 c 2,85,-1
 381.229670386 501 l 1,86,-1
 388 501 l 1,87,-1
 885 501 l 1,88,-1
 891.955574337 501 l 1,89,-1
 894.37535202 494.478904209 l 1,90,-1
 1012.33153926 176.596975893 l 2,91,92
 1016.70972704 165.651506439 1016.70972704 165.651506439 1018.88371698 151.520571843 c 0,93,94
 1019.93746235 144.671226914 1019.93746235 144.671226914 1020.46873118 138.829543216 c 128,-1,95
 1021 132.987859518 1021 132.987859518 1021 128 c 0,96,97
 1021 98.4970866546 1021 98.4970866546 962.296420387 81.3989566704 c 0,98,99
 912.92915688 67.0201420567 912.92915688 67.0201420567 840 61.6630632733 c 1,100,-1
 840 10 l 1,101,-1
 1411 10 l 1,43,-1
858.313676476 583.640800804 m 1,102,-1
 863.645989518 570 l 1,103,-1
 849 570 l 1,104,-1
 423 570 l 1,105,-1
 408.453002118 570 l 1,106,-1
 413.663484748 583.58182676 l 1,107,-1
 624.663484748 1133.58182676 l 1,108,-1
 633.912439539 1157.69047669 l 1,109,-1
 643.313676476 1133.6408008 l 1,110,-1
 858.313676476 583.640800804 l 1,102,-1
EndSplineSet
Validated: 524289
EndChar

StartChar: B
Encoding: 66 66 37
Width: 1339
GlyphClass: 2
Flags: W
LayerCount: 2
Fore
SplineSet
1104 661 m 0,0,1
 1166 619 1166 619 1207 551 c 128,-1,2
 1248 483 1248 483 1248 386 c 0,3,4
 1248 287 1248 287 1205 214 c 128,-1,5
 1162 141 1162 141 1093 94 c 0,6,7
 1026 48 1026 48 941.5 24 c 128,-1,8
 857 0 857 0 767 0 c 2,9,-1
 95 0 l 1,10,-1
 95 71 l 1,11,12
 119 73 119 73 165 79.5 c 128,-1,13
 211 86 211 86 231 95 c 0,14,15
 262 109 262 109 275 132.5 c 128,-1,16
 288 156 288 156 288 193 c 2,17,-1
 288 1213 l 2,18,19
 288 1247 288 1247 276.5 1273 c 128,-1,20
 265 1299 265 1299 231 1315 c 0,21,22
 201 1330 201 1330 164 1338 c 128,-1,23
 127 1346 127 1346 102 1348 c 1,24,-1
 102 1419 l 1,25,-1
 757 1419 l 2,26,27
 833 1419 833 1419 902.5 1404 c 128,-1,28
 972 1389 972 1389 1035 1351 c 0,29,30
 1094 1316 1094 1316 1132 1256 c 128,-1,31
 1170 1196 1170 1196 1170 1110 c 0,32,33
 1170 1035 1170 1035 1143 976.5 c 128,-1,34
 1116 918 1116 918 1067 876 c 0,35,36
 1021 836 1021 836 961.5 808.5 c 128,-1,37
 902 781 902 781 833 766 c 1,38,-1
 833 757 l 1,39,40
 894 750 894 750 969.5 726.5 c 128,-1,41
 1045 703 1045 703 1104 661 c 0,0,1
863 875 m 0,42,43
 900 918 900 918 914.5 969 c 128,-1,44
 929 1020 929 1020 929 1090 c 0,45,46
 929 1207 929 1207 865 1273.5 c 128,-1,47
 801 1340 801 1340 663 1340 c 0,48,49
 631 1340 631 1340 582.5 1338.5 c 128,-1,50
 534 1337 534 1337 501 1336 c 1,51,-1
 501 791 l 1,52,-1
 628 791 l 2,53,54
 710 791 710 791 768.5 812 c 128,-1,55
 827 833 827 833 863 875 c 0,42,43
1001 422 m 0,56,57
 1001 548 1001 548 916.5 629 c 128,-1,58
 832 710 832 710 675 710 c 0,59,60
 611 710 611 710 567 708.5 c 128,-1,61
 523 707 523 707 501 706 c 1,62,-1
 501 206 l 2,63,64
 501 143 501 143 552 111 c 128,-1,65
 603 79 603 79 694 79 c 0,66,67
 843 79 843 79 922 166 c 128,-1,68
 1001 253 1001 253 1001 422 c 0,56,57
1098.29533294 652.785971089 m 0,69,70
 1040.50239968 693.926703236 1040.50239968 693.926703236 966.528053329 716.951830909 c 0,71,72
 891.925820583 740.17239342 891.925820583 740.17239342 831.859940902 747.065199285 c 2,73,-1
 823 748.081913814 l 1,74,-1
 823 757 l 1,75,-1
 823 766 l 1,76,-1
 823 774.05965417 l 1,77,-1
 830.875703557 775.771763639 l 2,78,79
 898.801992368 790.538348163 898.801992368 790.538348163 957.304581531 817.577359961 c 0,80,81
 986.441843595 831.044161756 986.441843595 831.044161756 1012.21444315 847.533730166 c 128,-1,82
 1037.98704271 864.023298577 1037.98704271 864.023298577 1060.43821285 883.546055222 c 0,83,84
 1072.33638856 893.744491547 1072.33638856 893.744491547 1082.85209852 904.88522835 c 128,-1,85
 1093.36780847 916.025965152 1093.36780847 916.025965152 1102.54071352 928.156511173 c 128,-1,86
 1111.71361856 940.287057195 1111.71361856 940.287057195 1119.54732938 953.404506373 c 128,-1,87
 1127.38104021 966.521955551 1127.38104021 966.521955551 1133.92040615 980.690581775 c 0,88,89
 1142.59103098 999.47693556 1142.59103098 999.47693556 1148.37836448 1020.03944823 c 128,-1,90
 1154.16569799 1040.60196089 1154.16569799 1040.60196089 1157.08284899 1063.1184547 c 128,-1,91
 1160 1085.63494851 1160 1085.63494851 1160 1110 c 0,92,93
 1160 1193.09970431 1160 1193.09970431 1123.55180924 1250.64947919 c 0,94,95
 1086.83513477 1308.62317572 1086.83513477 1308.62317572 1029.89798087 1342.39945346 c 0,96,97
 998.990374922 1361.04213641 998.990374922 1361.04213641 966.681452433 1373.96645841 c 128,-1,98
 934.372529945 1386.8907804 934.372529945 1386.8907804 900.390303705 1394.22507383 c 0,99,100
 877.583741061 1399.14735354 877.583741061 1399.14735354 854.062405057 1402.42978618 c 128,-1,101
 830.541069053 1405.71221882 830.541069053 1405.71221882 806.268884466 1407.35610941 c 128,-1,102
 781.996699879 1409 781.996699879 1409 757 1409 c 2,103,-1
 112 1409 l 1,104,-1
 112 1357.08018774 l 1,105,106
 122.958467021 1355.84231097 122.958467021 1355.84231097 136.941671037 1353.45022122 c 128,-1,107
 150.924875053 1351.05813146 150.924875053 1351.05813146 166.113327925 1347.77414165 c 0,108,109
 178.762035455 1345.03928597 178.762035455 1345.03928597 190.730296411 1341.4688239 c 128,-1,110
 202.698557367 1337.89836184 202.698557367 1337.89836184 213.890708698 1333.51863585 c 128,-1,111
 225.082860029 1329.13890987 225.082860029 1329.13890987 235.365671614 1323.99750408 c 0,112,113
 253.58118734 1315.42549668 253.58118734 1315.42549668 266.333468416 1303.65048281 c 128,-1,114
 279.085749492 1291.87546893 279.085749492 1291.87546893 285.645353378 1277.04506015 c 0,115,116
 298 1249.11281561 298 1249.11281561 298 1213 c 2,117,-1
 298 193 l 2,118,119
 298 153.418386151 298 153.418386151 283.750340424 127.659386148 c 0,120,121
 269.142688069 101.253245353 269.142688069 101.253245353 235.115867224 85.8862940034 c 0,122,123
 224.035146509 80.8999696818 224.035146509 80.8999696818 207.110767564 76.9297873697 c 128,-1,124
 190.186388619 72.9596050576 190.186388619 72.9596050576 166.399144217 69.5983640009 c 0,125,126
 128.745182585 64.2776955094 128.745182585 64.2776955094 105 61.8802292107 c 1,127,-1
 105 10 l 1,128,-1
 767 10 l 2,129,130
 855.607421649 10 855.607421649 10 938.76782762 33.6195235892 c 0,131,132
 1021.01563837 57.1565986835 1021.01563837 57.1565986835 1087.33993497 102.244007757 c 0,133,134
 1120.98880812 125.164254686 1120.98880812 125.164254686 1148.20141053 154.319961391 c 128,-1,135
 1175.41401294 183.475668096 1175.41401294 183.475668096 1196.38369362 219.075358551 c 0,136,137
 1238 289.726297284 1238 289.726297284 1238 386 c 0,138,139
 1238 480.218529238 1238 480.218529238 1198.43620294 545.836534124 c 0,140,141
 1178.43018252 579.017250908 1178.43018252 579.017250908 1153.48032684 605.660677085 c 128,-1,142
 1128.53047116 632.304103262 1128.53047116 632.304103262 1098.29533294 652.785971089 c 0,69,70
870.586344314 868.484827605 m 0,143,144
 832.86994929 824.482366742 832.86994929 824.482366742 771.878647536 802.588053292 c 0,145,146
 711.740499079 781 711.740499079 781 628 781 c 2,147,-1
 501 781 l 1,148,-1
 491 781 l 1,149,-1
 491 791 l 1,150,-1
 491 1336 l 1,151,-1
 491 1345.70156001 l 1,152,-1
 500.697108734 1345.99541179 l 2,153,154
 533.693024664 1346.99528743 533.693024664 1346.99528743 582.190869461 1348.49522077 c 0,155,156
 606.51406064 1349.24748442 606.51406064 1349.24748442 626.705922626 1349.62374221 c 128,-1,157
 646.897784613 1350 646.897784613 1350 663 1350 c 0,158,159
 733.607325001 1350 733.607325001 1350 786.042066907 1332.74012402 c 128,-1,160
 838.476808813 1315.48024803 838.476808813 1315.48024803 872.205206868 1280.43433443 c 0,161,162
 894.546876168 1257.21994367 894.546876168 1257.21994367 909.431019237 1228.09200162 c 128,-1,163
 924.315162306 1198.96405956 924.315162306 1198.96405956 931.657581153 1164.48406609 c 128,-1,164
 939 1130.00407261 939 1130.00407261 939 1090 c 0,165,166
 939 1054.37287904 939 1054.37287904 935.295944875 1023.4614104 c 128,-1,167
 931.59188975 992.549941765 931.59188975 992.549941765 924.118789971 966.265245989 c 0,168,169
 909.016522779 913.146926901 909.016522779 913.146926901 870.586344314 868.484827605 c 0,143,144
1011 422 m 0,170,171
 1011 249.137220714 1011 249.137220714 929.403249966 159.277508651 c 0,172,173
 847.427121421 69 847.427121421 69 694 69 c 0,174,175
 647.305799631 69 647.305799631 69 610.496973643 77.2931328049 c 128,-1,176
 573.688147655 85.5862656099 573.688147655 85.5862656099 546.685089289 102.529361055 c 0,177,178
 519.108561486 119.832280461 519.108561486 119.832280461 505.054280743 146.017245308 c 128,-1,179
 491 172.202210156 491 172.202210156 491 206 c 2,180,-1
 491 706 l 1,181,-1
 491 715.555779793 l 1,182,-1
 500.545923391 715.989685402 l 2,183,184
 522.602593326 716.992261308 522.602593326 716.992261308 566.659288837 718.49419411 c 128,-1,185
 610.829594951 720 610.829594951 720 675 720 c 0,186,187
 755.077316412 720 755.077316412 720 817.329459672 699.120790235 c 128,-1,188
 879.581602932 678.24158047 879.581602932 678.24158047 923.419981342 636.218992882 c 0,189,190
 952.550019193 608.295524646 952.550019193 608.295524646 972.041094652 575.024907905 c 128,-1,191
 991.532170111 541.754291164 991.532170111 541.754291164 1001.26608506 503.468514239 c 128,-1,192
 1011 465.182737315 1011 465.182737315 1011 422 c 0,170,171
EndSplineSet
Validated: 524289
EndChar

StartChar: C
Encoding: 67 67 38
Width: 1315
GlyphClass: 2
Flags: W
LayerCount: 2
Fore
SplineSet
723 -33 m 0,0,1
 596 -33 596 -33 479.5 17 c 128,-1,2
 363 67 363 67 273 161 c 0,3,4
 184 255 184 255 131 390.5 c 128,-1,5
 78 526 78 526 78 696 c 256,6,7
 78 866 78 866 130 1004.5 c 128,-1,8
 182 1143 182 1143 274 1243 c 0,9,10
 365 1342 365 1342 489 1396 c 128,-1,11
 613 1450 613 1450 754 1450 c 0,12,13
 859 1450 859 1450 944 1424 c 128,-1,14
 1029 1398 1029 1398 1106 1351 c 1,15,-1
 1147 1419 l 1,16,-1
 1227 1419 l 1,17,-1
 1236 913 l 1,18,-1
 1154 913 l 1,19,20
 1138 987 1138 987 1106 1073.5 c 128,-1,21
 1074 1160 1074 1160 1031 1220 c 0,22,23
 983 1288 983 1288 917 1326.5 c 128,-1,24
 851 1365 851 1365 766 1365 c 0,25,26
 669 1365 669 1365 585.5 1322 c 128,-1,27
 502 1279 502 1279 441 1195 c 0,28,29
 383 1114 383 1114 350 989 c 128,-1,30
 317 864 317 864 317 710 c 0,31,32
 317 574 317 574 351.5 460.5 c 128,-1,33
 386 347 386 347 450 261 c 0,34,35
 514 176 514 176 601.5 128 c 128,-1,36
 689 80 689 80 797 80 c 0,37,38
 878 80 878 80 946 105.5 c 128,-1,39
 1014 131 1014 131 1064 173 c 0,40,41
 1114 217 1114 217 1152 273 c 128,-1,42
 1190 329 1190 329 1214 395 c 1,43,-1
 1289 359 l 1,44,45
 1203 148 1203 148 1061 57.5 c 128,-1,46
 919 -33 919 -33 723 -33 c 0,0,1
723 -23 m 0,47,48
 916.084287005 -23 916.084287005 -23 1055.6254823 65.9329448917 c 0,49,50
 1191.73496796 152.67877906 1191.73496796 152.67877906 1276.14914775 354.076069381 c 1,51,-1
 1219.53381038 381.251431316 l 1,52,53
 1213.78836637 366.341987407 1213.78836637 366.341987407 1207.15009588 351.619658014 c 128,-1,54
 1200.5118254 336.897328621 1200.5118254 336.897328621 1193.07773946 322.567196896 c 128,-1,55
 1185.64365353 308.23706517 1185.64365353 308.23706517 1177.38319707 294.330591814 c 128,-1,56
 1169.12274061 280.424118459 1169.12274061 280.424118459 1160.27475774 267.384985817 c 0,57,58
 1121.56080976 210.332851943 1121.56080976 210.332851943 1070.51996176 165.416905705 c 0,59,60
 1019.1179731 122.239235231 1019.1179731 122.239235231 949.511234416 96.1367082243 c 128,-1,61
 879.813345818 70 879.813345818 70 797 70 c 0,62,63
 686.437280813 70 686.437280813 70 596.690431464 119.232557357 c 0,64,65
 507.304892651 168.266910077 507.304892651 168.266910077 442.011292309 254.984973032 c 0,66,67
 376.938336385 342.426757554 376.938336385 342.426757554 341.932240881 457.591738417 c 0,68,69
 307 572.513748271 307 572.513748271 307 710 c 0,70,71
 307 865.297768519 307 865.297768519 340.331261509 991.552546962 c 0,72,73
 357.03883349 1054.83880447 357.03883349 1054.83880447 380.148436187 1107.15340302 c 128,-1,74
 403.258038884 1159.46800158 403.258038884 1159.46800158 432.869453066 1200.82187311 c 0,75,76
 495.306935565 1286.80135721 495.306935565 1286.80135721 580.921709031 1330.89040223 c 0,77,78
 598.04196522 1339.70682158 598.04196522 1339.70682158 615.738515848 1346.76578758 c 128,-1,79
 633.435066477 1353.82475357 633.435066477 1353.82475357 651.677749407 1359.11668368 c 128,-1,80
 669.920432337 1364.4086138 669.920432337 1364.4086138 688.712867551 1367.93932756 c 128,-1,81
 707.505302764 1371.47004133 707.505302764 1371.47004133 726.829131801 1373.23502066 c 128,-1,82
 746.152960837 1375 746.152960837 1375 766 1375 c 0,83,84
 853.703491414 1375 853.703491414 1375 922.038710255 1335.13778901 c 0,85,86
 955.987152787 1315.33453087 955.987152787 1315.33453087 985.289438161 1287.96006628 c 128,-1,87
 1014.59172353 1260.5856017 1014.59172353 1260.5856017 1039.16967863 1225.76683198 c 0,88,89
 1047.92809748 1213.54578242 1047.92809748 1213.54578242 1056.24340038 1200.23404609 c 128,-1,90
 1064.55870327 1186.92230976 1064.55870327 1186.92230976 1072.40648579 1172.56580063 c 128,-1,91
 1080.25426831 1158.2092915 1080.25426831 1158.2092915 1087.65170227 1142.78552108 c 128,-1,92
 1095.04913623 1127.36175066 1095.04913623 1127.36175066 1101.97821616 1110.91231636 c 128,-1,93
 1108.90729608 1094.46288207 1108.90729608 1094.46288207 1115.37879485 1076.96961197 c 0,94,95
 1145.88399137 994.510252611 1145.88399137 994.510252611 1162.03193022 923 c 1,96,-1
 1225.8205527 923 l 1,97,-1
 1217.17628393 1409 l 1,98,-1
 1152.64765149 1409 l 1,99,-1
 1114.56379706 1345.83653412 l 1,100,-1
 1109.37214141 1337.22598328 l 1,101,-1
 1100.7899845 1342.46444269 l 2,102,103
 1062.81689207 1365.64282379 1062.81689207 1365.64282379 1022.89625626 1383.63175409 c 128,-1,104
 982.975620459 1401.6206844 982.975620459 1401.6206844 941.074956581 1414.43735805 c 0,105,106
 857.504780987 1440 857.504780987 1440 754 1440 c 0,107,108
 615.082948241 1440 615.082948241 1440 492.992667673 1386.83165201 c 0,109,110
 431.923248194 1360.23690482 431.923248194 1360.23690482 379.047192559 1322.60883308 c 128,-1,111
 326.171136924 1284.98076134 326.171136924 1284.98076134 281.362273758 1236.23265746 c 0,112,113
 190.677543042 1137.66229798 190.677543042 1137.66229798 139.361902106 1000.98506203 c 0,114,115
 113.698315635 932.631086521 113.698315635 932.631086521 100.849157817 856.400955408 c 128,-1,116
 88 780.170824296 88 780.170824296 88 696 c 0,117,118
 88 527.886144063 88 527.886144063 140.312934733 394.142697718 c 128,-1,119
 192.602481215 260.459045861 192.602481215 260.459045861 280.261556466 167.875303462 c 0,120,121
 368.814621225 75.3865469357 368.814621225 75.3865469357 483.4439524 26.1894090923 c 128,-1,122
 598.055275585 -23 598.055275585 -23 723 -23 c 0,47,48
EndSplineSet
Validated: 524289
EndChar

StartChar: D
Encoding: 68 68 39
Width: 1534
GlyphClass: 2
Flags: W
LayerCount: 2
Fore
SplineSet
1457 701 m 0,0,1
 1457 520 1457 520 1389 387 c 128,-1,2
 1321 254 1321 254 1212 169 c 0,3,4
 1102 84 1102 84 965 42 c 128,-1,5
 828 0 828 0 682 0 c 2,6,-1
 94 0 l 1,7,-1
 94 71 l 1,8,9
 123 71 123 71 169.5 76.5 c 128,-1,10
 216 82 216 82 231 89 c 0,11,12
 261 102 261 102 274.5 127.5 c 128,-1,13
 288 153 288 153 288 189 c 2,14,-1
 288 1213 l 2,15,16
 288 1247 288 1247 276.5 1274 c 128,-1,17
 265 1301 265 1301 231 1317 c 0,18,19
 200 1332 200 1332 164 1339 c 128,-1,20
 128 1346 128 1346 102 1348 c 1,21,-1
 102 1419 l 1,22,-1
 722 1419 l 2,23,24
 850 1419 850 1419 974 1379.5 c 128,-1,25
 1098 1340 1098 1340 1190 1273 c 0,26,27
 1315 1184 1315 1184 1386 1040 c 128,-1,28
 1457 896 1457 896 1457 701 c 0,0,1
1212 702 m 0,29,30
 1212 845 1212 845 1174 960.5 c 128,-1,31
 1136 1076 1136 1076 1063 1162 c 0,32,33
 994 1244 994 1244 893.5 1291 c 128,-1,34
 793 1338 793 1338 670 1338 c 0,35,36
 629 1338 629 1338 577.5 1336.5 c 128,-1,37
 526 1335 526 1335 501 1334 c 1,38,-1
 501 243 l 2,39,40
 501 152 501 152 554 117 c 128,-1,41
 607 82 607 82 717 82 c 0,42,43
 844 82 844 82 939 127 c 128,-1,44
 1034 172 1034 172 1093 252 c 0,45,46
 1155 336 1155 336 1183.5 446.5 c 128,-1,47
 1212 557 1212 557 1212 702 c 0,29,30
1447 701 m 0,48,49
 1447 893.66870814 1447 893.66870814 1377.03095287 1035.57776148 c 128,-1,50
 1307.14598038 1177.31629723 1307.14598038 1177.31629723 1184.15633943 1264.88492158 c 0,51,52
 1093.42196276 1330.96321764 1093.42196276 1330.96321764 970.964791934 1369.97175189 c 128,-1,53
 848.445734584 1409 848.445734584 1409 722 1409 c 2,54,-1
 112 1409 l 1,55,-1
 112 1357.13906023 l 1,56,57
 135.861286881 1354.65870578 135.861286881 1354.65870578 165.908696591 1348.8161539 c 0,58,59
 203.185112534 1341.56796191 203.185112534 1341.56796191 235.306915847 1326.02515385 c 0,60,61
 244.400482253 1321.74582849 244.400482253 1321.74582849 252.12059987 1316.62604282 c 128,-1,62
 259.840717488 1311.50625715 259.840717488 1311.50625715 266.217123121 1305.50874495 c 128,-1,63
 272.593528753 1299.51123275 272.593528753 1299.51123275 277.502442041 1292.57579107 c 128,-1,64
 282.41135533 1285.64034938 282.41135533 1285.64034938 285.70023979 1277.91862065 c 0,65,66
 291.871529692 1263.42950523 291.871529692 1263.42950523 294.935764846 1247.17582011 c 128,-1,67
 298 1230.92213499 298 1230.92213499 298 1213 c 2,68,-1
 298 189 l 2,69,70
 298 169.922951715 298 169.922951715 294.361384313 153.346655081 c 128,-1,71
 290.722768626 136.770358447 290.722768626 136.770358447 283.337879163 122.821122796 c 0,72,73
 278.306311154 113.31704989 278.306311154 113.31704989 271.102045755 105.264054281 c 128,-1,74
 263.897780355 97.2110586735 263.897780355 97.2110586735 254.882588576 90.8775377348 c 128,-1,75
 245.867396798 84.5440167961 245.867396798 84.5440167961 235.10325266 79.8795543363 c 0,76,77
 226.334356039 75.7874025801 226.334356039 75.7874025801 210.663976683 72.6165334896 c 128,-1,78
 194.993597326 69.4456643991 194.993597326 69.4456643991 170.674607822 66.5692247802 c 0,79,80
 131.167089284 61.89629248 131.167089284 61.89629248 104 61.1444988143 c 1,81,-1
 104 10 l 1,82,-1
 682 10 l 2,83,84
 826.501570169 10 826.501570169 10 962.068950946 51.5608028661 c 0,85,86
 1029.73601887 72.3054514262 1029.73601887 72.3054514262 1090.66663299 103.634134267 c 128,-1,87
 1151.59724711 134.962817107 1151.59724711 134.962817107 1205.88552499 176.912850014 c 0,88,89
 1313.10422861 260.523765683 1313.10422861 260.523765683 1380.09625613 391.552290098 c 128,-1,90
 1447 522.408142075 1447 522.408142075 1447 701 c 0,48,49
1222 702 m 0,91,92
 1222 555.731168814 1222 555.731168814 1193.18311512 444.00254497 c 0,93,94
 1164.1983736 331.623108579 1164.1983736 331.623108579 1101.0457408 246.061477032 c 0,95,96
 1040.55467198 164.039688813 1040.55467198 164.039688813 943.280863447 117.962621611 c 0,97,98
 846.248662268 72 846.248662268 72 717 72 c 0,99,100
 660.731593665 72 660.731593665 72 618.706855612 81.0187557089 c 128,-1,101
 576.682117558 90.0375114178 576.682117558 90.0375114178 548.489384653 108.655353902 c 0,102,103
 491 146.620041881 491 146.620041881 491 243 c 2,104,-1
 491 1334 l 1,105,-1
 491 1343.6079968 l 1,106,-1
 500.600319617 1343.99200959 l 2,107,108
 513.14493303 1344.49379412 513.14493303 1344.49379412 532.286559231 1345.11933083 c 128,-1,109
 551.428185432 1345.74486754 551.428185432 1345.74486754 577.20886133 1346.49576102 c 0,110,111
 587.533804678 1346.79648752 587.533804678 1346.79648752 597.437275871 1347.03707308 c 128,-1,112
 607.340747065 1347.27765863 607.340747065 1347.27765863 616.829647078 1347.45822176 c 128,-1,113
 626.31854709 1347.63878489 626.31854709 1347.63878489 635.387338257 1347.75916263 c 128,-1,114
 644.456129424 1347.87954038 644.456129424 1347.87954038 653.110334795 1347.93977019 c 128,-1,115
 661.764540166 1348 661.764540166 1348 670 1348 c 0,116,117
 795.222778606 1348 795.222778606 1348 897.736254682 1300.05837437 c 0,118,119
 914.794721955 1292.08078271 914.794721955 1292.08078271 930.976845917 1283.10282526 c 128,-1,120
 947.158969879 1274.1248678 947.158969879 1274.1248678 962.459584846 1264.14995613 c 128,-1,121
 977.760199814 1254.17504447 977.760199814 1254.17504447 992.1778706 1243.20191389 c 128,-1,122
 1006.59554139 1232.22878331 1006.59554139 1232.22878331 1020.12087425 1220.2653404 c 128,-1,123
 1033.64620711 1208.30189749 1033.64620711 1208.30189749 1046.2822768 1195.34208288 c 128,-1,124
 1058.91834648 1182.38226828 1058.91834648 1182.38226828 1070.65153118 1168.43848356 c 0,125,126
 1095.38596669 1139.29928556 1095.38596669 1139.29928556 1116.19192731 1106.78232314 c 128,-1,127
 1136.99788793 1074.26536071 1136.99788793 1074.26536071 1153.8243737 1038.47124277 c 128,-1,128
 1170.65085947 1002.67712484 1170.65085947 1002.67712484 1183.49909728 963.625244127 c 0,129,130
 1222 846.602763493 1222 846.602763493 1222 702 c 0,91,92
EndSplineSet
Validated: 524289
EndChar

StartChar: E
Encoding: 69 69 40
Width: 1338
GlyphClass: 2
Flags: W
LayerCount: 2
Fore
SplineSet
1291 418 m 1,0,-1
 1264 0 l 1,1,-1
 86 0 l 1,2,-1
 86 71 l 1,3,4
 116 73 116 73 166 79.5 c 128,-1,5
 216 86 216 86 231 93 c 0,6,7
 263 108 263 108 275.5 132 c 128,-1,8
 288 156 288 156 288 193 c 2,9,-1
 288 1213 l 2,10,11
 288 1246 288 1246 277 1271.5 c 128,-1,12
 266 1297 266 1297 231 1313 c 0,13,14
 204 1326 204 1326 158.5 1336 c 128,-1,15
 113 1346 113 1346 86 1348 c 1,16,-1
 86 1419 l 1,17,-1
 1184 1419 l 1,18,-1
 1184 1077 l 1,19,-1
 1109 1077 l 1,20,21
 1089 1153 1089 1153 1022.5 1238.5 c 128,-1,22
 956 1324 956 1324 896 1332 c 0,23,24
 865 1336 865 1336 822 1338 c 128,-1,25
 779 1340 779 1340 724 1340 c 2,26,-1
 501 1340 l 1,27,-1
 501 776 l 1,28,-1
 661 776 l 2,29,30
 738 776 738 776 773.5 790.5 c 128,-1,31
 809 805 809 805 836 839 c 0,32,33
 858 868 858 868 873.5 916.5 c 128,-1,34
 889 965 889 965 894 1008 c 1,35,-1
 969 1008 l 1,36,-1
 969 453 l 1,37,-1
 894 453 l 1,38,39
 890 501 890 501 872.5 554.5 c 128,-1,40
 855 608 855 608 836 632 c 0,41,42
 805 671 805 671 765.5 683 c 128,-1,43
 726 695 726 695 661 695 c 2,44,-1
 501 695 l 1,45,-1
 501 269 l 2,46,47
 501 205 501 205 510 168 c 128,-1,48
 519 131 519 131 545 112 c 256,49,50
 571 93 571 93 616 87.5 c 128,-1,51
 661 82 661 82 744 82 c 0,52,53
 777 82 777 82 831 82 c 128,-1,54
 885 82 885 82 922 86 c 0,55,56
 960 90 960 90 1000.5 100.5 c 128,-1,57
 1041 111 1041 111 1058 129 c 0,58,59
 1104 177 1104 177 1154.5 274.5 c 128,-1,60
 1205 372 1205 372 1219 418 c 1,61,-1
 1291 418 l 1,0,-1
1280.33322723 408 m 1,62,-1
 1226.29993484 408 l 1,63,64
 1210.37354392 360.631674961 1210.37354392 360.631674961 1163.37961202 269.900816338 c 0,65,66
 1112.21688883 171.121301268 1112.21688883 171.121301268 1065.21988205 122.080946368 c 0,67,68
 1046.2941623 102.04194898 1046.2941623 102.04194898 1003.00962159 90.8200310183 c 0,69,70
 989.283667441 87.2614503135 989.283667441 87.2614503135 975.833626638 84.4356039859 c 128,-1,71
 962.383585835 81.6097576583 962.383585835 81.6097576583 949.179577515 79.5128105829 c 128,-1,72
 935.975569194 77.4158635075 935.975569194 77.4158635075 923.046847845 76.0549454708 c 0,73,74
 885.53860224 72 885.53860224 72 831 72 c 2,75,-1
 744 72 l 2,76,77
 660.391154236 72 660.391154236 72 614.7868057 77.573864821 c 0,78,79
 591.202259612 80.456420454 591.202259612 80.456420454 572.271364744 86.9879453924 c 128,-1,80
 553.340469876 93.5194703308 553.340469876 93.5194703308 539.099834107 103.926088777 c 0,81,82
 510.147558225 125.083521152 510.147558225 125.083521152 500.283323968 165.636484209 c 0,83,84
 497.142046205 178.550626125 497.142046205 178.550626125 495.075226183 194.387935345 c 128,-1,85
 493.008406161 210.225244566 493.008406161 210.225244566 492.004203081 228.772472676 c 128,-1,86
 491 247.319700786 491 247.319700786 491 269 c 2,87,-1
 491 695 l 1,88,-1
 491 705 l 1,89,-1
 501 705 l 1,90,-1
 661 705 l 2,91,92
 694.178946754 705 694.178946754 705 720.946295817 701.927365702 c 128,-1,93
 747.713644879 698.854731405 747.713644879 698.854731405 768.406796273 692.568204399 c 0,94,95
 782.63946436 688.244355867 782.63946436 688.244355867 795.852364327 680.663277395 c 128,-1,96
 809.065264295 673.082198923 809.065264295 673.082198923 821.017612128 662.482523813 c 128,-1,97
 832.969959962 651.882848703 832.969959962 651.882848703 843.828232548 638.222441256 c 0,98,99
 850.757782329 629.469325742 850.757782329 629.469325742 857.305293584 617.50330579 c 128,-1,100
 863.852804838 605.537285838 863.852804838 605.537285838 869.930342377 590.739292369 c 128,-1,101
 876.007879916 575.9412989 876.007879916 575.9412989 882.004448598 557.608931785 c 0,102,103
 898.14529672 508.264053241 898.14529672 508.264053241 903.086943904 463 c 1,104,-1
 959 463 l 1,105,-1
 959 998 l 1,106,-1
 902.804635755 998 l 1,107,108
 900.965494603 984.895719483 900.965494603 984.895719483 898.152150533 971.061772222 c 128,-1,109
 895.338806463 957.227824962 895.338806463 957.227824962 891.523815565 942.669138663 c 128,-1,110
 887.708824667 928.110452363 887.708824667 928.110452363 883.025381006 913.45580607 c 0,111,112
 867.003346558 863.322343442 867.003346558 863.322343442 843.899979379 832.867904887 c 0,113,114
 834.359335516 820.853760764 834.359335516 820.853760764 823.821344212 811.13328394 c 128,-1,115
 813.283352907 801.412807116 813.283352907 801.412807116 801.634607405 793.922234654 c 128,-1,116
 789.985861903 786.431662192 789.985861903 786.431662192 777.281250834 781.242454854 c 0,117,118
 739.963516536 766 739.963516536 766 661 766 c 2,119,-1
 501 766 l 1,120,-1
 491 766 l 1,121,-1
 491 776 l 1,122,-1
 491 1340 l 1,123,-1
 491 1350 l 1,124,-1
 501 1350 l 1,125,-1
 724 1350 l 2,126,127
 779.2324325 1350 779.2324325 1350 822.464613994 1347.98920086 c 128,-1,128
 865.87362589 1345.97017705 865.87362589 1345.97017705 897.279713376 1341.91777867 c 0,129,130
 961.380003227 1333.37107335 961.380003227 1333.37107335 1030.39352217 1244.63940614 c 0,131,132
 1062.62570077 1203.19803366 1062.62570077 1203.19803366 1084.12973356 1163.95347829 c 128,-1,133
 1105.63376636 1124.70892293 1105.63376636 1124.70892293 1116.60717827 1087 c 1,134,-1
 1174 1087 l 1,135,-1
 1174 1409 l 1,136,-1
 96 1409 l 1,137,-1
 96 1357.11820187 l 1,138,139
 122.105765175 1354.23740152 122.105765175 1354.23740152 160.646570307 1345.7668949 c 0,140,141
 207.286533546 1335.51635353 207.286533546 1335.51635353 235.248299391 1322.05328108 c 0,142,143
 254.008569447 1313.47715763 254.008569447 1313.47715763 266.92261934 1301.82397955 c 128,-1,144
 279.836669232 1290.17080147 279.836669232 1290.17080147 286.182112129 1275.46091111 c 0,145,146
 298 1248.06489832 298 1248.06489832 298 1213 c 2,147,-1
 298 193 l 2,148,149
 298 173.454222819 298 173.454222819 294.639048405 157.050037046 c 128,-1,150
 291.278096811 140.645851273 291.278096811 140.645851273 284.369140842 127.380655812 c 0,151,152
 270.306784806 100.380932223 270.306784806 100.380932223 235.244338762 83.9454106404 c 0,153,154
 226.272708074 79.7586496523 226.272708074 79.7586496523 209.93816214 76.3814868932 c 128,-1,155
 193.603616206 73.004324134 193.603616206 73.004324134 167.289152303 69.5834438266 c 0,156,157
 124.549168214 64.027245895 124.549168214 64.027245895 96 61.7130330171 c 1,158,-1
 96 10 l 1,159,-1
 1254.62509326 10 l 1,160,-1
 1280.33322723 408 l 1,62,-1
EndSplineSet
Validated: 524289
EndChar

StartChar: F
Encoding: 70 70 41
Width: 1227
GlyphClass: 2
Flags: W
LayerCount: 2
Fore
SplineSet
1199 1064 m 1,0,-1
 1124 1064 l 1,1,2
 1103 1143 1103 1143 1036.5 1233 c 128,-1,3
 970 1323 970 1323 909 1332 c 0,4,5
 878 1336 878 1336 835.5 1338 c 128,-1,6
 793 1340 793 1340 739 1340 c 2,7,-1
 501 1340 l 1,8,-1
 501 770 l 1,9,-1
 664 770 l 2,10,11
 738 770 738 770 779 785.5 c 128,-1,12
 820 801 820 801 849 833 c 0,13,14
 869 855 869 855 885.5 901.5 c 128,-1,15
 902 948 902 948 907 1001 c 1,16,-1
 983 1001 l 1,17,-1
 983 444 l 1,18,-1
 907 444 l 1,19,20
 904 488 904 488 886.5 544 c 128,-1,21
 869 600 869 600 849 625 c 0,22,23
 819 662 819 662 773.5 675.5 c 128,-1,24
 728 689 728 689 664 689 c 2,25,-1
 501 689 l 1,26,-1
 501 200 l 2,27,28
 501 167 501 167 514 141 c 128,-1,29
 527 115 527 115 560 99 c 0,30,31
 575 92 575 92 625 82 c 128,-1,32
 675 72 675 72 701 71 c 1,33,-1
 701 0 l 1,34,-1
 86 0 l 1,35,-1
 86 71 l 1,36,37
 116 73 116 73 166 77.5 c 128,-1,38
 216 82 216 82 231 89 c 0,39,40
 261 102 261 102 274.5 127.5 c 128,-1,41
 288 153 288 153 288 189 c 2,42,-1
 288 1213 l 2,43,44
 288 1246 288 1246 277 1271.5 c 128,-1,45
 266 1297 266 1297 231 1313 c 0,46,47
 204 1326 204 1326 158.5 1336 c 128,-1,48
 113 1346 113 1346 86 1348 c 1,49,-1
 86 1419 l 1,50,-1
 1199 1419 l 1,51,-1
 1199 1064 l 1,0,-1
1189 1074 m 1,52,-1
 1189 1409 l 1,53,-1
 96 1409 l 1,54,-1
 96 1357.11820187 l 1,55,56
 122.105765175 1354.23740152 122.105765175 1354.23740152 160.646570307 1345.7668949 c 0,57,58
 207.286533546 1335.51635353 207.286533546 1335.51635353 235.248299391 1322.05328108 c 0,59,60
 254.008569447 1313.47715763 254.008569447 1313.47715763 266.92261934 1301.82397955 c 128,-1,61
 279.836669232 1290.17080147 279.836669232 1290.17080147 286.182112129 1275.46091111 c 0,62,63
 298 1248.06489832 298 1248.06489832 298 1213 c 2,64,-1
 298 189 l 2,65,66
 298 169.922951715 298 169.922951715 294.361384313 153.346655081 c 128,-1,67
 290.722768626 136.770358447 290.722768626 136.770358447 283.337879163 122.821122796 c 0,68,69
 278.306311154 113.31704989 278.306311154 113.31704989 271.102045755 105.264054281 c 128,-1,70
 263.897780355 97.2110586735 263.897780355 97.2110586735 254.882588576 90.8775377348 c 128,-1,71
 245.867396798 84.5440167961 245.867396798 84.5440167961 235.10325266 79.8795543363 c 0,72,73
 218.641270585 72.1972960346 218.641270585 72.1972960346 166.896376995 67.5402556116 c 0,74,75
 152.601354187 66.2537035589 152.601354187 66.2537035589 140.100491358 65.1841031646 c 128,-1,76
 127.599628529 64.1145027703 127.599628529 64.1145027703 116.591642884 63.2371021369 c 128,-1,77
 105.583657239 62.3597015035 105.583657239 62.3597015035 96 61.6699685962 c 1,78,-1
 96 10 l 1,79,-1
 691 10 l 1,80,-1
 691 61.6039203746 l 1,81,82
 665.042013941 63.7935581847 665.042013941 63.7935581847 623.038838649 72.1941932431 c 0,83,84
 596.882026992 77.4255555743 596.882026992 77.4255555743 580.671585887 81.6541955523 c 128,-1,85
 564.461144782 85.8828355303 564.461144782 85.8828355303 555.703969069 89.9695175295 c 0,86,87
 519.576799677 107.485720871 519.576799677 107.485720871 505.05572809 136.527864045 c 0,88,89
 503.289231064 140.060858097 503.289231064 140.060858097 501.743455441 143.715454032 c 128,-1,90
 500.197679819 147.370049967 500.197679819 147.370049967 498.879547999 151.127662514 c 128,-1,91
 497.561416179 154.885275062 497.561416179 154.885275062 496.462939464 158.755323701 c 128,-1,92
 495.364462749 162.62537234 495.364462749 162.62537234 494.490092338 166.598546286 c 128,-1,93
 493.615721927 170.571720232 493.615721927 170.571720232 492.960105069 174.64754618 c 128,-1,94
 492.304488211 178.723372128 492.304488211 178.723372128 491.869440157 182.902432075 c 128,-1,95
 491.434392104 187.081492023 491.434392104 187.081492023 491.217196052 191.353419884 c 128,-1,96
 491 195.625347745 491 195.625347745 491 200 c 2,97,-1
 491 689 l 1,98,-1
 491 699 l 1,99,-1
 501 699 l 1,100,-1
 664 699 l 2,101,102
 696.650855819 699 696.650855819 699 724.709750046 695.540971443 c 128,-1,103
 752.768644272 692.081942886 752.768644272 692.081942886 776.344470072 685.086917649 c 0,104,105
 800.482002614 677.92523217 800.482002614 677.92523217 820.670905026 664.421405073 c 128,-1,106
 840.859807439 650.917577977 840.859807439 650.917577977 856.767557487 631.298019584 c 0,107,108
 877.983919377 604.777567222 877.983919377 604.777567222 896.04479978 546.982749931 c 0,109,110
 911.960533628 496.052401619 911.960533628 496.052401619 916.19763167 454 c 1,111,-1
 973 454 l 1,112,-1
 973 991 l 1,113,-1
 916.013669309 991 l 1,114,115
 910.349168269 941.626048387 910.349168269 941.626048387 894.924277455 898.155901548 c 0,116,117
 877.751900944 849.761022291 877.751900944 849.761022291 856.399400734 826.27327206 c 0,118,119
 825.791065711 792.498557552 825.791065711 792.498557552 782.536223923 776.146117364 c 0,120,121
 771.642695009 772.027832043 771.642695009 772.027832043 758.772602764 768.976701193 c 128,-1,122
 745.902510519 765.925570342 745.902510519 765.925570342 731.06657978 763.938321112 c 128,-1,123
 716.23064904 761.951071882 716.23064904 761.951071882 699.541152126 760.975535941 c 128,-1,124
 682.851655212 760 682.851655212 760 664 760 c 2,125,-1
 501 760 l 1,126,-1
 491 760 l 1,127,-1
 491 770 l 1,128,-1
 491 1340 l 1,129,-1
 491 1350 l 1,130,-1
 501 1350 l 1,131,-1
 739 1350 l 2,132,133
 793.235163995 1350 793.235163995 1350 835.970068033 1347.98894569 c 128,-1,134
 878.876337955 1345.96982711 878.876337955 1345.96982711 910.369773996 1341.90615794 c 0,135,136
 975.57223857 1332.28612218 975.57223857 1332.28612218 1044.54268991 1238.94265421 c 0,137,138
 1076.79060499 1195.29885936 1076.79060499 1195.29885936 1098.49798562 1154.23886675 c 128,-1,139
 1120.20536624 1113.17887415 1120.20536624 1113.17887415 1131.59828465 1074 c 1,140,-1
 1189 1074 l 1,52,-1
EndSplineSet
Validated: 524289
EndChar

StartChar: G
Encoding: 71 71 42
Width: 1485
GlyphClass: 2
Flags: W
LayerCount: 2
Fore
SplineSet
1471 567 m 1,0,1
 1447 564 1447 564 1406.5 557.5 c 128,-1,2
 1366 551 1366 551 1341 539 c 0,3,4
 1311 524 1311 524 1298.5 496.5 c 128,-1,5
 1286 469 1286 469 1286 432 c 2,6,-1
 1286 322 l 2,7,8
 1286 202 1286 202 1287.5 160 c 128,-1,9
 1289 118 1289 118 1291 91 c 1,10,11
 1158 31 1158 31 1026 -1 c 128,-1,12
 894 -33 894 -33 767 -33 c 0,13,14
 631 -33 631 -33 505 18 c 128,-1,15
 379 69 379 69 285 163 c 0,16,17
 190 258 190 258 134 394 c 128,-1,18
 78 530 78 530 78 698 c 0,19,20
 78 860 78 860 131.5 998.5 c 128,-1,21
 185 1137 185 1137 283 1239 c 0,22,23
 378 1339 378 1339 509.5 1394.5 c 128,-1,24
 641 1450 641 1450 791 1450 c 0,25,26
 911 1450 911 1450 1000 1421 c 128,-1,27
 1089 1392 1089 1392 1157 1351 c 1,28,-1
 1198 1419 l 1,29,-1
 1278 1419 l 1,30,-1
 1287 923 l 1,31,-1
 1205 923 l 1,32,33
 1184 1005 1184 1005 1153 1084.5 c 128,-1,34
 1122 1164 1122 1164 1073 1227 c 256,35,36
 1024 1290 1024 1290 953.5 1327.5 c 128,-1,37
 883 1365 883 1365 785 1365 c 0,38,39
 678 1365 678 1365 594 1321.5 c 128,-1,40
 510 1278 510 1278 448 1192 c 0,41,42
 387 1109 387 1109 354 985 c 128,-1,43
 321 861 321 861 321 708 c 0,44,45
 321 573 321 573 353.5 453.5 c 128,-1,46
 386 334 386 334 448 247 c 0,47,48
 510 158 510 158 603 107 c 128,-1,49
 696 56 696 56 814 56 c 0,50,51
 902 56 902 56 974.5 83 c 128,-1,52
 1047 110 1047 110 1077 140 c 1,53,54
 1085 192 1085 192 1085.5 245 c 128,-1,55
 1086 298 1086 298 1086 335 c 2,56,-1
 1086 413 l 2,57,58
 1086 455 1086 455 1074.5 487.5 c 128,-1,59
 1063 520 1063 520 1027 535 c 0,60,61
 994 550 994 550 937.5 557.5 c 128,-1,62
 881 565 881 565 849 567 c 1,63,-1
 849 640 l 1,64,-1
 1471 640 l 1,65,-1
 1471 567 l 1,0,1
1461 575.7858157 m 1,66,-1
 1461 630 l 1,67,-1
 859 630 l 1,68,-1
 859 576.319216881 l 1,69,70
 874.414219384 575.104674725 874.414219384 575.104674725 894.467834436 572.871322031 c 128,-1,71
 914.521449488 570.637969336 914.521449488 570.637969336 938.815890731 567.413043508 c 0,72,73
 996.787017249 559.717761226 996.787017249 559.717761226 1030.99310337 544.169540264 c 0,74,75
 1070.94573053 527.522612278 1070.94573053 527.522612278 1083.92722273 490.835786504 c 0,76,77
 1089.99202385 473.696131162 1089.99202385 473.696131162 1092.99601193 454.234987474 c 128,-1,78
 1096 434.773843786 1096 434.773843786 1096 413 c 2,79,-1
 1096 335 l 2,80,81
 1095.99986947 297.938994575 1095.99986947 297.938994575 1095.49955503 244.905664575 c 0,82,83
 1094.99278831 191.188391807 1094.99278831 191.188391807 1086.88371698 138.479428157 c 2,84,-1
 1086.38592665 135.243791025 l 1,85,-1
 1084.07106781 132.928932188 l 2,86,87
 1052.53100786 101.388872239 1052.53100786 101.388872239 977.989977415 73.6287643482 c 0,88,89
 940.855353708 59.799318278 940.855353708 59.799318278 899.840783802 52.899659139 c 128,-1,90
 858.826213895 46 858.826213895 46 814 46 c 0,91,92
 693.438035847 46 693.438035847 46 598.191673888 98.2318759133 c 128,-1,93
 503.13528971 150.359570463 503.13528971 150.359570463 439.825292681 241.240050069 c 0,94,95
 376.819403593 329.651539596 376.819403593 329.651539596 343.85050077 450.875659205 c 0,96,97
 311 571.664423574 311 571.664423574 311 708 c 0,98,99
 311 862.307883681 311 862.307883681 344.336358334 987.571775605 c 0,100,101
 377.822555866 1113.39869966 377.822555866 1113.39869966 439.94212733 1197.922051 c 0,102,103
 503.284052159 1285.7834306 503.284052159 1285.7834306 589.401457523 1330.37994409 c 128,-1,104
 675.564324103 1375 675.564324103 1375 785 1375 c 0,105,106
 835.086160026 1375 835.086160026 1375 878.421480531 1365.35567277 c 128,-1,107
 921.756801036 1355.71134554 921.756801036 1355.71134554 958.19612973 1336.32872389 c 0,108,109
 1030.58206304 1297.82556787 1030.58206304 1297.82556787 1080.89352217 1233.13940614 c 0,110,111
 1130.7876506 1168.98981245 1130.7876506 1168.98981245 1162.31674389 1088.13294416 c 0,112,113
 1192.05901105 1011.85842033 1192.05901105 1011.85842033 1212.73954345 933 c 1,114,-1
 1276.81690229 933 l 1,115,-1
 1268.17980551 1409 l 1,116,-1
 1203.64765149 1409 l 1,117,-1
 1165.56379706 1345.83653412 l 1,118,-1
 1165.09439107 1345.05800712 l 1,119,-1
 1160.40033119 1337.27273706 l 1,120,-1
 1151.83653412 1342.43620294 l 2,121,122
 1084.8152599 1382.84608886 1084.8152599 1382.84608886 996.901893282 1411.49201731 c 0,123,124
 967.829951529 1420.96489721 967.829951529 1420.96489721 935.314474922 1427.29475125 c 128,-1,125
 902.798998314 1433.62460529 902.798998314 1433.62460529 866.67379007 1436.81230265 c 128,-1,126
 830.548581826 1440 830.548581826 1440 791 1440 c 0,127,128
 643.023831865 1440 643.023831865 1440 513.388398974 1385.28694657 c 128,-1,129
 383.811970618 1330.5987962 383.811970618 1330.5987962 290.249994336 1232.11250538 c 0,130,131
 193.604000984 1131.52177761 193.604000984 1131.52177761 140.82823862 994.896673169 c 128,-1,132
 88 858.135718985 88 858.135718985 88 698 c 0,133,134
 88 531.978251873 88 531.978251873 143.246780985 397.807498053 c 128,-1,135
 198.485281374 263.656854249 198.485281374 263.656854249 292.071067812 170.071067812 c 0,136,137
 384.634770633 77.5073649906 384.634770633 77.5073649906 508.751927577 27.2694681322 c 128,-1,138
 632.947084139 -23 632.947084139 -23 767 -23 c 0,139,140
 892.805182884 -23 892.805182884 -23 1023.64399974 8.71850105689 c 0,141,142
 1087.70301988 24.2479604848 1087.70301988 24.2479604848 1151.72262618 46.3088770937 c 128,-1,143
 1215.74223248 68.3697937025 1215.74223248 68.3697937025 1280.53356465 97.2645846681 c 1,144,145
 1279.99497107 105.325333603 1279.99497107 105.325333603 1279.47005668 115.052082539 c 128,-1,146
 1278.94514229 124.778831475 1278.94514229 124.778831475 1278.44150514 136.170006442 c 128,-1,147
 1277.937868 147.56118141 1277.937868 147.56118141 1277.50637146 159.643084695 c 0,148,149
 1276 201.821485478 1276 201.821485478 1276 322 c 2,150,-1
 1276 432 l 2,151,152
 1276 471.166091947 1276 471.166091947 1289.39633523 500.638029443 c 0,153,154
 1303.36132232 531.361001046 1303.36132232 531.361001046 1336.59999058 547.980335177 c 0,155,156
 1350.02484545 554.424265515 1350.02484545 554.424265515 1366.9979817 559.218245753 c 128,-1,157
 1383.97111794 564.012225992 1383.97111794 564.012225992 1404.915341 567.373644508 c 0,158,159
 1422.13277699 570.136936703 1422.13277699 570.136936703 1435.43058994 572.134195167 c 128,-1,160
 1448.72840289 574.131453632 1448.72840289 574.131453632 1461 575.7858157 c 1,66,-1
EndSplineSet
Validated: 524289
EndChar

StartChar: H
Encoding: 72 72 43
Width: 1669
GlyphClass: 2
Flags: W
LayerCount: 2
Fore
SplineSet
1567 0 m 1,0,-1
 978 0 l 1,1,-1
 978 71 l 1,2,3
 1002 73 1002 73 1047.5 77 c 128,-1,4
 1093 81 1093 81 1110 89 c 0,5,6
 1140 101 1140 101 1154 125.5 c 128,-1,7
 1168 150 1168 150 1168 189 c 2,8,-1
 1168 694 l 1,9,-1
 501 694 l 1,10,-1
 501 200 l 2,11,12
 501 165 501 165 512.5 141 c 128,-1,13
 524 117 524 117 558 99 c 0,14,15
 575 90 575 90 618.5 81 c 128,-1,16
 662 72 662 72 687 71 c 1,17,-1
 687 0 l 1,18,-1
 98 0 l 1,19,-1
 98 71 l 1,20,21
 122 73 122 73 167.5 77 c 128,-1,22
 213 81 213 81 230 89 c 0,23,24
 260 101 260 101 274 125.5 c 128,-1,25
 288 150 288 150 288 189 c 2,26,-1
 288 1213 l 2,27,28
 288 1245 288 1245 275 1271.5 c 128,-1,29
 262 1298 262 1298 230 1313 c 0,30,31
 203 1326 203 1326 164.5 1336 c 128,-1,32
 126 1346 126 1346 98 1348 c 1,33,-1
 98 1419 l 1,34,-1
 687 1419 l 1,35,-1
 687 1348 l 1,36,37
 659 1347 659 1347 618.5 1339 c 128,-1,38
 578 1331 578 1331 558 1324 c 0,39,40
 524 1312 524 1312 512.5 1284 c 128,-1,41
 501 1256 501 1256 501 1223 c 2,42,-1
 501 783 l 1,43,-1
 1168 783 l 1,44,-1
 1168 1213 l 2,45,46
 1168 1245 1168 1245 1155 1271.5 c 128,-1,47
 1142 1298 1142 1298 1110 1313 c 0,48,49
 1083 1326 1083 1326 1044.5 1336 c 128,-1,50
 1006 1346 1006 1346 978 1348 c 1,51,-1
 978 1419 l 1,52,-1
 1567 1419 l 1,53,-1
 1567 1348 l 1,54,55
 1539 1347 1539 1347 1498.5 1339 c 128,-1,56
 1458 1331 1458 1331 1438 1324 c 0,57,58
 1404 1312 1404 1312 1392.5 1284 c 128,-1,59
 1381 1256 1381 1256 1381 1223 c 2,60,-1
 1381 200 l 2,61,62
 1381 165 1381 165 1392.5 141 c 128,-1,63
 1404 117 1404 117 1438 99 c 0,64,65
 1455 90 1455 90 1498.5 81 c 128,-1,66
 1542 72 1542 72 1567 71 c 1,67,-1
 1567 0 l 1,0,-1
1557 10 m 1,68,-1
 1557 61.6170658544 l 1,69,70
 1545.75359038 62.5701514151 1545.75359038 62.5701514151 1530.03441332 65.0431226831 c 128,-1,71
 1514.31523625 67.5160939512 1514.31523625 67.5160939512 1496.47394396 71.2073958049 c 0,72,73
 1473.87663722 75.8827006479 1473.87663722 75.8827006479 1458.39953068 80.4808897976 c 128,-1,74
 1442.92242414 85.0790789473 1442.92242414 85.0790789473 1433.3211228 90.1621208365 c 0,75,76
 1421.2717877 96.5411805911 1421.2717877 96.5411805911 1411.78978595 103.675609661 c 128,-1,77
 1402.3077842 110.810038731 1402.3077842 110.810038731 1395.10454622 119.13279912 c 128,-1,78
 1387.90130825 127.455559509 1387.90130825 127.455559509 1383.48183971 136.678798196 c 0,79,80
 1371 162.727854988 1371 162.727854988 1371 200 c 2,81,-1
 1371 1223 l 2,82,83
 1371 1257.97358412 1371 1257.97358412 1383.24980182 1287.79918854 c 0,84,85
 1396.45050685 1319.94003558 1396.45050685 1319.94003558 1434.67179882 1333.42990334 c 0,86,87
 1445.23818231 1337.12813756 1445.23818231 1337.12813756 1460.57565043 1340.92987838 c 128,-1,88
 1475.91311855 1344.7316192 1475.91311855 1344.7316192 1496.56213582 1348.81043742 c 0,89,90
 1508.35886197 1351.14065493 1508.35886197 1351.14065493 1518.33757059 1352.78985459 c 128,-1,91
 1528.3162792 1354.43905424 1528.3162792 1354.43905424 1537.89471959 1355.60749347 c 128,-1,92
 1547.47315997 1356.7759327 1547.47315997 1356.7759327 1557 1357.4760319 c 1,93,-1
 1557 1409 l 1,94,-1
 988 1409 l 1,95,-1
 988 1357.13129088 l 1,96,97
 1014.14112889 1354.21724086 1014.14112889 1354.21724086 1047.01398364 1345.67883703 c 0,98,99
 1066.654443 1340.57741902 1066.654443 1340.57741902 1083.49829673 1334.66312664 c 128,-1,100
 1100.34215046 1328.74883427 1100.34215046 1328.74883427 1114.29136322 1322.03254665 c 0,101,102
 1149.42889271 1305.5618297 1149.42889271 1305.5618297 1163.9778941 1275.90424994 c 0,103,104
 1170.99016398 1261.61000748 1170.99016398 1261.61000748 1174.49508199 1245.83814045 c 128,-1,105
 1178 1230.06627342 1178 1230.06627342 1178 1213 c 2,106,-1
 1178 783 l 1,107,-1
 1178 773 l 1,108,-1
 1168 773 l 1,109,-1
 501 773 l 1,110,-1
 491 773 l 1,111,-1
 491 783 l 1,112,-1
 491 1223 l 2,113,114
 491 1257.97358412 491 1257.97358412 503.249801816 1287.79918854 c 0,115,116
 516.450506851 1319.94003558 516.450506851 1319.94003558 554.671798823 1333.42990334 c 0,117,118
 561.746519988 1335.90605574 561.746519988 1335.90605574 570.997847598 1338.43588228 c 128,-1,119
 580.249175209 1340.96570881 580.249175209 1340.96570881 591.534746338 1343.53085649 c 128,-1,120
 602.820317467 1346.09600417 602.820317467 1346.09600417 616.562135818 1348.81043742 c 0,121,122
 628.358861974 1351.14065493 628.358861974 1351.14065493 638.337570587 1352.78985459 c 128,-1,123
 648.316279201 1354.43905424 648.316279201 1354.43905424 657.894719585 1355.60749347 c 128,-1,124
 667.47315997 1356.7759327 667.47315997 1356.7759327 677 1357.4760319 c 1,125,-1
 677 1409 l 1,126,-1
 108 1409 l 1,127,-1
 108 1357.13129088 l 1,128,129
 134.141128887 1354.21724086 134.141128887 1354.21724086 167.013983644 1345.67883703 c 0,130,131
 206.458710861 1335.43345334 206.458710861 1335.43345334 234.291363218 1322.03254665 c 0,132,133
 241.155040558 1318.81519789 241.155040558 1318.81519789 247.27731162 1315.05048525 c 128,-1,134
 253.399582682 1311.28577261 253.399582682 1311.28577261 258.811330209 1306.93134888 c 128,-1,135
 264.223077735 1302.57692516 264.223077735 1302.57692516 268.82148016 1297.70061847 c 128,-1,136
 273.419882585 1292.82431177 273.419882585 1292.82431177 277.234314399 1287.34975851 c 128,-1,137
 281.048746213 1281.87520525 281.048746213 1281.87520525 283.977894101 1275.90424994 c 0,138,139
 288.655775066 1266.36856951 288.655775066 1266.36856951 291.778220114 1256.14600612 c 128,-1,140
 294.900665163 1245.92344274 294.900665163 1245.92344274 296.450332581 1235.14338852 c 128,-1,141
 298 1224.36333429 298 1224.36333429 298 1213 c 2,142,-1
 298 189 l 2,143,144
 298 147.344355629 298 147.344355629 282.682431421 120.538610616 c 0,145,146
 267.215081768 93.4707487237 267.215081768 93.4707487237 233.941689042 79.8028584961 c 0,147,148
 227.433724527 76.8417783586 227.433724527 76.8417783586 217.936492335 74.447928847 c 128,-1,149
 208.439260143 72.0540793353 208.439260143 72.0540793353 196.149274959 70.226845178 c 128,-1,150
 183.859289775 68.3996110206 183.859289775 68.3996110206 168.375743286 67.0384201204 c 0,151,152
 131.43248796 63.7906614104 131.43248796 63.7906614104 108 61.8051651431 c 1,153,-1
 108 10 l 1,154,-1
 677 10 l 1,155,-1
 677 61.6170658544 l 1,156,157
 669.59293887 62.2447828992 669.59293887 62.2447828992 660.224555496 63.5307823113 c 128,-1,158
 650.856172121 64.8167817234 650.856172121 64.8167817234 639.626448699 66.7786975934 c 128,-1,159
 628.396725277 68.7406134634 628.396725277 68.7406134634 616.47394396 71.2073958049 c 0,160,161
 593.876637219 75.8827006479 593.876637219 75.8827006479 578.39953068 80.4808897976 c 128,-1,162
 562.922424142 85.0790789473 562.922424142 85.0790789473 553.321122796 90.1621208365 c 0,163,164
 546.126376815 93.9711040027 546.126376815 93.9711040027 539.853019746 98.0472917274 c 128,-1,165
 533.579662676 102.123479452 533.579662676 102.123479452 528.074229205 106.608664937 c 128,-1,166
 522.568795734 111.093850421 522.568795734 111.093850421 518.027412543 115.877143024 c 128,-1,167
 513.486029352 120.660435627 513.486029352 120.660435627 509.815728922 125.890219924 c 128,-1,168
 506.145428492 131.120004221 506.145428492 131.120004221 503.481839713 136.678798196 c 0,169,170
 499.261491731 145.48648094 499.261491731 145.48648094 496.475597276 155.554834848 c 128,-1,171
 493.68970282 165.623188757 493.68970282 165.623188757 492.34485141 176.669125516 c 128,-1,172
 491 187.715062275 491 187.715062275 491 200 c 2,173,-1
 491 694 l 1,174,-1
 491 704 l 1,175,-1
 501 704 l 1,176,-1
 1168 704 l 1,177,-1
 1178 704 l 1,178,-1
 1178 694 l 1,179,-1
 1178 189 l 2,180,181
 1178 147.344355629 1178 147.344355629 1162.68243142 120.538610616 c 0,182,183
 1147.21508177 93.4707487237 1147.21508177 93.4707487237 1113.94168904 79.8028584961 c 0,184,185
 1094.87125098 71.1259372799 1094.87125098 71.1259372799 1048.37574329 67.0384201204 c 0,186,187
 1011.43248796 63.7906614104 1011.43248796 63.7906614104 988 61.8051651431 c 1,188,-1
 988 10 l 1,189,-1
 1557 10 l 1,68,-1
EndSplineSet
Validated: 524289
EndChar

StartChar: I
Encoding: 73 73 44
Width: 798
GlyphClass: 2
Flags: W
LayerCount: 2
Fore
SplineSet
718 0 m 1,0,-1
 79 0 l 1,1,-1
 79 71 l 1,2,3
 106 73 106 73 157 77 c 128,-1,4
 208 81 208 81 229 89 c 0,5,6
 262 102 262 102 277 124.5 c 128,-1,7
 292 147 292 147 292 187 c 2,8,-1
 292 1215 l 2,9,10
 292 1250 292 1250 281 1273.5 c 128,-1,11
 270 1297 270 1297 229 1313 c 0,12,13
 199 1325 199 1325 153.5 1335.5 c 128,-1,14
 108 1346 108 1346 79 1348 c 1,15,-1
 79 1419 l 1,16,-1
 718 1419 l 1,17,-1
 718 1348 l 1,18,19
 687 1347 687 1347 644 1340.5 c 128,-1,20
 601 1334 601 1334 569 1324 c 0,21,22
 531 1312 531 1312 518 1285 c 128,-1,23
 505 1258 505 1258 505 1225 c 2,24,-1
 505 198 l 2,25,26
 505 165 505 165 519.5 139.5 c 128,-1,27
 534 114 534 114 569 99 c 0,28,29
 590 91 590 91 637.5 81.5 c 128,-1,30
 685 72 685 72 718 71 c 1,31,-1
 718 0 l 1,0,-1
708 10 m 1,32,-1
 708 61.4560439744 l 1,33,34
 692.537267411 62.4499604 692.537267411 62.4499604 674.32858948 65.0139695315 c 128,-1,35
 656.119911549 67.5779786629 656.119911549 67.5779786629 635.538838649 71.6941932431 c 0,36,37
 587.220202376 81.3579204976 587.220202376 81.3579204976 565.248857367 89.7279566917 c 0,38,39
 552.61544815 95.1422749271 552.61544815 95.1422749271 542.428116461 101.813499156 c 128,-1,40
 532.240784772 108.484723386 532.240784772 108.484723386 524.265052383 116.700276771 c 128,-1,41
 516.289319994 124.915830157 516.289319994 124.915830157 510.807098811 134.556977755 c 0,42,43
 495 162.355668767 495 162.355668767 495 198 c 2,44,-1
 495 1225 l 2,45,46
 495 1260.28203702 495 1260.28203702 508.989983302 1289.33815619 c 0,47,48
 523.865674726 1320.23382299 523.865674726 1320.23382299 565.988686321 1333.53582665 c 0,49,50
 582.449719926 1338.67989965 582.449719926 1338.67989965 601.547401531 1342.88155544 c 128,-1,51
 620.645083135 1347.08321122 620.645083135 1347.08321122 642.505352135 1350.38767049 c 0,52,53
 679.581707234 1355.9922358 679.581707234 1355.9922358 708 1357.56777594 c 1,54,-1
 708 1409 l 1,55,-1
 89 1409 l 1,56,-1
 89 1357.16702494 l 1,57,58
 116.93836479 1354.20011894 116.93836479 1354.20011894 155.748595067 1345.24391196 c 0,59,60
 178.844870459 1339.91400225 178.844870459 1339.91400225 198.053149802 1334.1898801 c 128,-1,61
 217.261429145 1328.46575796 217.261429145 1328.46575796 232.713906764 1322.28476691 c 0,62,63
 247.134990079 1316.65702708 247.134990079 1316.65702708 258.159477327 1310.12659725 c 128,-1,64
 269.183964575 1303.59616742 269.183964575 1303.59616742 277.405111906 1295.40051657 c 128,-1,65
 285.626259236 1287.20486571 285.626259236 1287.20486571 290.056902266 1277.73940106 c 0,66,67
 293.097294823 1271.24401696 293.097294823 1271.24401696 295.357391352 1264.03297386 c 128,-1,68
 297.617487881 1256.82193075 297.617487881 1256.82193075 299.085812224 1248.96264792 c 128,-1,69
 300.554136567 1241.10336508 300.554136567 1241.10336508 301.277068283 1232.64444407 c 128,-1,70
 302 1224.18552306 302 1224.18552306 302 1215 c 2,71,-1
 302 187 l 2,72,73
 302 143.972243623 302 143.972243623 285.320502943 118.952998038 c 128,-1,74
 268.581726121 93.8448328048 268.581726121 93.8448328048 232.61271439 79.6752221226 c 0,75,76
 210.215845386 71.14308155 210.215845386 71.14308155 157.781912453 67.0306162219 c 0,77,78
 143.351709701 65.8988356138 143.351709701 65.8988356138 131.237495385 64.9574484665 c 128,-1,79
 119.123281069 64.0160613191 119.123281069 64.0160613191 108.606602953 63.2096370358 c 128,-1,80
 98.089924838 62.4032127524 98.089924838 62.4032127524 89 61.7190248614 c 1,81,-1
 89 10 l 1,82,-1
 708 10 l 1,32,-1
EndSplineSet
Validated: 524289
EndChar

StartChar: J
Encoding: 74 74 45
Width: 1060
GlyphClass: 2
Flags: W
LayerCount: 2
Fore
SplineSet
1006 1348 m 1,0,1
 978 1347 978 1347 936.5 1340.5 c 128,-1,2
 895 1334 895 1334 866 1324 c 0,3,4
 832 1312 832 1312 820 1284 c 128,-1,5
 808 1256 808 1256 808 1223 c 2,6,-1
 808 382 l 2,7,8
 808 316 808 316 781.5 242 c 128,-1,9
 755 168 755 168 704 110 c 0,10,11
 645 42 645 42 563.5 4 c 128,-1,12
 482 -34 482 -34 377 -34 c 0,13,14
 214 -34 214 -34 112.5 57.5 c 128,-1,15
 11 149 11 149 11 304 c 0,16,17
 11 372 11 372 46 424.5 c 128,-1,18
 81 477 81 477 148 477 c 0,19,20
 208 477 208 477 244.5 443.5 c 128,-1,21
 281 410 281 410 281 355 c 0,22,23
 281 323 281 323 268 291 c 128,-1,24
 255 259 255 259 239 234 c 0,25,26
 224 211 224 211 205 180 c 128,-1,27
 186 149 186 149 178 124 c 1,28,29
 199 91 199 91 243.5 66 c 128,-1,30
 288 41 288 41 363 41 c 0,31,32
 436 41 436 41 482.5 74.5 c 128,-1,33
 529 108 529 108 552 164 c 0,34,35
 574 216 574 216 583.5 292 c 128,-1,36
 593 368 593 368 593 462 c 2,37,-1
 593 1213 l 2,38,39
 593 1248 593 1248 581.5 1271.5 c 128,-1,40
 570 1295 570 1295 534 1313 c 0,41,42
 503 1329 503 1329 456.5 1337.5 c 128,-1,43
 410 1346 410 1346 380 1348 c 1,44,-1
 380 1419 l 1,45,-1
 1006 1419 l 1,46,-1
 1006 1348 l 1,0,1
996 1357.51581783 m 1,47,-1
 996 1409 l 1,48,-1
 390 1409 l 1,49,-1
 390 1357.23845179 l 1,50,51
 404.022047341 1355.9413565 404.022047341 1355.9413565 421.24578143 1353.45147503 c 128,-1,52
 438.469515518 1350.96159355 438.469515518 1350.96159355 458.298161713 1347.33700231 c 0,53,54
 482.158242208 1342.97548222 482.158242208 1342.97548222 502.242155352 1336.62706651 c 128,-1,55
 522.326068496 1330.2786508 522.326068496 1330.2786508 538.529468676 1321.91560555 c 0,56,57
 557.666758993 1312.34696039 557.666758993 1312.34696039 570.747801683 1300.91920482 c 128,-1,58
 583.828844373 1289.49144924 583.828844373 1289.49144924 590.48216722 1275.89552864 c 0,59,60
 603 1250.31560948 603 1250.31560948 603 1213 c 2,61,-1
 603 462 l 2,62,63
 603 367.377422517 603 367.377422517 593.422778767 290.759652654 c 0,64,65
 583.750588194 213.382128071 583.750588194 213.382128071 561.230191309 160.15209907 c 0,66,67
 537.164341418 101.556986293 537.164341418 101.556986293 488.345345337 66.3863116963 c 0,68,69
 439.227032087 31 439.227032087 31 363 31 c 0,70,71
 285.383340136 31 285.383340136 31 238.602039184 57.2816297481 c 128,-1,72
 191.912004247 83.5119864547 191.912004247 83.5119864547 169.563385123 118.631245078 c 2,73,-1
 167.047570154 122.584668601 l 1,74,-1
 168.475758528 127.047757271 l 2,75,76
 170.172152485 132.348988386 170.172152485 132.348988386 172.319886603 137.868508982 c 128,-1,77
 174.467620722 143.388029577 174.467620722 143.388029577 177.044404543 149.083204285 c 128,-1,78
 179.621188364 154.778378992 179.621188364 154.778378992 182.65095631 160.710189232 c 128,-1,79
 185.680724255 166.641999472 185.680724255 166.641999472 189.126935966 172.75154598 c 128,-1,80
 192.573147678 178.861092488 192.573147678 178.861092488 196.473987476 185.225620579 c 0,81,82
 215.547278355 216.345200434 215.547278355 216.345200434 230.623894032 239.462677805 c 0,83,84
 234.446838778 245.436028972 234.446838778 245.436028972 238.125704033 251.89439938 c 128,-1,85
 241.804569287 258.352769788 241.804569287 258.352769788 245.326855045 265.273865793 c 128,-1,86
 248.849140803 272.194961798 248.849140803 272.194961798 252.211068003 279.587256563 c 128,-1,87
 255.572995202 286.979551328 255.572995202 286.979551328 258.735334229 294.76377047 c 0,88,89
 271 324.953716983 271 324.953716983 271 355 c 0,90,91
 271 405.604682002 271 405.604682002 237.738184933 436.132649255 c 0,92,93
 204.106593823 467 204.106593823 467 148 467 c 0,94,95
 86.3518375849 467 86.3518375849 467 54.3205029434 418.952998038 c 0,96,97
 21 368.972243623 21 368.972243623 21 304 c 0,98,99
 21 153.448736381 21 153.448736381 119.195709495 64.9274810241 c 0,100,101
 217.842040904 -24 217.842040904 -24 377 -24 c 0,102,103
 479.783268772 -24 479.783268772 -24 559.274189532 13.0632513974 c 0,104,105
 585.8234704 25.4420572005 585.8234704 25.4420572005 609.894656149 41.0530901068 c 128,-1,106
 633.965841898 56.6641230132 633.965841898 56.6641230132 655.595818307 75.532330792 c 128,-1,107
 677.225794717 94.4005385709 677.225794717 94.4005385709 696.446775327 116.553533172 c 0,108,109
 746.229086087 173.168710115 746.229086087 173.168710115 772.085462692 245.371422144 c 128,-1,110
 798 317.736545193 798 317.736545193 798 382 c 2,111,-1
 798 1223 l 2,112,113
 798 1258.05257702 798 1258.05257702 810.8085497 1287.93919299 c 0,114,115
 817.667381106 1303.94313293 817.667381106 1303.94313293 830.832292034 1315.39100122 c 128,-1,116
 843.997202961 1326.8388695 843.997202961 1326.8388695 862.671798823 1333.42990334 c 0,117,118
 892.578957682 1343.74271674 892.578957682 1343.74271674 934.95260024 1350.37955232 c 0,119,120
 946.906274992 1352.25181463 946.906274992 1352.25181463 957.164717574 1353.61267931 c 128,-1,121
 967.423160157 1354.97354399 967.423160157 1354.97354399 977.066050397 1355.94694668 c 128,-1,122
 986.708940638 1356.92034937 986.708940638 1356.92034937 996 1357.51581783 c 1,47,-1
EndSplineSet
Validated: 524289
EndChar

StartChar: K
Encoding: 75 75 46
Width: 1422
GlyphClass: 2
Flags: W
LayerCount: 2
Fore
SplineSet
1475 0 m 1,0,-1
 1077 0 l 1,1,2
 962 178 962 178 821.5 353.5 c 128,-1,3
 681 529 681 529 527 694 c 1,4,-1
 501 694 l 1,5,-1
 501 200 l 2,6,7
 501 167 501 167 513.5 141 c 128,-1,8
 526 115 526 115 559 99 c 0,9,10
 575 92 575 92 618.5 82 c 128,-1,11
 662 72 662 72 691 71 c 1,12,-1
 691 0 l 1,13,-1
 102 0 l 1,14,-1
 102 71 l 1,15,16
 125 73 125 73 169 77 c 128,-1,17
 213 81 213 81 231 89 c 0,18,19
 261 102 261 102 274.5 127.5 c 128,-1,20
 288 153 288 153 288 189 c 2,21,-1
 288 1213 l 2,22,23
 288 1247 288 1247 276.5 1272 c 128,-1,24
 265 1297 265 1297 231 1313 c 0,25,26
 204 1326 204 1326 167 1336 c 128,-1,27
 130 1346 130 1346 102 1348 c 1,28,-1
 102 1419 l 1,29,-1
 691 1419 l 1,30,-1
 691 1348 l 1,31,32
 663 1347 663 1347 621 1339 c 128,-1,33
 579 1331 579 1331 559 1324 c 0,34,35
 525 1312 525 1312 513 1284 c 128,-1,36
 501 1256 501 1256 501 1223 c 2,37,-1
 501 733 l 1,38,-1
 521 733 l 1,39,40
 611 809 611 809 698 891.5 c 128,-1,41
 785 974 785 974 856 1056 c 0,42,43
 935 1147 935 1147 971.5 1201.5 c 128,-1,44
 1008 1256 1008 1256 1008 1298 c 0,45,46
 1008 1313 1008 1313 989.5 1322.5 c 128,-1,47
 971 1332 971 1332 947 1338 c 0,48,49
 919 1344 919 1344 897 1345.5 c 128,-1,50
 875 1347 875 1347 861 1348 c 1,51,-1
 861 1419 l 1,52,-1
 1393 1419 l 1,53,-1
 1393 1348 l 2,54,55
 1390 1348 1390 1348 1380 1347 c 128,-1,56
 1370 1346 1370 1346 1357 1345 c 0,57,58
 1343 1344 1343 1344 1329 1341 c 128,-1,59
 1315 1338 1315 1338 1293 1334 c 0,60,61
 1258 1326 1258 1326 1220.5 1308.5 c 128,-1,62
 1183 1291 1183 1291 1159 1265 c 0,63,64
 1056 1148 1056 1148 944 1023 c 128,-1,65
 832 898 832 898 722 795 c 1,66,67
 874 623 874 623 973.5 499 c 128,-1,68
 1073 375 1073 375 1185 234 c 0,69,70
 1228 180 1228 180 1271 147.5 c 128,-1,71
 1314 115 1314 115 1345 99 c 0,72,73
 1371 86 1371 86 1410 79 c 128,-1,74
 1449 72 1449 72 1475 71 c 1,75,-1
 1475 0 l 1,0,-1
1465 10 m 1,76,-1
 1465 61.5430297199 l 1,77,78
 1440.54326104 63.358074811 1440.54326104 63.358074811 1408.23335937 69.1572879301 c 0,79,80
 1398.17097513 70.963356897 1398.17097513 70.963356897 1388.982348 73.1444386876 c 128,-1,81
 1379.79372086 75.3255204782 1379.79372086 75.3255204782 1371.32396268 77.9267761807 c 128,-1,82
 1362.8542045 80.5280318831 1362.8542045 80.5280318831 1355.14133862 83.5667278095 c 128,-1,83
 1347.42847275 86.6054237359 1347.42847275 86.6054237359 1340.47053132 90.0843944503 c 0,84,85
 1308.65308801 106.506300677 1308.65308801 106.506300677 1264.97035691 139.52231837 c 0,86,87
 1220.96343797 172.783361754 1220.96343797 172.783361754 1177.17719855 227.770732182 c 0,88,89
 1065.18598031 368.759676574 1065.18598031 368.759676574 965.700525113 492.741550393 c 128,-1,90
 866.349296365 616.556147023 866.349296365 616.556147023 714.506709145 788.378022035 c 2,91,-1
 708.072737733 795.658568634 l 1,92,-1
 715.165004711 802.299509532 l 2,93,94
 824.844900818 904.999775886 824.844900818 904.999775886 936.552263583 1029.67317183 c 0,95,96
 1048.52305738 1154.64057562 1048.52305738 1154.64057562 1151.57201981 1271.69619314 c 0,97,98
 1164.37308315 1285.56401176 1164.37308315 1285.56401176 1180.52428227 1296.99059999 c 128,-1,99
 1196.67548139 1308.41718822 1196.67548139 1308.41718822 1216.27114535 1317.5618314 c 0,100,101
 1254.73492837 1335.51159681 1254.73492837 1335.51159681 1290.77175198 1343.74858507 c 2,102,-1
 1291.21114562 1343.8386991 l 0,103,104
 1296.67907956 1344.83286891 1296.67907956 1344.83286891 1301.65533862 1345.76597752 c 128,-1,105
 1306.63159768 1346.69908613 1306.63159768 1346.69908613 1311.09312436 1347.56668457 c 128,-1,106
 1315.55465104 1348.43428302 1315.55465104 1348.43428302 1319.50763293 1349.23714348 c 128,-1,107
 1323.46061482 1350.04000394 1323.46061482 1350.04000394 1326.90470911 1350.77802414 c 0,108,109
 1341.58923892 1353.9247091 1341.58923892 1353.9247091 1356.2875295 1354.974587 c 0,110,111
 1369.11239468 1355.96111509 1369.11239468 1355.96111509 1379.00496281 1356.9503719 c 0,112,113
 1380.56891617 1357.10676724 1380.56891617 1357.10676724 1383 1357.33730105 c 2,114,-1
 1383 1409 l 1,115,-1
 871 1409 l 1,116,-1
 871 1357.31784982 l 1,117,118
 882.411990982 1356.51785383 882.411990982 1356.51785383 897.680238881 1355.47683693 c 0,119,120
 920.394885421 1353.92811103 920.394885421 1353.92811103 949.260972528 1347.74252093 c 0,121,122
 974.54311964 1341.42198415 974.54311964 1341.42198415 994.06804685 1331.39567018 c 0,123,124
 1018 1319.10628883 1018 1319.10628883 1018 1298 c 0,125,126
 1018 1252.96070006 1018 1252.96070006 979.808757098 1195.93541956 c 0,127,128
 967.453059559 1177.48650132 967.453059559 1177.48650132 950.400137163 1155.04742065 c 128,-1,129
 933.347214768 1132.60833999 933.347214768 1132.60833999 911.679731542 1106.26646104 c 128,-1,130
 890.012248316 1079.92458209 890.012248316 1079.92458209 863.55141218 1049.44437844 c 0,131,132
 792.237837156 967.082221367 792.237837156 967.082221367 704.88091583 884.243761488 c 128,-1,133
 617.675636391 801.548711332 617.675636391 801.548711332 527.451808178 725.359700842 c 2,134,-1
 524.657425603 723 l 1,135,-1
 521 723 l 1,136,-1
 501 723 l 1,137,-1
 491 723 l 1,138,-1
 491 733 l 1,139,-1
 491 1223 l 2,140,141
 491 1258.05257702 491 1258.05257702 503.8085497 1287.93919299 c 0,142,143
 510.667381106 1303.94313293 510.667381106 1303.94313293 523.832292034 1315.39100122 c 128,-1,144
 536.997202961 1326.8388695 536.997202961 1326.8388695 555.671798823 1333.42990334 c 0,145,146
 566.277065024 1337.14174651 566.277065024 1337.14174651 581.988462445 1340.94170713 c 128,-1,147
 597.699859866 1344.74166775 597.699859866 1344.74166775 619.128878921 1348.82338566 c 0,148,149
 654.499171664 1355.56058428 654.499171664 1355.56058428 681 1357.47840739 c 1,150,-1
 681 1409 l 1,151,-1
 112 1409 l 1,152,-1
 112 1357.12766627 l 1,153,154
 124.719104382 1355.69047933 124.719104382 1355.69047933 139.293607007 1352.79921618 c 128,-1,155
 153.868109632 1349.90795302 153.868109632 1349.90795302 169.609090251 1345.65363393 c 0,156,157
 207.503436696 1335.41191867 207.503436696 1335.41191867 235.338156188 1322.0100167 c 0,158,159
 253.551748594 1313.43891439 253.551748594 1313.43891439 266.27212263 1301.97464595 c 128,-1,160
 278.992496666 1290.51037752 278.992496666 1290.51037752 285.584904527 1276.17905608 c 0,161,162
 298 1249.1897181 298 1249.1897181 298 1213 c 2,163,-1
 298 189 l 2,164,165
 298 169.922951715 298 169.922951715 294.361384313 153.346655081 c 128,-1,166
 290.722768626 136.770358447 290.722768626 136.770358447 283.337879163 122.821122796 c 0,167,168
 268.195965212 94.2197297755 268.195965212 94.2197297755 234.976074376 79.8244437469 c 0,169,170
 224.810476113 75.3064000744 224.810476113 75.3064000744 208.788883827 72.2129128266 c 128,-1,171
 192.76729154 69.1194255789 192.76729154 69.1194255789 169.90535746 67.0410679353 c 0,172,173
 134.429302559 63.8159720352 134.429302559 63.8159720352 112 61.8376432538 c 1,174,-1
 112 10 l 1,175,-1
 681 10 l 1,176,-1
 681 61.5466457019 l 1,177,178
 667.411632848 62.62019195 667.411632848 62.62019195 651.090160798 65.3097147611 c 128,-1,179
 634.768688748 67.9992375721 634.768688748 67.9992375721 616.259587009 72.2542034892 c 0,180,181
 571.848387886 82.4636745519 571.848387886 82.4636745519 554.812942887 89.9166817389 c 0,182,183
 518.498776381 107.523550348 518.498776381 107.523550348 504.487475755 136.667055651 c 0,184,185
 497.725048339 150.732904677 497.725048339 150.732904677 494.362524169 166.603782692 c 128,-1,186
 491 182.474660708 491 182.474660708 491 200 c 2,187,-1
 491 694 l 1,188,-1
 491 704 l 1,189,-1
 501 704 l 1,190,-1
 527 704 l 1,191,-1
 531.345523019 704 l 1,192,-1
 534.310552682 700.823182504 l 2,193,194
 688.568815393 535.546578908 688.568815393 535.546578908 829.30651779 359.74966239 c 0,195,196
 968.185790169 186.274129989 968.185790169 186.274129989 1082.44035978 10 c 1,197,-1
 1465 10 l 1,76,-1
EndSplineSet
Validated: 524289
EndChar

StartChar: L
Encoding: 76 76 47
Width: 1236
GlyphClass: 2
Flags: W
LayerCount: 2
Fore
SplineSet
1237 422 m 1,0,-1
 1207 0 l 1,1,-1
 98 0 l 1,2,-1
 98 71 l 1,3,4
 122 73 122 73 167.5 78 c 128,-1,5
 213 83 213 83 231 91 c 0,6,7
 261 104 261 104 274.5 129 c 128,-1,8
 288 154 288 154 288 193 c 2,9,-1
 288 1209 l 2,10,11
 288 1243 288 1243 276.5 1269 c 128,-1,12
 265 1295 265 1295 231 1311 c 0,13,14
 208 1323 208 1323 166.5 1334.5 c 128,-1,15
 125 1346 125 1346 98 1348 c 1,16,-1
 98 1419 l 1,17,-1
 697 1419 l 1,18,-1
 697 1348 l 1,19,20
 669 1347 669 1347 624.5 1338 c 128,-1,21
 580 1329 580 1329 560 1322 c 0,22,23
 526 1310 526 1310 513.5 1281 c 128,-1,24
 501 1252 501 1252 501 1219 c 2,25,-1
 501 266 l 2,26,27
 501 200 501 200 507.5 163.5 c 128,-1,28
 514 127 514 127 538 107 c 0,29,30
 561 89 561 89 606.5 83.5 c 128,-1,31
 652 78 652 78 734 78 c 0,32,33
 771 78 771 78 811 80 c 128,-1,34
 851 82 851 82 887 88 c 0,35,36
 922 94 922 94 951.5 104.5 c 128,-1,37
 981 115 981 115 995 131 c 0,38,39
 1036 177 1036 177 1090.5 270.5 c 128,-1,40
 1145 364 1145 364 1166 422 c 1,41,-1
 1237 422 l 1,0,-1
1226.2638624 412 m 1,42,-1
 1172.95199803 412 l 1,43,44
 1167.45560403 397.626448539 1167.45560403 397.626448539 1160.09340859 381.272227973 c 128,-1,45
 1152.73121316 364.918007407 1152.73121316 364.918007407 1143.50919869 346.597563346 c 128,-1,46
 1134.28718422 328.277119285 1134.28718422 328.277119285 1123.17909923 307.96330084 c 128,-1,47
 1112.07101424 287.649482395 1112.07101424 287.649482395 1099.13946419 265.464162584 c 0,48,49
 1044.13356396 171.096241997 1044.13356396 171.096241997 1002.46513272 124.346294752 c 0,50,51
 997.124339377 118.242530936 997.124339377 118.242530936 989.894186252 112.909812651 c 128,-1,52
 982.664033128 107.577094366 982.664033128 107.577094366 973.973905386 103.184314963 c 128,-1,53
 965.283777644 98.7915355603 965.283777644 98.7915355603 954.853246655 95.0789736828 c 0,54,55
 924.540220917 84.2895916402 924.540220917 84.2895916402 888.689638151 78.1437774519 c 0,56,57
 876.447840631 76.1034778651 876.447840631 76.1034778651 863.793960654 74.5213172346 c 128,-1,58
 851.140080678 72.9391566041 851.140080678 72.9391566041 838.083030757 71.8139817243 c 128,-1,59
 825.025980837 70.6888068446 825.025980837 70.6888068446 811.499376169 70.0124766112 c 0,60,61
 771.270256581 68 771.270256581 68 734 68 c 0,62,63
 692.694721833 68 692.694721833 68 660.594863231 69.3842346574 c 128,-1,64
 628.495004629 70.7684693147 628.495004629 70.7684693147 605.299944459 73.5722677968 c 0,65,66
 599.374405948 74.2885416827 599.374405948 74.2885416827 593.845473999 75.1962924887 c 128,-1,67
 588.31654205 76.1040432946 588.31654205 76.1040432946 583.049716595 77.2300452111 c 128,-1,68
 577.78289114 78.3560471275 577.78289114 78.3560471275 572.886203764 79.6998648886 c 128,-1,69
 567.989516389 81.0436826497 567.989516389 81.0436826497 563.380214442 82.6182157528 c 128,-1,70
 558.770912496 84.1927488559 558.770912496 84.1927488559 554.501830319 86.0123617078 c 128,-1,71
 550.232748142 87.8319745597 550.232748142 87.8319745597 546.27633033 89.8947669851 c 128,-1,72
 542.319912518 91.9575594106 542.319912518 91.9575594106 538.673796165 94.2926954889 c 128,-1,73
 535.027679812 96.6278315673 535.027679812 96.6278315673 531.716056932 99.2195364303 c 0,74,75
 504.794698335 121.654001928 504.794698335 121.654001928 497.654891826 161.746761558 c 0,76,77
 491 199.116538733 491 199.116538733 491 266 c 2,78,-1
 491 1219 l 2,79,80
 491 1254.06341228 491 1254.06341228 504.316759136 1284.95829348 c 0,81,82
 518.547833583 1317.97438619 518.547833583 1317.97438619 556.671798823 1331.42990334 c 0,83,84
 577.344863879 1338.66547611 577.344863879 1338.66547611 622.517664424 1347.80154813 c 0,85,86
 641.719854812 1351.68513719 641.719854812 1351.68513719 657.439340533 1354.04947356 c 128,-1,87
 673.158826253 1356.41380992 673.158826253 1356.41380992 687 1357.4571455 c 1,88,-1
 687 1409 l 1,89,-1
 108 1409 l 1,90,-1
 108 1357.06981011 l 1,91,92
 133.46005639 1354.03249184 133.46005639 1354.03249184 169.170449819 1344.13684065 c 0,93,94
 211.688790963 1332.35464973 211.688790963 1332.35464973 235.443686486 1319.9607912 c 0,95,96
 272.635433187 1302.45879275 272.635433187 1302.45879275 285.645353378 1273.04506015 c 0,97,98
 298 1245.11281561 298 1245.11281561 298 1209 c 2,99,-1
 298 193 l 2,100,101
 298 151.47248497 298 151.47248497 283.299053977 124.248510853 c 0,102,103
 268.153598349 96.2013708018 268.153598349 96.2013708018 234.976074376 81.8244437469 c 0,104,105
 224.849435337 77.3237152851 224.849435337 77.3237152851 208.519852702 73.9883668923 c 128,-1,106
 192.190270067 70.6530184995 192.190270067 70.6530184995 168.592325519 68.0598377799 c 0,107,108
 131.574056105 63.9918960861 131.574056105 63.9918960861 108 61.8360666206 c 1,109,-1
 108 10 l 1,110,-1
 1197.68566335 10 l 1,111,-1
 1226.2638624 412 l 1,42,-1
EndSplineSet
Validated: 524289
EndChar

StartChar: M
Encoding: 77 77 48
Width: 1899
GlyphClass: 2
Flags: W
LayerCount: 2
Fore
SplineSet
1806 0 m 1,0,-1
 1179 0 l 1,1,-1
 1179 71 l 1,2,3
 1213 72 1213 72 1266.5 78 c 128,-1,4
 1320 84 1320 84 1340 95 c 0,5,6
 1371 114 1371 114 1385.5 138.5 c 128,-1,7
 1400 163 1400 163 1400 200 c 2,8,-1
 1400 1232 l 1,9,-1
 1385 1232 l 1,10,-1
 901 23 l 1,11,-1
 851 23 l 1,12,-1
 390 1257 l 1,13,-1
 377 1257 l 1,14,-1
 377 410 l 2,15,16
 377 287 377 287 392.5 223 c 128,-1,17
 408 159 408 159 440 131 c 0,18,19
 462 110 462 110 531 91 c 128,-1,20
 600 72 600 72 621 71 c 1,21,-1
 621 0 l 1,22,-1
 48 0 l 1,23,-1
 48 71 l 1,24,25
 93 75 93 75 142.5 86 c 128,-1,26
 192 97 192 97 219 119 c 0,27,28
 254 147 254 147 267 205 c 128,-1,29
 280 263 280 263 280 399 c 2,30,-1
 280 1125 l 2,31,32
 280 1188 280 1188 265 1228 c 128,-1,33
 250 1268 250 1268 222 1293 c 0,34,35
 191 1320 191 1320 146 1333 c 128,-1,36
 101 1346 101 1346 57 1348 c 1,37,-1
 57 1419 l 1,38,-1
 541 1419 l 1,39,-1
 947 355 l 1,40,-1
 1294 1245 l 2,41,42
 1313 1294 1313 1294 1326.5 1347.5 c 128,-1,43
 1340 1401 1340 1401 1341 1419 c 1,44,-1
 1804 1419 l 1,45,-1
 1804 1348 l 1,46,47
 1776 1347 1776 1347 1732.5 1339 c 128,-1,48
 1689 1331 1689 1331 1669 1324 c 0,49,50
 1635 1312 1635 1312 1623 1284 c 128,-1,51
 1611 1256 1611 1256 1611 1223 c 2,52,-1
 1611 200 l 2,53,54
 1611 165 1611 165 1623 141 c 128,-1,55
 1635 117 1635 117 1669 99 c 0,56,57
 1687 89 1687 89 1733 80.5 c 128,-1,58
 1779 72 1779 72 1806 71 c 1,59,-1
 1806 0 l 1,0,-1
1796 10 m 1,60,-1
 1796 61.5492035478 l 1,61,62
 1770.15642945 63.4648479317 1770.15642945 63.4648479317 1731.18293503 70.6664719008 c 0,63,64
 1707.34179098 75.071900691 1707.34179098 75.071900691 1690.83700664 79.8349829635 c 128,-1,65
 1674.33222229 84.598065236 1674.33222229 84.598065236 1664.2318604 90.2093774013 c 0,66,67
 1627.48889138 109.66153747 1627.48889138 109.66153747 1614.05572809 136.527864045 c 0,68,69
 1611.84274376 140.953832706 1611.84274376 140.953832706 1610.00648011 145.693703212 c 128,-1,70
 1608.17021647 150.433573717 1608.17021647 150.433573717 1606.72423314 155.445366811 c 128,-1,71
 1605.27824981 160.457159905 1605.27824981 160.457159905 1604.1990813 165.750074177 c 128,-1,72
 1603.11991279 171.04298845 1603.11991279 171.04298845 1602.41114775 176.626333919 c 128,-1,73
 1601.70238271 182.209679388 1601.70238271 182.209679388 1601.35119135 188.037946086 c 128,-1,74
 1601 193.866212783 1601 193.866212783 1601 200 c 2,75,-1
 1601 1223 l 2,76,77
 1601 1234.62290975 1601 1234.62290975 1602.41584689 1245.71008927 c 128,-1,78
 1603.83169379 1256.79726878 1603.83169379 1256.79726878 1606.68274678 1267.38102263 c 128,-1,79
 1609.53379977 1277.96477648 1609.53379977 1277.96477648 1613.8085497 1287.93919299 c 0,80,81
 1627.53615112 1319.97026297 1627.53615112 1319.97026297 1665.67179882 1333.42990334 c 0,82,83
 1686.42871866 1340.69482528 1686.42871866 1340.69482528 1730.69125306 1348.83506149 c 0,84,85
 1749.46406562 1352.28753276 1749.46406562 1352.28753276 1764.82201819 1354.39450778 c 128,-1,86
 1780.17997076 1356.5014828 1780.17997076 1356.5014828 1794 1357.48055844 c 1,87,-1
 1794 1409 l 1,88,-1
 1350.00456201 1409 l 1,89,90
 1347.05314957 1388.07952758 1347.05314957 1388.07952758 1336.19607113 1345.05332785 c 0,91,92
 1331.64770663 1327.02832779 1331.64770663 1327.02832779 1326.48063374 1309.50499755 c 128,-1,93
 1321.31356085 1291.98166732 1321.31356085 1291.98166732 1315.52339301 1274.94822049 c 128,-1,94
 1309.73322517 1257.91477366 1309.73322517 1257.91477366 1303.32361309 1241.38472146 c 2,95,-1
 956.316899876 351.367455891 l 1,96,-1
 946.899515535 327.213357726 l 1,97,-1
 937.657071507 351.43493518 l 1,98,-1
 534.112507299 1409 l 1,99,-1
 67 1409 l 1,100,-1
 67 1357.43106651 l 1,101,102
 107.771111802 1354.45282408 107.771111802 1354.45282408 148.775396528 1342.60714183 c 0,103,104
 195.900094409 1328.99334022 195.900094409 1328.99334022 228.614233265 1300.50038057 c 0,105,106
 258.498131449 1273.81832862 258.498131449 1273.81832862 274.363291776 1231.51123442 c 0,107,108
 282.26235445 1210.44706728 282.26235445 1210.44706728 286.131177225 1183.87485546 c 128,-1,109
 290 1157.30264364 290 1157.30264364 290 1125 c 2,110,-1
 290 399 l 2,111,112
 290 261.893042764 290 261.893042764 276.75789577 202.812885431 c 0,113,114
 262.989689368 141.385503019 262.989689368 141.385503019 225.246950476 111.191311906 c 0,115,116
 196.480072206 87.7516333154 196.480072206 87.7516333154 144.669304578 76.2381293982 c 0,117,118
 99.818508182 66.2712857546 99.818508182 66.2712857546 58 61.9151911523 c 1,119,-1
 58 10 l 1,120,-1
 611 10 l 1,121,-1
 611 61.9687566544 l 1,122,123
 598.791923621 63.686930367 598.791923621 63.686930367 577.8966541 68.5774666299 c 128,-1,124
 557.001384579 73.4680028928 557.001384579 73.4680028928 528.345187744 81.3588397023 c 0,125,126
 456.917034069 101.027461729 456.917034069 101.027461729 433.251933334 123.616876066 c 0,127,128
 399.027647822 153.563125889 399.027647822 153.563125889 382.780972352 220.646172992 c 0,129,130
 367 285.806316898 367 285.806316898 367 410 c 2,131,-1
 367 1257 l 1,132,-1
 367 1267 l 1,133,-1
 377 1267 l 1,134,-1
 390 1267 l 1,135,-1
 396.939214998 1267 l 1,136,-1
 399.367652124 1260.49958479 l 1,137,-1
 857.939214998 33 l 1,138,-1
 894.231749714 33 l 1,139,-1
 1375.71629262 1235.71655449 l 1,140,-1
 1378.23174971 1242 l 1,141,-1
 1385 1242 l 1,142,-1
 1400 1242 l 1,143,-1
 1410 1242 l 1,144,-1
 1410 1232 l 1,145,-1
 1410 200 l 2,146,147
 1410 180.339047436 1410 180.339047436 1406.06649342 163.654536147 c 128,-1,148
 1402.13298683 146.970024858 1402.13298683 146.970024858 1394.10576683 133.406791061 c 128,-1,149
 1386.15390268 119.970882677 1386.15390268 119.970882677 1373.89611024 108.25213261 c 128,-1,150
 1361.63831779 96.5333825429 1361.63831779 96.5333825429 1345.22562058 86.4739874759 c 2,151,-1
 1344.8191875 86.2378409132 l 0,152,153
 1333.34363596 79.9262875655 1333.34363596 79.9262875655 1314.41072616 75.556722525 c 128,-1,154
 1295.47781637 71.1871574846 1295.47781637 71.1871574846 1267.61450835 68.0623005112 c 0,155,156
 1221.1674331 62.8532827261 1221.1674331 62.8532827261 1189 61.3718877805 c 1,157,-1
 1189 10 l 1,158,-1
 1796 10 l 1,60,-1
EndSplineSet
Validated: 524289
EndChar

StartChar: N
Encoding: 78 78 49
Width: 1571
GlyphClass: 2
Flags: W
LayerCount: 2
Fore
SplineSet
1554 1348 m 1,0,1
 1526 1347 1526 1347 1468 1332 c 128,-1,2
 1410 1317 1410 1317 1385 1301 c 0,3,4
 1349 1276 1349 1276 1336.5 1205 c 128,-1,5
 1324 1134 1324 1134 1324 1025 c 2,6,-1
 1324 -14 l 1,7,-1
 1237 -14 l 1,8,-1
 377 1147 l 1,9,-1
 377 415 l 2,10,11
 377 292 377 292 392.5 226 c 128,-1,12
 408 160 408 160 440 132 c 0,13,14
 463 110 463 110 535 91 c 128,-1,15
 607 72 607 72 630 71 c 1,16,-1
 630 0 l 1,17,-1
 48 0 l 1,18,-1
 48 71 l 1,19,20
 75 73 75 73 139 90.5 c 128,-1,21
 203 108 203 108 219 122 c 0,22,23
 254 150 254 150 267 207.5 c 128,-1,24
 280 265 280 265 280 404 c 2,25,-1
 280 1103 l 2,26,27
 280 1149 280 1149 264 1195 c 128,-1,28
 248 1241 248 1241 221 1266 c 0,29,30
 185 1299 185 1299 123.5 1322.5 c 128,-1,31
 62 1346 62 1346 24 1348 c 1,32,-1
 24 1419 l 1,33,-1
 429 1419 l 1,34,-1
 1227 337 l 1,35,-1
 1227 1012 l 2,36,37
 1227 1136 1227 1136 1211 1202.5 c 128,-1,38
 1195 1269 1195 1269 1165 1291 c 0,39,40
 1137 1310 1137 1310 1073.5 1328 c 128,-1,41
 1010 1346 1010 1346 977 1348 c 1,42,-1
 977 1419 l 1,43,-1
 1554 1419 l 1,44,-1
 1554 1348 l 1,0,1
1544 1357.3436308 m 1,45,-1
 1544 1409 l 1,46,-1
 987 1409 l 1,47,-1
 987 1357.17075598 l 1,48,49
 997.819804836 1355.96673418 997.819804836 1355.96673418 1011.4113567 1353.39027202 c 128,-1,50
 1025.00290857 1350.81380986 1025.00290857 1350.81380986 1041.36462656 1346.83954065 c 128,-1,51
 1057.72634455 1342.86527145 1057.72634455 1342.86527145 1076.22719447 1337.62093604 c 0,52,53
 1141.27972041 1319.18084995 1141.27972041 1319.18084995 1170.76625095 1299.17213279 c 0,54,55
 1203.86608405 1274.89892186 1203.86608405 1274.89892186 1220.72254433 1204.83925879 c 0,56,57
 1237 1137.18608368 1237 1137.18608368 1237 1012 c 2,58,-1
 1237 337 l 1,59,-1
 1237 306.593441363 l 1,60,-1
 1218.95205974 331.064458107 l 1,61,-1
 423.949691504 1409 l 1,62,-1
 34 1409 l 1,63,-1
 34 1357.21169552 l 1,64,65
 71.5376377223 1353.06072701 71.5376377223 1353.06072701 127.069425802 1331.84126327 c 0,66,67
 190.351189603 1307.66042669 190.351189603 1307.66042669 227.757246285 1273.3715414 c 0,68,69
 256.625243367 1246.64191447 256.625243367 1246.64191447 273.444967967 1198.28520625 c 0,70,71
 281.708028467 1174.52890731 281.708028467 1174.52890731 285.854014234 1150.68940045 c 128,-1,72
 290 1126.84989358 290 1126.84989358 290 1103 c 2,73,-1
 290 404 l 2,74,75
 290 263.883653041 290 263.883653041 276.753821841 205.294788106 c 0,76,77
 262.981555845 144.378996201 262.981555845 144.378996201 225.419117214 114.329045296 c 0,78,79
 207.85499035 98.9604342907 207.85499035 98.9604342907 141.637549978 80.8541029388 c 0,80,81
 86.6216014893 65.810679524 86.6216014893 65.810679524 58 62.0026552915 c 1,82,-1
 58 10 l 1,83,-1
 620 10 l 1,84,-1
 620 61.8762462333 l 1,85,86
 607.037284486 63.5315183636 607.037284486 63.5315183636 584.771341343 68.4654110329 c 128,-1,87
 562.5053982 73.3993037021 562.5053982 73.3993037021 532.448457388 81.3309964165 c 0,88,89
 458.693595715 100.794084913 458.693595715 100.794084913 433.25726082 124.609679314 c 0,90,91
 398.845962825 155.239352598 398.845962825 155.239352598 382.764861958 223.713717581 c 0,92,93
 374.818056185 257.55172926 374.818056185 257.55172926 370.909028092 305.237088328 c 128,-1,94
 367 352.922447397 367 352.922447397 367 415 c 2,95,-1
 367 1147 l 1,96,-1
 367 1177.30029762 l 1,97,-1
 385.035571933 1152.95227551 l 1,98,-1
 1242.03725749 -4 l 1,99,-1
 1314 -4 l 1,100,-1
 1314 1025 l 2,101,102
 1314 1079.90550908 1314 1079.90550908 1317.15127255 1125.28876471 c 128,-1,103
 1320.3025451 1170.67202033 1320.3025451 1170.67202033 1326.65146699 1206.73389666 c 0,104,105
 1329.2398237 1221.43576273 1329.2398237 1221.43576273 1332.77110478 1234.215905 c 128,-1,106
 1336.30238586 1246.99604727 1336.30238586 1246.99604727 1340.97660651 1258.28190422 c 128,-1,107
 1345.65082715 1269.56776116 1345.65082715 1269.56776116 1351.39287163 1278.91789741 c 128,-1,108
 1357.13491611 1288.26803365 1357.13491611 1288.26803365 1364.17596418 1295.93564802 c 128,-1,109
 1371.21701226 1303.6032624 1371.21701226 1303.6032624 1379.45078361 1309.32115917 c 0,110,111
 1393.2416809 1318.14733344 1393.2416809 1318.14733344 1414.38118991 1326.03826255 c 128,-1,112
 1435.52069891 1333.92919165 1435.52069891 1333.92919165 1465.49617178 1341.68146912 c 0,113,114
 1514.91129031 1354.46124115 1514.91129031 1354.46124115 1544 1357.3436308 c 1,45,-1
EndSplineSet
Validated: 524289
EndChar

StartChar: O
Encoding: 79 79 50
Width: 1524
GlyphClass: 2
Flags: W
LayerCount: 2
Fore
SplineSet
1244 1251 m 0,0,1
 1338 1153 1338 1153 1391 1014.5 c 128,-1,2
 1444 876 1444 876 1444 708 c 0,3,4
 1444 539 1444 539 1390 401 c 128,-1,5
 1336 263 1336 263 1240 166 c 0,6,7
 1147 70 1147 70 1024 18 c 128,-1,8
 901 -34 901 -34 762 -34 c 0,9,10
 614 -34 614 -34 488.5 21.5 c 128,-1,11
 363 77 363 77 273 176 c 0,12,13
 183 273 183 273 131.5 411.5 c 128,-1,14
 80 550 80 550 80 708 c 0,15,16
 80 881 80 881 134 1016.5 c 128,-1,17
 188 1152 188 1152 283 1251 c 0,18,19
 377 1349 377 1349 501.5 1401 c 128,-1,20
 626 1453 626 1453 762 1453 c 0,21,22
 903 1453 903 1453 1028 1400 c 128,-1,23
 1153 1347 1153 1347 1244 1251 c 0,0,1
1095 245 m 0,24,25
 1151 336 1151 336 1176.5 451 c 128,-1,26
 1202 566 1202 566 1202 708 c 0,27,28
 1202 854 1202 854 1173.5 976 c 128,-1,29
 1145 1098 1145 1098 1090 1184 c 0,30,31
 1035 1269 1035 1269 952 1316.5 c 128,-1,32
 869 1364 869 1364 762 1364 c 0,33,34
 642 1364 642 1364 558 1309 c 128,-1,35
 474 1254 474 1254 421 1162 c 0,36,37
 371 1074 371 1074 346.5 956 c 128,-1,38
 322 838 322 838 322 708 c 0,39,40
 322 564 322 564 348 448 c 128,-1,41
 374 332 374 332 430 242 c 0,42,43
 484 154 484 154 566 104.5 c 128,-1,44
 648 55 648 55 762 55 c 0,45,46
 869 55 869 55 955 105 c 128,-1,47
 1041 155 1041 155 1095 245 c 0,24,25
1236.76275913 1244.09904245 m 0,48,49
 1191.9576564 1291.365964 1191.9576564 1291.365964 1138.8198446 1328.02351635 c 128,-1,50
 1085.6820328 1364.68106869 1085.6820328 1364.68106869 1024.09639309 1390.79337993 c 0,51,52
 900.967572173 1443 900.967572173 1443 762 1443 c 0,53,54
 628.004447358 1443 628.004447358 1443 505.354046481 1391.77252333 c 0,55,56
 474.692280805 1378.96600272 474.692280805 1378.96600272 445.9304687 1363.34184933 c 128,-1,57
 417.168656596 1347.71769594 417.168656596 1347.71769594 390.281895444 1329.26016898 c 128,-1,58
 363.395134292 1310.80264201 363.395134292 1310.80264201 338.383996843 1289.51089869 c 128,-1,59
 313.372859394 1268.21915537 313.372859394 1268.21915537 290.216815745 1244.07774816 c 0,60,61
 243.391325088 1195.2806579 243.391325088 1195.2806579 206.671067947 1137.4893734 c 128,-1,62
 169.950810805 1079.6980889 169.950810805 1079.6980889 143.289487461 1012.79791644 c 0,63,64
 90 879.080776604 90 879.080776604 90 708 c 0,65,66
 90 551.799032264 90 551.799032264 140.872989873 414.985263382 c 128,-1,67
 191.681023078 278.346183792 191.681023078 278.346183792 280.365203713 182.764344663 c 0,68,69
 368.977576473 85.2907346265 368.977576473 85.2907346265 492.544474087 30.6456125745 c 128,-1,70
 616.112480899 -24 616.112480899 -24 762 -24 c 0,71,72
 898.973027673 -24 898.973027673 -24 1020.10604311 27.2107057145 c 128,-1,73
 1141.2327335 78.4187374211 1141.2327335 78.4187374211 1232.85478971 172.996343836 c 0,74,75
 1327.43996907 268.566785482 1327.43996907 268.566785482 1380.6875722 404.643993486 c 128,-1,76
 1434 540.886864523 1434 540.886864523 1434 708 c 0,77,78
 1434 874.151986686 1434 874.151986686 1381.66047443 1010.92602993 c 128,-1,79
 1329.38325844 1147.53724529 1329.38325844 1147.53724529 1236.76275913 1244.09904245 c 0,48,49
1103.54602591 239.806870206 m 0,80,81
 1048.25092644 147.648371076 1048.25092644 147.648371076 960.026204574 96.3549281332 c 0,82,83
 915.877142653 70.6868688767 915.877142653 70.6868688767 866.301823462 57.8434344384 c 128,-1,84
 816.726504271 45 816.726504271 45 762 45 c 0,85,86
 703.790717961 45 703.790717961 45 653.436534111 57.7170768875 c 128,-1,87
 603.082350261 70.434153775 603.082350261 70.434153775 560.832030836 95.938919769 c 0,88,89
 476.749213851 146.696230022 476.749213851 146.696230022 421.476772714 236.769837801 c 0,90,91
 364.613026534 328.158001304 364.613026534 328.158001304 338.24210423 445.812885431 c 0,92,93
 325.107823672 504.411983304 325.107823672 504.411983304 318.553911836 569.951529516 c 128,-1,94
 312 635.491075728 312 635.491075728 312 708 c 0,95,96
 312 839.027182191 312 839.027182191 336.708817411 958.032915029 c 0,97,98
 361.528525758 1077.57273482 361.528525758 1077.57273482 412.305434426 1166.94009408 c 0,99,100
 466.526348536 1261.05941668 466.526348536 1261.05941668 552.522140586 1317.36618529 c 0,101,102
 595.826664695 1345.72033798 595.826664695 1345.72033798 648.272214449 1359.86016899 c 128,-1,103
 700.717764202 1374 700.717764202 1374 762 1374 c 0,104,105
 816.689773208 1374 816.689773208 1374 865.494647978 1361.79867876 c 128,-1,106
 914.299522749 1349.59735752 914.299522749 1349.59735752 956.967018969 1325.17921209 c 0,107,108
 1042.07578057 1276.4723907 1042.07578057 1276.4723907 1098.39570157 1189.43251278 c 0,109,110
 1109.62906467 1171.86761775 1109.62906467 1171.86761775 1119.7621282 1152.86908523 c 128,-1,111
 1129.89519173 1133.87055272 1129.89519173 1133.87055272 1138.91307834 1113.48151287 c 128,-1,112
 1147.93096495 1093.09247303 1147.93096495 1093.09247303 1155.86475789 1071.25402851 c 128,-1,113
 1163.79855082 1049.415584 1163.79855082 1049.415584 1170.63427081 1026.19038639 c 128,-1,114
 1177.46999081 1002.96518878 1177.46999081 1002.96518878 1183.23782302 978.274819311 c 0,115,116
 1212 855.152517838 1212 855.152517838 1212 708 c 0,117,118
 1212 636.495693495 1212 636.495693495 1205.57199685 571.711116629 c 128,-1,119
 1199.14399369 506.926539763 1199.14399369 506.926539763 1186.26286833 448.835190067 c 0,120,121
 1160.39856248 332.192242123 1160.39856248 332.192242123 1103.54602591 239.806870206 c 0,80,81
EndSplineSet
Validated: 524289
EndChar

StartChar: P
Encoding: 80 80 51
Width: 1249
GlyphClass: 2
Flags: W
LayerCount: 2
Fore
SplineSet
1184 1069 m 0,0,1
 1184 958 1184 958 1140.5 872.5 c 128,-1,2
 1097 787 1097 787 1020 731 c 0,3,4
 944 675 944 675 853 649 c 128,-1,5
 762 623 762 623 660 623 c 2,6,-1
 501 623 l 1,7,-1
 501 193 l 2,8,9
 501 158 501 158 512.5 131.5 c 128,-1,10
 524 105 524 105 560 91 c 0,11,12
 578 84 578 84 623.5 78 c 128,-1,13
 669 72 669 72 707 71 c 1,14,-1
 707 0 l 1,15,-1
 98 0 l 1,16,-1
 98 71 l 1,17,18
 122 73 122 73 167.5 78 c 128,-1,19
 213 83 213 83 231 91 c 0,20,21
 261 104 261 104 274.5 129 c 128,-1,22
 288 154 288 154 288 193 c 2,23,-1
 288 1217 l 2,24,25
 288 1252 288 1252 278 1280 c 128,-1,26
 268 1308 268 1308 231 1322 c 0,27,28
 193 1335 193 1335 155.5 1340.5 c 128,-1,29
 118 1346 118 1346 91 1348 c 1,30,-1
 91 1419 l 1,31,-1
 739 1419 l 2,32,33
 937 1419 937 1419 1060.5 1323.5 c 128,-1,34
 1184 1228 1184 1228 1184 1069 c 0,0,1
880 827 m 0,35,36
 914 875 914 875 925 926.5 c 128,-1,37
 936 978 936 978 936 1019 c 0,38,39
 936 1076 936 1076 922.5 1135 c 128,-1,40
 909 1194 909 1194 876 1238 c 0,41,42
 841 1285 841 1285 784 1311 c 128,-1,43
 727 1337 727 1337 642 1337 c 2,44,-1
 501 1337 l 1,45,-1
 501 710 l 1,46,-1
 603 710 l 2,47,48
 711 710 711 710 778.5 743.5 c 128,-1,49
 846 777 846 777 880 827 c 0,35,36
1174 1069 m 0,50,51
 1174 1223.09174548 1174 1223.09174548 1054.38279081 1315.58926351 c 0,52,53
 933.584613262 1409 933.584613262 1409 739 1409 c 2,54,-1
 101 1409 l 1,55,-1
 101 1357.21290882 l 1,56,57
 125.62154679 1354.98915642 125.62154679 1354.98915642 156.951141874 1350.39414914 c 0,58,59
 195.363960649 1344.76026906 195.363960649 1344.76026906 234.388772026 1331.40967569 c 0,60,61
 244.458797043 1327.59939595 244.458797043 1327.59939595 252.820050543 1322.74853425 c 128,-1,62
 261.181304043 1317.89767255 261.181304043 1317.89767255 267.911235428 1311.92993452 c 128,-1,63
 274.641166812 1305.9621965 274.641166812 1305.9621965 279.557591244 1298.78354505 c 128,-1,64
 284.474015675 1291.6048936 284.474015675 1291.6048936 287.417419116 1283.36336397 c 0,65,66
 298 1253.73213749 298 1253.73213749 298 1217 c 2,67,-1
 298 193 l 2,68,69
 298 151.47248497 298 151.47248497 283.299053977 124.248510853 c 0,70,71
 268.153598349 96.2013708018 268.153598349 96.2013708018 234.976074376 81.8244437469 c 0,72,73
 224.849435337 77.3237152851 224.849435337 77.3237152851 208.519852702 73.9883668923 c 128,-1,74
 192.190270067 70.6530184995 192.190270067 70.6530184995 168.592325519 68.0598377799 c 0,75,76
 131.574056105 63.9918960861 131.574056105 63.9918960861 108 61.8360666206 c 1,77,-1
 108 10 l 1,78,-1
 697 10 l 1,79,-1
 697 61.335096083 l 1,80,81
 662.101498947 62.8231211549 662.101498947 62.8231211549 622.192636694 68.0858282652 c 0,82,83
 575.498300647 74.2433231286 575.498300647 74.2433231286 556.375537388 81.6799532846 c 0,84,85
 516.487340361 97.1920299064 516.487340361 97.1920299064 503.326549889 127.51906882 c 0,86,87
 491 155.92372726 491 155.92372726 491 193 c 2,88,-1
 491 623 l 1,89,-1
 491 633 l 1,90,-1
 501 633 l 1,91,-1
 660 633 l 2,92,93
 710.336134323 633 710.336134323 633 757.889125334 639.406095113 c 128,-1,94
 805.442116346 645.812190226 805.442116346 645.812190226 850.252788721 658.615239476 c 0,95,96
 939.5193593 684.119973928 939.5193593 684.119973928 1014.06800962 739.050558374 c 0,97,98
 1089.17596969 793.674529337 1089.17596969 793.674529337 1131.58721969 877.034572437 c 128,-1,99
 1174 960.397623387 1174 960.397623387 1174 1069 c 0,50,51
888.21550576 821.297842049 m 0,100,101
 852.794635399 769.208326812 852.794635399 769.208326812 782.945575517 734.542497093 c 0,102,103
 747.926136135 717.16247903 747.926136135 717.16247903 702.965786826 708.581239515 c 128,-1,104
 658.005437517 700 658.005437517 700 603 700 c 2,105,-1
 501 700 l 1,106,-1
 491 700 l 1,107,-1
 491 710 l 1,108,-1
 491 1337 l 1,109,-1
 491 1347 l 1,110,-1
 501 1347 l 1,111,-1
 642 1347 l 2,112,113
 729.173007858 1347 729.173007858 1347 788.150051799 1320.09819048 c 0,114,115
 847.486578512 1293.03240637 847.486578512 1293.03240637 884.020431103 1243.97266146 c 0,116,117
 918.274370574 1198.30074217 918.274370574 1198.30074217 932.248072095 1137.23049107 c 0,118,119
 939.119029723 1107.20186144 939.119029723 1107.20186144 942.559514862 1077.63915176 c 128,-1,120
 946 1048.07644209 946 1048.07644209 946 1019 c 0,121,122
 946 997.889577065 946 997.889577065 943.189995494 974.260832945 c 128,-1,123
 940.379990988 950.632088825 940.379990988 950.632088825 934.779411441 924.411193673 c 0,124,125
 923.34960661 870.898925603 923.34960661 870.898925603 888.21550576 821.297842049 c 0,100,101
EndSplineSet
Validated: 524289
EndChar

StartChar: Q
Encoding: 81 81 52
Width: 1524
GlyphClass: 2
Flags: W
LayerCount: 2
Fore
SplineSet
1244 1251 m 0,0,1
 1338 1153 1338 1153 1391 1014.5 c 128,-1,2
 1444 876 1444 876 1444 708 c 0,3,4
 1444 574 1444 574 1409 460 c 128,-1,5
 1374 346 1374 346 1310 256 c 0,6,7
 1249 170 1249 170 1165 106 c 128,-1,8
 1081 42 1081 42 977 5 c 1,9,10
 979 -105 979 -105 1056 -192.5 c 128,-1,11
 1133 -280 1133 -280 1222 -280 c 0,12,13
 1304 -280 1304 -280 1347 -274.5 c 128,-1,14
 1390 -269 1390 -269 1418 -264 c 1,15,-1
 1418 -343 l 1,16,17
 1373 -356 1373 -356 1305.5 -370.5 c 128,-1,18
 1238 -385 1238 -385 1118 -385 c 0,19,20
 1051 -385 1051 -385 987 -365.5 c 128,-1,21
 923 -346 923 -346 871 -303 c 256,22,23
 819 -260 819 -260 784.5 -194 c 128,-1,24
 750 -128 750 -128 740 -32 c 1,25,26
 597 -27 597 -27 475 29.5 c 128,-1,27
 353 86 353 86 266 184 c 0,28,29
 178 283 178 283 129 416.5 c 128,-1,30
 80 550 80 550 80 708 c 0,31,32
 80 881 80 881 134 1016.5 c 128,-1,33
 188 1152 188 1152 283 1251 c 0,34,35
 377 1349 377 1349 501.5 1401 c 128,-1,36
 626 1453 626 1453 762 1453 c 0,37,38
 903 1453 903 1453 1028 1400 c 128,-1,39
 1153 1347 1153 1347 1244 1251 c 0,0,1
1095 245 m 0,40,41
 1151 336 1151 336 1176.5 451 c 128,-1,42
 1202 566 1202 566 1202 708 c 0,43,44
 1202 854 1202 854 1173.5 976 c 128,-1,45
 1145 1098 1145 1098 1090 1184 c 0,46,47
 1035 1269 1035 1269 952 1316.5 c 128,-1,48
 869 1364 869 1364 762 1364 c 0,49,50
 642 1364 642 1364 558 1309 c 128,-1,51
 474 1254 474 1254 421 1162 c 0,52,53
 371 1074 371 1074 346.5 956 c 128,-1,54
 322 838 322 838 322 708 c 0,55,56
 322 564 322 564 348 448 c 128,-1,57
 374 332 374 332 430 242 c 0,58,59
 484 154 484 154 566 104.5 c 128,-1,60
 648 55 648 55 762 55 c 0,61,62
 869 55 869 55 955 105 c 128,-1,63
 1041 155 1041 155 1095 245 c 0,40,41
1236.76275913 1244.09904245 m 0,64,65
 1191.9576564 1291.365964 1191.9576564 1291.365964 1138.8198446 1328.02351635 c 128,-1,66
 1085.6820328 1364.68106869 1085.6820328 1364.68106869 1024.09639309 1390.79337993 c 0,67,68
 900.967572173 1443 900.967572173 1443 762 1443 c 0,69,70
 628.004447358 1443 628.004447358 1443 505.354046481 1391.77252333 c 0,71,72
 474.692280805 1378.96600272 474.692280805 1378.96600272 445.9304687 1363.34184933 c 128,-1,73
 417.168656596 1347.71769594 417.168656596 1347.71769594 390.281895444 1329.26016898 c 128,-1,74
 363.395134292 1310.80264201 363.395134292 1310.80264201 338.383996843 1289.51089869 c 128,-1,75
 313.372859394 1268.21915537 313.372859394 1268.21915537 290.216815745 1244.07774816 c 0,76,77
 243.391325088 1195.2806579 243.391325088 1195.2806579 206.671067947 1137.4893734 c 128,-1,78
 169.950810805 1079.6980889 169.950810805 1079.6980889 143.289487461 1012.79791644 c 0,79,80
 90 879.080776604 90 879.080776604 90 708 c 0,81,82
 90 551.777239536 90 551.777239536 138.387626243 419.945645587 c 128,-1,83
 186.734125286 288.226102276 186.734125286 288.226102276 273.474093187 190.643638388 c 0,84,85
 358.843284978 94.8651420082 358.843284978 94.8651420082 479.202369911 38.5741438787 c 0,86,87
 599.368826698 -17.0767152071 599.368826698 -17.0767152071 740.349436812 -22.0061071692 c 2,88,-1
 749.04474657 -22.3101389789 l 1,89,-1
 749.946184089 -30.9639391574 l 2,90,91
 754.858738129 -78.1244579434 754.858738129 -78.1244579434 765.737997892 -117.729004478 c 128,-1,92
 776.617257654 -157.333551013 776.617257654 -157.333551013 793.36225444 -189.367457907 c 0,93,94
 826.927556987 -253.579341041 826.927556987 -253.579341041 877.372643598 -295.293547277 c 0,95,96
 902.630572709 -316.179911734 902.630572709 -316.179911734 930.737322263 -331.323640004 c 128,-1,97
 958.844071816 -346.467368274 958.844071816 -346.467368274 989.914589825 -355.93416673 c 0,98,99
 1021.21587895 -365.471278262 1021.21587895 -365.471278262 1053.22261288 -370.235639131 c 128,-1,100
 1085.22934681 -375 1085.22934681 -375 1118 -375 c 0,101,102
 1177.48149076 -375 1177.48149076 -375 1223.94037753 -371.406016533 c 128,-1,103
 1270.3992643 -367.812033066 1270.3992643 -367.812033066 1303.39976349 -360.723036943 c 0,104,105
 1319.03001432 -357.365427507 1319.03001432 -357.365427507 1333.02437118 -354.193738865 c 128,-1,106
 1347.01872804 -351.022050223 1347.01872804 -351.022050223 1359.99482638 -347.89049462 c 128,-1,107
 1372.97092472 -344.758939017 1372.97092472 -344.758939017 1384.87518612 -341.672730078 c 128,-1,108
 1396.77944753 -338.586521139 1396.77944753 -338.586521139 1408 -335.448922209 c 1,109,-1
 1408 -275.858279415 l 1,110,111
 1402.33949368 -276.790537508 1402.33949368 -276.790537508 1395.54458698 -277.828375464 c 128,-1,112
 1388.74968029 -278.866213419 1388.74968029 -278.866213419 1381.16926367 -279.957337317 c 128,-1,113
 1373.58884705 -281.048461215 1373.58884705 -281.048461215 1365.1734298 -282.190906222 c 128,-1,114
 1356.75801255 -283.333351228 1356.75801255 -283.333351228 1348.26873351 -284.419189245 c 0,115,116
 1326.27877834 -287.231857929 1326.27877834 -287.231857929 1294.8072933 -288.615928965 c 128,-1,117
 1263.33580826 -290 1263.33580826 -290 1222 -290 c 0,118,119
 1128.47933936 -290 1128.47933936 -290 1048.49286483 -199.106278949 c 0,120,121
 969.068368507 -108.851169491 969.068368507 -108.851169491 967.001652483 4.81821186332 c 2,122,-1
 966.870885767 12.0103812323 l 1,123,-1
 973.648116178 14.4215112825 l 2,124,125
 1076.17948873 50.8990188247 1076.17948873 50.8990188247 1158.93956785 113.9543172 c 128,-1,126
 1241.72608825 177.029761315 1241.72608825 177.029761315 1301.84348483 261.785435181 c 0,127,128
 1364.91442923 350.478950754 1364.91442923 350.478950754 1399.44039862 462.934965335 c 128,-1,129
 1434 575.500524105 1434 575.500524105 1434 708 c 0,130,131
 1434 874.151986686 1434 874.151986686 1381.66047443 1010.92602993 c 128,-1,132
 1329.38325844 1147.53724529 1329.38325844 1147.53724529 1236.76275913 1244.09904245 c 0,64,65
1103.54602591 239.806870206 m 0,133,134
 1048.25092644 147.648371076 1048.25092644 147.648371076 960.026204574 96.3549281332 c 0,135,136
 915.877142653 70.6868688767 915.877142653 70.6868688767 866.301823462 57.8434344384 c 128,-1,137
 816.726504271 45 816.726504271 45 762 45 c 0,138,139
 703.790717961 45 703.790717961 45 653.436534111 57.7170768875 c 128,-1,140
 603.082350261 70.434153775 603.082350261 70.434153775 560.832030836 95.938919769 c 0,141,142
 476.749213851 146.696230022 476.749213851 146.696230022 421.476772714 236.769837801 c 0,143,144
 364.613026534 328.158001304 364.613026534 328.158001304 338.24210423 445.812885431 c 0,145,146
 325.107823672 504.411983304 325.107823672 504.411983304 318.553911836 569.951529516 c 128,-1,147
 312 635.491075728 312 635.491075728 312 708 c 0,148,149
 312 839.027182191 312 839.027182191 336.708817411 958.032915029 c 0,150,151
 361.528525758 1077.57273482 361.528525758 1077.57273482 412.305434426 1166.94009408 c 0,152,153
 466.526348536 1261.05941668 466.526348536 1261.05941668 552.522140586 1317.36618529 c 0,154,155
 595.826664695 1345.72033798 595.826664695 1345.72033798 648.272214449 1359.86016899 c 128,-1,156
 700.717764202 1374 700.717764202 1374 762 1374 c 0,157,158
 816.689773208 1374 816.689773208 1374 865.494647978 1361.79867876 c 128,-1,159
 914.299522749 1349.59735752 914.299522749 1349.59735752 956.967018969 1325.17921209 c 0,160,161
 1042.07578057 1276.4723907 1042.07578057 1276.4723907 1098.39570157 1189.43251278 c 0,162,163
 1109.62906467 1171.86761775 1109.62906467 1171.86761775 1119.7621282 1152.86908523 c 128,-1,164
 1129.89519173 1133.87055272 1129.89519173 1133.87055272 1138.91307834 1113.48151287 c 128,-1,165
 1147.93096495 1093.09247303 1147.93096495 1093.09247303 1155.86475789 1071.25402851 c 128,-1,166
 1163.79855082 1049.415584 1163.79855082 1049.415584 1170.63427081 1026.19038639 c 128,-1,167
 1177.46999081 1002.96518878 1177.46999081 1002.96518878 1183.23782302 978.274819311 c 0,168,169
 1212 855.152517838 1212 855.152517838 1212 708 c 0,170,171
 1212 636.495693495 1212 636.495693495 1205.57199685 571.711116629 c 128,-1,172
 1199.14399369 506.926539763 1199.14399369 506.926539763 1186.26286833 448.835190067 c 0,173,174
 1160.39856248 332.192242123 1160.39856248 332.192242123 1103.54602591 239.806870206 c 0,133,134
EndSplineSet
Validated: 524289
EndChar

StartChar: R
Encoding: 82 82 53
Width: 1437
GlyphClass: 2
Flags: W
LayerCount: 2
Fore
SplineSet
1480 0 m 1,0,-1
 1098 0 l 1,1,2
 971 199 971 199 868.5 344 c 128,-1,3
 766 489 766 489 646 643 c 1,4,-1
 501 643 l 1,5,-1
 501 193 l 2,6,7
 501 158 501 158 512 131.5 c 128,-1,8
 523 105 523 105 559 91 c 0,9,10
 577 84 577 84 622 78 c 128,-1,11
 667 72 667 72 698 71 c 1,12,-1
 698 0 l 1,13,-1
 98 0 l 1,14,-1
 98 71 l 1,15,16
 122 73 122 73 167.5 78 c 128,-1,17
 213 83 213 83 231 91 c 0,18,19
 261 104 261 104 274.5 129 c 128,-1,20
 288 154 288 154 288 193 c 2,21,-1
 288 1219 l 2,22,23
 288 1254 288 1254 278 1281 c 128,-1,24
 268 1308 268 1308 231 1322 c 0,25,26
 206 1331 206 1331 166 1338.5 c 128,-1,27
 126 1346 126 1346 98 1348 c 1,28,-1
 98 1419 l 1,29,-1
 753 1419 l 2,30,31
 843 1419 843 1419 922 1400.5 c 128,-1,32
 1001 1382 1001 1382 1065 1341 c 0,33,34
 1127 1301 1127 1301 1164 1236.5 c 128,-1,35
 1201 1172 1201 1172 1201 1081 c 0,36,37
 1201 999 1201 999 1176 936 c 128,-1,38
 1151 873 1151 873 1102 827 c 0,39,40
 1057 784 1057 784 994 752.5 c 128,-1,41
 931 721 931 721 855 699 c 1,42,43
 960 560 960 560 1029.5 465 c 128,-1,44
 1099 370 1099 370 1200 234 c 0,45,46
 1244 174 1244 174 1279.5 145.5 c 128,-1,47
 1315 117 1315 117 1350 99 c 0,48,49
 1376 86 1376 86 1415 79 c 128,-1,50
 1454 72 1454 72 1480 71 c 1,51,-1
 1480 0 l 1,0,-1
954 1058 m 0,52,53
 954 1187 954 1187 880 1262.5 c 128,-1,54
 806 1338 806 1338 671 1338 c 2,55,-1
 501 1338 l 1,56,-1
 501 729 l 1,57,-1
 632 729 l 2,58,59
 770 729 770 729 862 817.5 c 128,-1,60
 954 906 954 906 954 1058 c 0,52,53
1470 10 m 1,61,-1
 1470 61.5430297199 l 1,62,63
 1445.54326104 63.358074811 1445.54326104 63.358074811 1413.23335937 69.1572879301 c 0,64,65
 1372.81591996 76.4117001321 1372.81591996 76.4117001321 1345.47704596 90.0811371331 c 0,66,67
 1327.41624842 99.3695472951 1327.41624842 99.3695472951 1309.40225412 111.250793498 c 128,-1,68
 1291.38825983 123.1320397 1291.38825983 123.1320397 1273.23966476 137.702038558 c 0,69,70
 1236.7138691 167.025564652 1236.7138691 167.025564652 1191.93595004 228.086363364 c 0,71,72
 1090.9354081 364.087093107 1090.9354081 364.087093107 1021.42920303 459.095574851 c 128,-1,73
 951.988973401 554.014498708 951.988973401 554.014498708 847.020713232 692.972481218 c 2,74,-1
 838.263247229 704.565698116 l 1,75,-1
 852.219419235 708.605642644 l 2,76,77
 889.8061405 719.486009326 889.8061405 719.486009326 924.133100987 732.698189975 c 128,-1,78
 958.460061474 745.910370624 958.460061474 745.910370624 989.527864045 761.44427191 c 128,-1,79
 1020.40308455 776.881882162 1020.40308455 776.881882162 1046.78374001 795.079648391 c 128,-1,80
 1073.16439547 813.277414621 1073.16439547 813.277414621 1095.09142228 834.229906912 c 0,81,82
 1118.89914666 856.580015511 1118.89914666 856.580015511 1136.73963549 882.856774955 c 128,-1,83
 1154.58012432 909.1335344 1154.58012432 909.1335344 1166.70509289 939.688455203 c 0,84,85
 1191 1000.91162112 1191 1000.91162112 1191 1081 c 0,86,87
 1191 1169.33542518 1191 1169.33542518 1155.32585653 1231.52413475 c 0,88,89
 1143.37278969 1252.36123775 1143.37278969 1252.36123775 1128.76980785 1270.51309461 c 128,-1,90
 1114.166826 1288.66495147 1114.166826 1288.66495147 1096.88139315 1304.17382185 c 128,-1,91
 1079.59596029 1319.68269223 1079.59596029 1319.68269223 1059.5787313 1332.59703352 c 0,92,93
 1038.76207578 1345.93270346 1038.76207578 1345.93270346 1016.30244667 1356.8375419 c 128,-1,94
 993.842817562 1367.74238034 993.842817562 1367.74238034 969.683830246 1376.23143138 c 128,-1,95
 945.524842929 1384.72048242 945.524842929 1384.72048242 919.719912286 1390.76340922 c 0,96,97
 841.844740847 1409 841.844740847 1409 753 1409 c 2,98,-1
 108 1409 l 1,99,-1
 108 1357.19495458 l 1,100,101
 120.297566008 1356.00808242 120.297566008 1356.00808242 135.708668632 1353.73619409 c 128,-1,102
 151.119771255 1351.46430576 151.119771255 1351.46430576 167.842885351 1348.32872187 c 0,103,104
 208.631891779 1340.68078316 208.631891779 1340.68078316 234.463284311 1331.38148185 c 0,105,106
 254.659622929 1323.739624 254.659622929 1323.739624 268.082124139 1312.03474783 c 128,-1,107
 281.50462535 1300.32987165 281.50462535 1300.32987165 287.377487607 1284.47314356 c 0,108,109
 289.520520485 1278.68695479 289.520520485 1278.68695479 291.230449642 1272.57281892 c 128,-1,110
 292.940378798 1266.45868306 292.940378798 1266.45868306 294.209272675 1260.07005875 c 128,-1,111
 295.478166552 1253.68143445 295.478166552 1253.68143445 296.32193386 1246.96815109 c 128,-1,112
 297.165701168 1240.25486774 297.165701168 1240.25486774 297.582850584 1233.27703549 c 128,-1,113
 298 1226.29920325 298 1226.29920325 298 1219 c 2,114,-1
 298 193 l 2,115,116
 298 151.47248497 298 151.47248497 283.299053977 124.248510853 c 0,117,118
 268.153598349 96.2013708018 268.153598349 96.2013708018 234.976074376 81.8244437469 c 0,119,120
 224.849435337 77.3237152851 224.849435337 77.3237152851 208.519852702 73.9883668923 c 128,-1,121
 192.190270067 70.6530184995 192.190270067 70.6530184995 168.592325519 68.0598377799 c 0,122,123
 131.574056105 63.9918960861 131.574056105 63.9918960861 108 61.8360666206 c 1,124,-1
 108 10 l 1,125,-1
 688 10 l 1,126,-1
 688 61.4184740127 l 1,127,128
 678.579636921 61.9260688537 678.579636921 61.9260688537 667.957158115 62.8308349729 c 128,-1,129
 657.334679308 63.735601092 657.334679308 63.735601092 645.391246199 65.0603643566 c 128,-1,130
 633.447813089 66.3851276212 633.447813089 66.3851276212 620.678362799 68.0877209932 c 0,131,132
 597.42826293 71.187734309 597.42826293 71.187734309 581.400290454 74.4900253489 c 128,-1,133
 565.372317978 77.7923163888 565.372317978 77.7923163888 555.375537388 81.6799532846 c 0,134,135
 515.399582115 97.2261581132 515.399582115 97.2261581132 502.764083365 127.666223284 c 0,136,137
 491 156.006969572 491 156.006969572 491 193 c 2,138,-1
 491 643 l 1,139,-1
 491 653 l 1,140,-1
 501 653 l 1,141,-1
 646 653 l 1,142,-1
 650.885272331 653 l 1,143,-1
 653.888002902 649.146495768 l 2,144,145
 774.017966409 494.981453233 774.017966409 494.981453233 876.665774983 349.772358178 c 0,146,147
 927.456956452 277.921418538 927.456956452 277.921418538 984.047639583 193.147806685 c 128,-1,148
 1040.63832271 108.374194831 1040.63832271 108.374194831 1103.47966278 10 c 1,149,-1
 1470 10 l 1,61,-1
964 1058 m 0,150,151
 964 901.743829742 964 901.743829742 868.932652496 810.293174806 c 0,152,153
 837.34772242 779.909845331 837.34772242 779.909845331 800.34505611 759.596885901 c 128,-1,154
 763.342389799 739.283926471 763.342389799 739.283926471 721.233360261 729.141963235 c 128,-1,155
 679.124330722 719 679.124330722 719 632 719 c 2,156,-1
 501 719 l 1,157,-1
 491 719 l 1,158,-1
 491 729 l 1,159,-1
 491 1338 l 1,160,-1
 491 1348 l 1,161,-1
 501 1348 l 1,162,-1
 671 1348 l 2,163,164
 810.201031085 1348 810.201031085 1348 887.141655514 1269.49976832 c 128,-1,165
 964 1191.08348442 964 1191.08348442 964 1058 c 0,150,151
EndSplineSet
Validated: 524289
EndChar

StartChar: S
Encoding: 83 83 54
Width: 1149
GlyphClass: 2
Flags: W
LayerCount: 2
Fore
SplineSet
981 651 m 0,0,1
 1026 601 1026 601 1047.5 541.5 c 128,-1,2
 1069 482 1069 482 1069 403 c 0,3,4
 1069 215 1069 215 930 93 c 128,-1,5
 791 -29 791 -29 585 -29 c 0,6,7
 490 -29 490 -29 395 0.5 c 128,-1,8
 300 30 300 30 231 72 c 1,9,-1
 188 -1 l 1,10,-1
 108 -1 l 1,11,-1
 94 485 l 1,12,-1
 175 485 l 1,13,14
 200 395 200 395 233.5 322.5 c 128,-1,15
 267 250 267 250 322 187 c 0,16,17
 374 128 374 128 443.5 93 c 128,-1,18
 513 58 513 58 605 58 c 0,19,20
 674 58 674 58 725.5 76 c 128,-1,21
 777 94 777 94 809 127 c 256,22,23
 841 160 841 160 856.5 204.5 c 128,-1,24
 872 249 872 249 872 307 c 0,25,26
 872 392 872 392 824 465.5 c 128,-1,27
 776 539 776 539 681 577 c 0,28,29
 616 603 616 603 532 634.5 c 128,-1,30
 448 666 448 666 387 694 c 0,31,32
 267 748 267 748 200.5 835.5 c 128,-1,33
 134 923 134 923 134 1064 c 0,34,35
 134 1145 134 1145 167 1215 c 128,-1,36
 200 1285 200 1285 261 1340 c 0,37,38
 319 1392 319 1392 398 1421.5 c 128,-1,39
 477 1451 477 1451 563 1451 c 0,40,41
 661 1451 661 1451 738.5 1421 c 128,-1,42
 816 1391 816 1391 880 1351 c 1,43,-1
 921 1419 l 1,44,-1
 1001 1419 l 1,45,-1
 1009 948 l 1,46,-1
 928 948 l 1,47,48
 906 1029 906 1029 878.5 1103 c 128,-1,49
 851 1177 851 1177 807 1237 c 0,50,51
 764 1295 764 1295 702 1329.5 c 128,-1,52
 640 1364 640 1364 550 1364 c 0,53,54
 455 1364 455 1364 388 1303 c 128,-1,55
 321 1242 321 1242 321 1154 c 0,56,57
 321 1062 321 1062 364 1001.5 c 128,-1,58
 407 941 407 941 489 902 c 0,59,60
 562 867 562 867 632.5 841.5 c 128,-1,61
 703 816 703 816 769 787 c 0,62,63
 829 761 829 761 884.5 728 c 128,-1,64
 940 695 940 695 981 651 c 0,0,1
973.624937432 644.246042801 m 0,65,66
 933.659372636 687.135917217 933.659372636 687.135917217 879.389246071 719.40464112 c 0,67,68
 824.438062938 752.078317577 824.438062938 752.078317577 765.023925624 777.824443747 c 0,69,70
 743.077700756 787.467481946 743.077700756 787.467481946 720.679417786 796.703732865 c 128,-1,71
 698.281134817 805.939983783 698.281134817 805.939983783 675.399656939 814.782662061 c 128,-1,72
 652.518179061 823.62534034 652.518179061 823.62534034 629.098639183 832.096237742 c 0,73,74
 558.127997873 857.766469706 558.127997873 857.766469706 484.676705446 892.982842787 c 0,75,76
 475.372450291 897.408037312 475.372450291 897.408037312 466.546912764 902.112231965 c 128,-1,77
 457.721375237 906.816426617 457.721375237 906.816426617 449.355990138 911.81194255 c 128,-1,78
 440.990605039 916.807458482 440.990605039 916.807458482 433.109900422 922.081298458 c 128,-1,79
 425.229195805 927.355138434 425.229195805 927.355138434 417.815841438 932.922219488 c 128,-1,80
 410.402487071 938.489300541 410.402487071 938.489300541 403.479693708 944.333856495 c 128,-1,81
 396.556900346 950.178412449 396.556900346 950.178412449 390.108655055 956.318129278 c 128,-1,82
 383.660409764 962.457846108 383.660409764 962.457846108 377.708606 968.874188694 c 128,-1,83
 371.756802237 975.290531281 371.756802237 975.290531281 366.286744366 982.00395454 c 128,-1,84
 360.816686496 988.7173778 360.816686496 988.7173778 355.849033007 995.706750732 c 0,85,86
 311 1058.80829717 311 1058.80829717 311 1154 c 0,87,88
 311 1199.99902411 311 1199.99902411 328.671190984 1239.29783895 c 128,-1,89
 346.342381967 1278.59665378 346.342381967 1278.59665378 381.26778067 1310.39440484 c 0,90,91
 404.48926114 1331.53634974 404.48926114 1331.53634974 431.099432634 1345.69048334 c 128,-1,92
 457.709604128 1359.84461694 457.709604128 1359.84461694 487.464494256 1366.92230847 c 128,-1,93
 517.219384385 1374 517.219384385 1374 550 1374 c 0,94,95
 596.113792401 1374 596.113792401 1374 635.36406928 1365.09136731 c 128,-1,96
 674.61434616 1356.18273462 674.61434616 1356.18273462 706.862411453 1338.23824667 c 0,97,98
 770.747992409 1302.68901211 770.747992409 1302.68901211 815.033117716 1242.95558727 c 0,99,100
 859.888368327 1181.78933644 859.888368327 1181.78933644 887.873661938 1106.48345545 c 0,101,102
 896.752711695 1082.59073974 896.752711695 1082.59073974 904.888052242 1058.53749363 c 128,-1,103
 913.023392788 1034.48424752 913.023392788 1034.48424752 920.676610068 1009.46237231 c 128,-1,104
 928.329827348 984.440497098 928.329827348 984.440497098 935.631014669 958 c 1,105,-1
 998.828706249 958 l 1,106,-1
 991.168409009 1409 l 1,107,-1
 926.647651489 1409 l 1,108,-1
 888.563797063 1345.83653412 l 1,109,-1
 883.316942785 1337.13443434 l 1,110,-1
 874.7000106 1342.52001696 l 2,111,112
 853.65152523 1355.67532032 853.65152523 1355.67532032 831.114384536 1367.73936112 c 128,-1,113
 808.577243842 1379.80340193 808.577243842 1379.80340193 784.512678258 1390.7921404 c 128,-1,114
 760.448112674 1401.78087888 760.448112674 1401.78087888 734.890058974 1411.67431902 c 0,115,116
 697.072692305 1426.31329966 697.072692305 1426.31329966 654.11417774 1433.65664983 c 128,-1,117
 611.155663174 1441 611.155663174 1441 563 1441 c 0,118,119
 478.806178907 1441 478.806178907 1441 401.498235499 1412.13184392 c 128,-1,120
 324.268480979 1383.29288495 324.268480979 1383.29288495 267.675450158 1332.55430559 c 0,121,122
 208.188569945 1278.91859393 208.188569945 1278.91859393 176.04525643 1210.73580768 c 0,123,124
 144 1142.76102132 144 1142.76102132 144 1064 c 0,125,126
 144 994.888250142 144 994.888250142 160.158112634 939.367828693 c 128,-1,127
 176.316225269 883.847407245 176.316225269 883.847407245 208.461621941 841.550832675 c 0,128,129
 273.422802642 756.075594911 273.422802642 756.075594911 391.103646773 703.119215052 c 0,130,131
 451.842720435 675.238984519 451.842720435 675.238984519 535.511234416 643.863291776 c 0,132,133
 619.612997305 612.325130692 619.612997305 612.325130692 684.713906764 586.284766909 c 0,134,135
 782.645979223 547.111937925 782.645979223 547.111937925 832.372705046 470.967889009 c 0,136,137
 857.120930695 433.072168483 857.120930695 433.072168483 869.560465348 391.995603439 c 128,-1,138
 882 350.919038395 882 350.919038395 882 307 c 0,139,140
 882 247.308269927 882 247.308269927 865.943535608 201.210678608 c 0,141,142
 849.716881377 154.624477752 849.716881377 154.624477752 816.179003935 120.038541639 c 128,-1,143
 782.532349598 85.3404293543 782.532349598 85.3404293543 728.799421506 66.559988468 c 0,144,145
 675.697232278 48 675.697232278 48 605 48 c 0,146,147
 510.624146603 48 510.624146603 48 439.002180684 84.0686159302 c 0,148,149
 421.207412599 93.03000993 421.207412599 93.03000993 404.516243239 103.540088315 c 128,-1,150
 387.825073879 114.050166699 387.825073879 114.050166699 372.258033886 126.094108025 c 128,-1,151
 356.690993893 138.138049351 356.690993893 138.138049351 342.247235875 151.714669837 c 128,-1,152
 327.803477857 165.291290323 327.803477857 165.291290323 314.497911905 180.387990153 c 0,153,154
 286.498710407 212.459802778 286.498710407 212.459802778 263.992801353 246.917143012 c 128,-1,155
 241.486892299 281.374483246 241.486892299 281.374483246 224.422239372 318.305448537 c 0,156,157
 213.451380224 342.048352663 213.451380224 342.048352663 203.678279378 366.774312601 c 128,-1,158
 193.905178532 391.500272538 193.905178532 391.500272538 184.899783317 418.368850356 c 128,-1,159
 175.894388101 445.237428174 175.894388101 445.237428174 167.420831521 475 c 1,160,-1
 104.29221408 475 l 1,161,-1
 117.716082392 9 l 1,162,-1
 182.284509819 9 l 1,163,-1
 222.383693623 77.0753585508 l 1,164,-1
 227.533010224 85.8172216181 l 1,165,-1
 236.199469469 80.5419855561 l 2,166,167
 304.144762023 39.1839813926 304.144762023 39.1839813926 397.965573078 10.0501505913 c 0,168,169
 444.772142987 -4.48452111707 444.772142987 -4.48452111707 491.516847482 -11.7422605585 c 128,-1,170
 538.261551978 -19 538.261551978 -19 585 -19 c 0,171,172
 787.233939504 -19 787.233939504 -19 923.403477725 100.515709805 c 0,173,174
 991.382622317 160.180858296 991.382622317 160.180858296 1025.19131116 235.581643589 c 128,-1,175
 1059 310.982428883 1059 310.982428883 1059 403 c 0,176,177
 1059 441.716700877 1059 441.716700877 1053.75652435 475.493709939 c 128,-1,178
 1048.5130487 509.270719002 1048.5130487 509.270719002 1038.09516251 538.101613345 c 0,179,180
 1017.25944112 595.763260927 1017.25944112 595.763260927 973.624937432 644.246042801 c 0,65,66
EndSplineSet
Validated: 524289
EndChar

StartChar: T
Encoding: 84 84 55
Width: 1267
GlyphClass: 2
Flags: W
LayerCount: 2
Fore
SplineSet
1251 1034 m 1,0,-1
 1182 1034 l 1,1,2
 1173 1070 1173 1070 1149.5 1119.5 c 128,-1,3
 1126 1169 1126 1169 1097 1213 c 0,4,5
 1067 1259 1067 1259 1031.5 1293.5 c 128,-1,6
 996 1328 996 1328 963 1333 c 0,7,8
 932 1337 932 1337 885 1339 c 128,-1,9
 838 1341 838 1341 798 1341 c 2,10,-1
 740 1341 l 1,11,-1
 740 206 l 2,12,13
 740 173 740 173 754 145.5 c 128,-1,14
 768 118 768 118 803 103 c 0,15,16
 821 96 821 96 878.5 84 c 128,-1,17
 936 72 936 72 968 71 c 1,18,-1
 968 0 l 1,19,-1
 298 0 l 1,20,-1
 298 71 l 1,21,22
 326 73 326 73 383.5 79 c 128,-1,23
 441 85 441 85 463 94 c 0,24,25
 496 107 496 107 511.5 131.5 c 128,-1,26
 527 156 527 156 527 197 c 2,27,-1
 527 1341 l 1,28,-1
 469 1341 l 2,29,30
 438 1341 438 1341 392 1339.5 c 128,-1,31
 346 1338 346 1338 304 1333 c 0,32,33
 271 1329 271 1329 235.5 1293.5 c 128,-1,34
 200 1258 200 1258 170 1213 c 256,35,36
 140 1168 140 1168 117 1117.5 c 128,-1,37
 94 1067 94 1067 85 1034 c 1,38,-1
 15 1034 l 1,39,-1
 15 1419 l 1,40,-1
 1251 1419 l 1,41,-1
 1251 1034 l 1,0,-1
1241 1044 m 1,42,-1
 1241 1409 l 1,43,-1
 25 1409 l 1,44,-1
 25 1044 l 1,45,-1
 77.4666742631 1044 l 1,46,47
 87.2061231484 1076.20952703 87.2061231484 1076.20952703 107.899423535 1121.644817 c 0,48,49
 131.23303088 1172.8773027 131.23303088 1172.8773027 161.679497057 1218.54700196 c 0,50,51
 169.308214448 1229.99007805 169.308214448 1229.99007805 177.291250803 1240.8353344 c 128,-1,52
 185.274287159 1251.68059076 185.274287159 1251.68059076 193.617472076 1261.93514648 c 128,-1,53
 201.960656992 1272.1897022 201.960656992 1272.1897022 210.665448432 1281.85103885 c 128,-1,54
 219.370239872 1291.5123755 219.370239872 1291.5123755 228.428932188 1300.57106781 c 0,55,56
 266.369825075 1338.5119607 266.369825075 1338.5119607 302.796686325 1342.92733782 c 0,57,58
 345.244851472 1347.98069081 345.244851472 1347.98069081 391.674086274 1349.4946876 c 0,59,60
 437.836999841 1351 437.836999841 1351 469 1351 c 2,61,-1
 527 1351 l 1,62,-1
 537 1351 l 1,63,-1
 537 1341 l 1,64,-1
 537 197 l 2,65,66
 537 153.102336756 537 153.102336756 519.950788361 126.153582874 c 0,67,68
 502.704396896 98.8931576553 502.704396896 98.8931576553 466.725945402 84.7198282788 c 0,69,70
 443.461506783 75.2025579347 443.461506783 75.2025579347 384.537843296 69.0540017448 c 0,71,72
 335.713544356 63.9592922902 335.713544356 63.9592922902 308 61.7329825934 c 1,73,-1
 308 10 l 1,74,-1
 958 10 l 1,75,-1
 958 61.5083274738 l 1,76,77
 950.24320208 62.0710968698 950.24320208 62.0710968698 941.242456001 63.1459234277 c 128,-1,78
 932.241709921 64.2207499855 932.241709921 64.2207499855 922.038962012 65.8028806485 c 128,-1,79
 911.836214103 67.3850113114 911.836214103 67.3850113114 900.384470228 69.4961491038 c 128,-1,80
 888.932726352 71.6072868962 888.932726352 71.6072868962 876.457058344 74.2109045672 c 0,81,82
 818.146888037 86.3799835879 818.146888037 86.3799835879 799.21707901 93.7415759871 c 0,83,84
 760.73162696 110.235341152 760.73162696 110.235341152 745.088368844 140.963169593 c 0,85,86
 742.572018315 145.906000989 742.572018315 145.906000989 740.472236704 151.026071232 c 128,-1,87
 738.372455093 156.146141475 738.372455093 156.146141475 736.697894369 161.417820872 c 128,-1,88
 735.023333646 166.689500269 735.023333646 166.689500269 733.765809222 172.120678188 c 128,-1,89
 732.508284798 177.551856107 732.508284798 177.551856107 731.672324279 183.129007864 c 128,-1,90
 730.83636376 188.706159621 730.83636376 188.706159621 730.41818188 194.424262573 c 128,-1,91
 730 200.142365526 730 200.142365526 730 206 c 2,92,-1
 730 1341 l 1,93,-1
 730 1351 l 1,94,-1
 740 1351 l 1,95,-1
 798 1351 l 2,96,97
 838.212669727 1351 838.212669727 1351 885.425147166 1348.99095841 c 0,98,99
 909.240139315 1347.97755449 909.240139315 1347.97755449 928.835306016 1346.47019823 c 128,-1,100
 948.430472716 1344.96284198 948.430472716 1344.96284198 964.389052391 1342.90367041 c 0,101,102
 1000.66922646 1337.40667433 1000.66922646 1337.40667433 1038.46934144 1300.67135133 c 0,103,104
 1074.76785176 1265.39533426 1074.76785176 1265.39533426 1105.37610597 1218.46267781 c 0,105,106
 1120.03272871 1196.2250433 1120.03272871 1196.2250433 1133.34139717 1172.52257439 c 128,-1,107
 1146.65006564 1148.82010548 1146.65006564 1148.82010548 1158.53365896 1123.78870678 c 0,108,109
 1169.43714687 1100.82178544 1169.43714687 1100.82178544 1176.9685383 1081.60118775 c 128,-1,110
 1184.49992974 1062.38059007 1184.49992974 1062.38059007 1189.69456147 1044 c 1,111,-1
 1241 1044 l 1,42,-1
EndSplineSet
Validated: 524289
EndChar

StartChar: U
Encoding: 85 85 56
Width: 1549
GlyphClass: 2
Flags: W
LayerCount: 2
Fore
SplineSet
1533 1348 m 1,0,1
 1505 1347 1505 1347 1451 1336 c 128,-1,2
 1397 1325 1397 1325 1363 1303 c 0,3,4
 1329 1280 1329 1280 1316 1208 c 128,-1,5
 1303 1136 1303 1136 1303 1032 c 2,6,-1
 1303 415 l 2,7,8
 1303 297 1303 297 1254 210 c 128,-1,9
 1205 123 1205 123 1125 67 c 0,10,11
 1046 13 1046 13 958.5 -10.5 c 128,-1,12
 871 -34 871 -34 791 -34 c 0,13,14
 663 -34 663 -34 563 -0.5 c 128,-1,15
 463 33 463 33 395 90 c 0,16,17
 328 147 328 147 294 220.5 c 128,-1,18
 260 294 260 294 260 374 c 2,19,-1
 260 1213 l 2,20,21
 260 1248 260 1248 248.5 1271.5 c 128,-1,22
 237 1295 237 1295 202 1315 c 0,23,24
 177 1329 177 1329 138 1337.5 c 128,-1,25
 99 1346 99 1346 74 1348 c 1,26,-1
 74 1419 l 1,27,-1
 665 1419 l 1,28,-1
 665 1348 l 1,29,30
 637 1347 637 1347 594.5 1339 c 128,-1,31
 552 1331 552 1331 532 1324 c 0,32,33
 498 1312 498 1312 486.5 1284 c 128,-1,34
 475 1256 475 1256 475 1223 c 2,35,-1
 475 439 l 2,36,37
 475 382 475 382 487.5 319.5 c 128,-1,38
 500 257 500 257 537 203 c 0,39,40
 576 148 576 148 643 113 c 128,-1,41
 710 78 710 78 827 78 c 0,42,43
 937 78 937 78 1011.5 113 c 128,-1,44
 1086 148 1086 148 1129 205 c 0,45,46
 1170 259 1170 259 1187 318 c 128,-1,47
 1204 377 1204 377 1204 437 c 2,48,-1
 1204 1019 l 2,49,50
 1204 1130 1204 1130 1188 1200.5 c 128,-1,51
 1172 1271 1172 1271 1141 1293 c 0,52,53
 1106 1318 1106 1318 1045.5 1332 c 128,-1,54
 985 1346 985 1346 953 1348 c 1,55,-1
 953 1419 l 1,56,-1
 1533 1419 l 1,57,-1
 1533 1348 l 1,0,1
1523 1357.42609345 m 1,58,-1
 1523 1409 l 1,59,-1
 963 1409 l 1,60,-1
 963 1357.20751329 l 1,61,62
 995.007236192 1353.9485258 995.007236192 1353.9485258 1047.75447511 1341.74255315 c 0,63,64
 1110.19313919 1327.29393667 1110.19313919 1327.29393667 1146.81238194 1301.13733471 c 0,65,66
 1164.45820639 1288.61449155 1164.45820639 1288.61449155 1176.93561949 1264.03566067 c 128,-1,67
 1189.41303259 1239.45682978 1189.41303259 1239.45682978 1197.7520075 1202.71322156 c 0,68,69
 1214 1131.12050462 1214 1131.12050462 1214 1019 c 2,70,-1
 1214 437 l 2,71,72
 1214 375.588043687 1214 375.588043687 1196.60906954 315.231285047 c 0,73,74
 1179.09256027 254.438694028 1179.09256027 254.438694028 1136.96446316 198.952907598 c 0,75,76
 1092.49237039 140.001528799 1092.49237039 140.001528799 1015.75211872 103.949061575 c 0,77,78
 939.23197337 68 939.23197337 68 827 68 c 0,79,80
 767.448724738 68 767.448724738 68 720.351067979 76.956869849 c 128,-1,81
 673.253411219 85.913739698 673.253411219 85.913739698 638.36981945 104.136511518 c 0,82,83
 621.136603479 113.138937771 621.136603479 113.138937771 605.690629305 123.436167322 c 128,-1,84
 590.244655131 133.733396872 590.244655131 133.733396872 576.537958506 145.365308847 c 128,-1,85
 562.831261882 156.997220822 562.831261882 156.997220822 550.889003233 169.981799317 c 128,-1,86
 538.946744584 182.966377811 538.946744584 182.966377811 528.796142893 197.281328914 c 0,87,88
 490.595128961 253.034160057 490.595128961 253.034160057 477.694193243 317.538838649 c 0,89,90
 465 381.009804864 465 381.009804864 465 439 c 2,91,-1
 465 1223 l 2,92,93
 465 1257.97358412 465 1257.97358412 477.249801816 1287.79918854 c 0,94,95
 490.450506851 1319.94003558 490.450506851 1319.94003558 528.671798823 1333.42990334 c 0,96,97
 535.784487178 1335.91934426 535.784487178 1335.91934426 545.282975185 1338.45414343 c 128,-1,98
 554.781463191 1340.98894261 554.781463191 1340.98894261 566.500154342 1343.5499376 c 128,-1,99
 578.218845494 1346.11093259 578.218845494 1346.11093259 592.65013449 1348.82741052 c 0,100,101
 628.530210257 1355.58130714 628.530210257 1355.58130714 655 1357.47900252 c 1,102,-1
 655 1409 l 1,103,-1
 84 1409 l 1,104,-1
 84 1357.07205254 l 1,105,106
 107.337121753 1354.41768778 107.337121753 1354.41768778 140.129496655 1347.27063171 c 0,107,108
 180.585679443 1338.45325854 180.585679443 1338.45325854 206.886033689 1323.72506016 c 0,109,110
 225.580392346 1313.0425695 225.580392346 1313.0425695 238.230138186 1301.21486016 c 128,-1,111
 250.879884026 1289.38715082 250.879884026 1289.38715082 257.48216722 1275.89552864 c 0,112,113
 270 1250.31560948 270 1250.31560948 270 1213 c 2,114,-1
 270 374 l 2,115,116
 270 296.200889092 270 296.200889092 303.075976341 224.698410825 c 0,117,118
 319.611363431 188.952794616 319.611363431 188.952794616 344.181374429 157.206472349 c 128,-1,119
 368.751385428 125.460150081 368.751385428 125.460150081 401.47978346 97.6165875762 c 0,120,121
 467.97175566 41.8806697033 467.97175566 41.8806697033 566.176497228 8.98208127786 c 0,122,123
 664.630471192 -24 664.630471192 -24 791 -24 c 0,124,125
 869.680522288 -24 869.680522288 -24 955.906203135 -0.842245715334 c 0,126,127
 998.79903026 10.6775421412 998.79903026 10.6775421412 1039.67241723 29.7020342081 c 128,-1,128
 1080.54580419 48.7265262749 1080.54580419 48.7265262749 1119.31096596 75.2242317891 c 0,129,130
 1158.3468079 102.549321146 1158.3468079 102.549321146 1189.83757532 137.458994152 c 128,-1,131
 1221.32834273 172.368667158 1221.32834273 172.368667158 1245.28692056 214.907366579 c 0,132,133
 1293 299.622425986 1293 299.622425986 1293 415 c 2,134,-1
 1293 1032 l 2,135,136
 1293 1136.89553761 1293 1136.89553761 1306.15912139 1209.7768253 c 0,137,138
 1319.90763614 1285.92244548 1319.90763614 1285.92244548 1357.48161959 1311.34014017 c 0,139,140
 1393.15321981 1334.42176384 1393.15321981 1334.42176384 1449.00395518 1345.79876549 c 0,141,142
 1464.49710955 1348.95477842 1464.49710955 1348.95477842 1477.61830066 1351.26182085 c 128,-1,143
 1490.73949176 1353.56886329 1490.73949176 1353.56886329 1502.0887164 1355.11492417 c 128,-1,144
 1513.43794104 1356.66098505 1513.43794104 1356.66098505 1523 1357.42609345 c 1,58,-1
EndSplineSet
Validated: 524289
EndChar

StartChar: V
Encoding: 86 86 57
Width: 1365
GlyphClass: 2
Flags: W
LayerCount: 2
Fore
SplineSet
1407 1348 m 1,0,1
 1381 1347 1381 1347 1344 1336.5 c 128,-1,2
 1307 1326 1307 1326 1283 1311 c 0,3,4
 1249 1290 1249 1290 1228.5 1257 c 128,-1,5
 1208 1224 1208 1224 1188 1179 c 0,6,7
 1121 1020 1121 1020 987 683.5 c 128,-1,8
 853 347 853 347 711 -18 c 1,9,-1
 628 -18 l 1,10,11
 484 369 484 369 350 728 c 128,-1,12
 216 1087 216 1087 168 1213 c 0,13,14
 156 1244 156 1244 136 1267.5 c 128,-1,15
 116 1291 116 1291 83 1312 c 0,16,17
 56 1329 56 1329 23 1337.5 c 128,-1,18
 -10 1346 -10 1346 -38 1348 c 1,19,-1
 -38 1419 l 1,20,-1
 549 1419 l 1,21,-1
 549 1348 l 1,22,23
 474 1344 474 1344 422.5 1333 c 128,-1,24
 371 1322 371 1322 371 1294 c 0,25,26
 371 1283 371 1283 375 1268 c 128,-1,27
 379 1253 379 1253 382 1244 c 0,28,29
 419 1146 419 1146 502 924.5 c 128,-1,30
 585 703 585 703 738 294 c 1,31,32
 814 479 814 479 913 731 c 128,-1,33
 1012 983 1012 983 1046 1077 c 0,34,35
 1079 1168 1079 1168 1084.5 1203 c 128,-1,36
 1090 1238 1090 1238 1090 1260 c 0,37,38
 1090 1283 1090 1283 1069.5 1298.5 c 128,-1,39
 1049 1314 1049 1314 1015 1325 c 0,40,41
 982 1335 982 1335 948 1340 c 128,-1,42
 914 1345 914 1345 879 1348 c 1,43,-1
 879 1419 l 1,44,-1
 1407 1419 l 1,45,-1
 1407 1348 l 1,0,1
1397 1357.35044326 m 1,46,-1
 1397 1409 l 1,47,-1
 889 1409 l 1,48,-1
 889 1357.14408661 l 1,49,50
 895.950217825 1356.49412858 895.950217825 1356.49412858 903.506183922 1355.68443934 c 128,-1,51
 911.062150019 1354.8747501 911.062150019 1354.8747501 918.78679636 1353.95422515 c 128,-1,52
 926.511442702 1353.0337002 926.511442702 1353.0337002 934.367464149 1351.99537036 c 128,-1,53
 942.223485596 1350.95704052 942.223485596 1350.95704052 949.454939905 1349.89359135 c 0,54,55
 984.189510735 1344.78556623 984.189510735 1344.78556623 1017.98939881 1334.54317591 c 0,56,57
 1053.68445476 1322.99477545 1053.68445476 1322.99477545 1075.53108275 1306.47659331 c 0,58,59
 1087.39252705 1297.50818421 1087.39252705 1297.50818421 1093.69626352 1285.66899811 c 128,-1,60
 1100 1273.82981201 1100 1273.82981201 1100 1260 c 0,61,62
 1100 1237.21907732 1100 1237.21907732 1094.37877125 1201.44762166 c 128,-1,63
 1088.72926761 1165.49623482 1088.72926761 1165.49623482 1055.40094684 1073.59086543 c 0,64,65
 1021.35733257 979.470284812 1021.35733257 979.470284812 922.307514934 727.343476276 c 128,-1,66
 823.289444865 475.296346055 823.289444865 475.296346055 747.249884377 290.200047499 c 2,67,-1
 737.56433889 266.623390722 l 1,68,-1
 728.63388796 290.496295496 l 2,69,70
 575.634096937 699.495733389 575.634096937 699.495733389 492.635839824 920.991082191 c 128,-1,71
 409.640194454 1142.4794611 409.640194454 1142.4794611 372.575242199 1240.6514968 c 0,72,73
 369.416453148 1250.12786395 369.416453148 1250.12786395 365.337650604 1265.42337349 c 0,74,75
 363.909090745 1270.78047296 363.909090745 1270.78047296 362.95532391 1275.64582852 c 128,-1,76
 362.001557075 1280.51118407 362.001557075 1280.51118407 361.500778538 1285.14079497 c 128,-1,77
 361 1289.77040588 361 1289.77040588 361 1294 c 0,78,79
 361 1313.07569044 361 1313.07569044 376.738472212 1324.9442816 c 128,-1,80
 392.476944424 1336.81287277 392.476944424 1336.81287277 420.411193673 1342.77941144 c 0,81,82
 468.992477962 1353.15599643 468.992477962 1353.15599643 539 1357.44807729 c 1,83,-1
 539 1409 l 1,84,-1
 -28 1409 l 1,85,-1
 -28 1357.15293602 l 1,86,87
 -2.89450004442 1354.49619499 -2.89450004442 1354.49619499 25.4943423603 1347.1839174 c 0,88,89
 60.006621641 1338.29439092 60.006621641 1338.29439092 88.3281326969 1320.4623284 c 0,90,91
 105.453569829 1309.56432295 105.453569829 1309.56432295 119.251358623 1297.98042443 c 128,-1,92
 133.049147416 1286.39652591 133.049147416 1286.39652591 143.615393897 1273.9811863 c 0,93,94
 164.713852857 1249.19049702 164.713852857 1249.19049702 177.325680983 1216.60994103 c 0,95,96
 225.364309611 1090.50854088 225.364309611 1090.50854088 359.368643151 731.49693087 c 0,97,98
 492.192026709 375.649209247 492.192026709 375.649209247 634.948872495 -8 c 1,99,-1
 704.16053383 -8 l 1,100,101
 844.940645722 353.791187617 844.940645722 353.791187617 977.709531842 687.199621792 c 0,102,103
 1111.74622454 1023.79176429 1111.74622454 1023.79176429 1178.82244571 1182.97264735 c 0,104,105
 1189.01327468 1205.90201253 1189.01327468 1205.90201253 1199.26434671 1225.64611573 c 128,-1,106
 1209.51541875 1245.39021892 1209.51541875 1245.39021892 1220.00558749 1262.27683201 c 0,107,108
 1241.74566326 1297.27305154 1241.74566326 1297.27305154 1277.74507119 1319.50797997 c 0,109,110
 1302.90453106 1335.23264239 1302.90453106 1335.23264239 1341.26996314 1346.12012987 c 0,111,112
 1372.79036074 1355.06510757 1372.79036074 1355.06510757 1397 1357.35044326 c 1,46,-1
EndSplineSet
Validated: 524289
EndChar

StartChar: W
Encoding: 87 87 58
Width: 1998
GlyphClass: 2
Flags: W
LayerCount: 2
Fore
SplineSet
2028 1348 m 1,0,1
 2003 1347 2003 1347 1970 1336.5 c 128,-1,2
 1937 1326 1937 1326 1909 1309 c 0,3,4
 1874 1287 1874 1287 1852.5 1258.5 c 128,-1,5
 1831 1230 1831 1230 1815 1179 c 0,6,7
 1744 948 1744 948 1650 639.5 c 128,-1,8
 1556 331 1556 331 1447 -18 c 1,9,-1
 1355 -18 l 1,10,-1
 997 1074 l 1,11,-1
 624 -18 l 1,12,-1
 536 -18 l 1,13,14
 437 332 437 332 331 708.5 c 128,-1,15
 225 1085 225 1085 189 1213 c 0,16,17
 180 1244 180 1244 162.5 1268 c 128,-1,18
 145 1292 145 1292 115 1312 c 0,19,20
 90 1329 90 1329 56.5 1337.5 c 128,-1,21
 23 1346 23 1346 -4 1348 c 1,22,-1
 -4 1419 l 1,23,-1
 575 1419 l 1,24,-1
 575 1348 l 1,25,26
 499 1344 499 1344 445.5 1333 c 128,-1,27
 392 1322 392 1322 392 1296 c 0,28,29
 392 1286 392 1286 395 1269.5 c 128,-1,30
 398 1253 398 1253 400 1243 c 0,31,32
 423 1155 423 1155 481.5 952.5 c 128,-1,33
 540 750 540 750 655 346 c 1,34,-1
 1009 1399 l 1,35,-1
 1107 1399 l 1,36,-1
 1464 323 l 1,37,38
 1536 571 1536 571 1588 756.5 c 128,-1,39
 1640 942 1640 942 1674 1074 c 0,40,41
 1698 1167 1698 1167 1704 1201.5 c 128,-1,42
 1710 1236 1710 1236 1710 1260 c 0,43,44
 1710 1294 1710 1294 1663.5 1317 c 128,-1,45
 1617 1340 1617 1340 1513 1348 c 1,46,-1
 1513 1419 l 1,47,-1
 2028 1419 l 1,48,-1
 2028 1348 l 1,0,1
2018 1357.30963062 m 1,49,-1
 2018 1409 l 1,50,-1
 1523 1409 l 1,51,-1
 1523 1357.22144184 l 1,52,53
 1621.83768938 1348.76356417 1621.83768938 1348.76356417 1667.93354187 1325.96346509 c 0,54,55
 1720 1300.21016322 1720 1300.21016322 1720 1260 c 0,56,57
 1720 1235.13691235 1720 1235.13691235 1713.85211755 1199.78658825 c 0,58,59
 1707.78323262 1164.89049993 1707.78323262 1164.89049993 1683.68277324 1071.50121981 c 0,60,61
 1649.64807626 939.369466205 1649.64807626 939.369466205 1597.62883112 753.800812841 c 128,-1,62
 1545.61313971 568.245231468 1545.61313971 568.245231468 1473.60346227 320.211898051 c 2,63,-1
 1464.6365332 289.325809058 l 1,64,-1
 1454.50876582 319.85095669 l 1,65,-1
 1099.78180628 1389 l 1,66,-1
 1016.18814613 1389 l 1,67,-1
 664.478700394 342.813428357 l 1,68,-1
 654.207059835 312.259650084 l 1,69,-1
 645.382070046 343.262222909 l 2,70,71
 530.382523616 747.260376934 530.382523616 747.260376934 471.892858172 949.724603472 c 0,72,73
 442.619713921 1051.05471818 442.619713921 1051.05471818 422.236974773 1123.707075 c 128,-1,74
 401.854235624 1196.35943181 401.854235624 1196.35943181 390.32499585 1240.47130573 c 2,75,-1
 390.194193243 1241.03883865 l 0,76,77
 388.176991397 1251.12484788 388.176991397 1251.12484788 385.161300899 1267.71114562 c 0,78,79
 384.113700948 1273.47294535 384.113700948 1273.47294535 383.420788113 1278.40756629 c 128,-1,80
 382.727875279 1283.34218722 382.727875279 1283.34218722 382.363937639 1287.77846335 c 128,-1,81
 382 1292.21473947 382 1292.21473947 382 1296 c 0,82,83
 382 1314.43349646 382 1314.43349646 398.268169364 1325.63816023 c 128,-1,84
 414.536338727 1336.84282401 414.536338727 1336.84282401 443.48605382 1342.79510188 c 0,85,86
 469.394622894 1348.12209739 469.394622894 1348.12209739 498.902350015 1351.68678249 c 128,-1,87
 528.410077136 1355.25146759 528.410077136 1355.25146759 565 1357.45574814 c 1,88,-1
 565 1409 l 1,89,-1
 6 1409 l 1,90,-1
 6 1357.12279189 l 1,91,92
 30.273085106 1354.47146775 30.273085106 1354.47146775 58.9593811988 1347.19285531 c 0,93,94
 76.4919063607 1342.74430415 76.4919063607 1342.74430415 91.9243267842 1336.01734461 c 128,-1,95
 107.356747208 1329.29038506 107.356747208 1329.29038506 120.623100214 1320.26926502 c 0,96,97
 152.03069955 1299.33086546 152.03069955 1299.33086546 170.580075302 1273.89172157 c 0,98,99
 179.857434024 1261.16848676 179.857434024 1261.16848676 186.866037823 1246.62237435 c 128,-1,100
 193.874641622 1232.07626195 193.874641622 1232.07626195 198.603462268 1215.78810195 c 0,101,102
 234.272024033 1088.96654901 234.272024033 1088.96654901 340.625780235 711.210047025 c 0,103,104
 445.499478159 338.710544491 445.499478159 338.710544491 543.563826218 -8 c 1,105,-1
 616.848473389 -8 l 1,106,-1
 987.536824669 1077.23238498 l 1,107,-1
 997.194592462 1105.50660061 l 1,108,-1
 1006.50237987 1077.11524908 l 1,109,-1
 1362.2452912 -8 l 1,110,-1
 1439.64659607 -8 l 1,111,112
 1493.1769064 163.432879287 1493.1769064 163.432879287 1543.6216875 326.836315029 c 128,-1,113
 1594.06646861 490.239750772 1594.06646861 490.239750772 1640.4342005 642.414700658 c 0,114,115
 1734.43656968 950.922509455 1734.43656968 950.922509455 1805.44131566 1181.9379506 c 0,116,117
 1808.18152667 1190.67237318 1808.18152667 1190.67237318 1811.06426743 1198.73615147 c 128,-1,118
 1813.9470082 1206.79992977 1813.9470082 1206.79992977 1817.01369521 1214.29784279 c 128,-1,119
 1820.08038222 1221.79575582 1820.08038222 1221.79575582 1823.31980556 1228.65968164 c 128,-1,120
 1826.5592289 1235.52360747 1826.5592289 1235.52360747 1829.98852886 1241.80036438 c 128,-1,121
 1833.41782881 1248.07712129 1833.41782881 1248.07712129 1837.05169009 1253.76041215 c 128,-1,122
 1840.68555137 1259.443703 1840.68555137 1259.443703 1844.51683804 1264.52238534 c 0,123,124
 1867.12309327 1294.48881669 1867.12309327 1294.48881669 1903.74393558 1317.50763185 c 0,125,126
 1932.83052055 1335.16734416 1932.83052055 1335.16734416 1966.96796343 1346.0292578 c 0,127,128
 1981.29960452 1350.58932542 1981.29960452 1350.58932542 1993.47984619 1353.30406035 c 128,-1,129
 2005.66008787 1356.01879528 2005.66008787 1356.01879528 2018 1357.30963062 c 1,49,-1
EndSplineSet
Validated: 524289
EndChar

StartChar: X
Encoding: 88 88 59
Width: 1455
GlyphClass: 2
Flags: W
LayerCount: 2
Fore
SplineSet
1457 0 m 1,0,-1
 793 0 l 1,1,-1
 793 71 l 1,2,3
 875 73 875 73 925.5 86.5 c 128,-1,4
 976 100 976 100 976 128 c 0,5,6
 976 143 976 143 953 190 c 128,-1,7
 930 237 930 237 894 295 c 0,8,9
 854 359 854 359 799 445.5 c 128,-1,10
 744 532 744 532 690 611 c 1,11,12
 602 495 602 495 490 331.5 c 128,-1,13
 378 168 378 168 378 139 c 0,14,15
 378 106 378 106 408.5 90.5 c 128,-1,16
 439 75 439 75 543 71 c 1,17,-1
 543 0 l 1,18,-1
 13 0 l 1,19,-1
 13 71 l 1,20,21
 39 73 39 73 79.5 78.5 c 128,-1,22
 120 84 120 84 146 97 c 0,23,24
 198 125 198 125 229.5 157.5 c 128,-1,25
 261 190 261 190 293 234 c 0,26,27
 357 322 357 322 457 453.5 c 128,-1,28
 557 585 557 585 634 693 c 1,29,30
 576 778 576 778 486 908.5 c 128,-1,31
 396 1039 396 1039 294 1188 c 0,32,33
 251 1251 251 1251 226.5 1277 c 128,-1,34
 202 1303 202 1303 161 1322 c 0,35,36
 137 1333 137 1333 94.5 1339.5 c 128,-1,37
 52 1346 52 1346 27 1348 c 1,38,-1
 27 1419 l 1,39,-1
 684 1419 l 1,40,-1
 684 1348 l 1,41,42
 626 1346 626 1346 563.5 1333.5 c 128,-1,43
 501 1321 501 1321 501 1295 c 0,44,45
 501 1276 501 1276 526 1228.5 c 128,-1,46
 551 1181 551 1181 585 1127 c 0,47,48
 620 1071 620 1071 663 1003 c 128,-1,49
 706 935 706 935 768 846 c 1,50,51
 881 999 881 999 963 1122 c 128,-1,52
 1045 1245 1045 1245 1045 1282 c 0,53,54
 1045 1314 1045 1314 1007.5 1329 c 128,-1,55
 970 1344 970 1344 881 1348 c 1,56,-1
 881 1419 l 1,57,-1
 1410 1419 l 1,58,-1
 1410 1348 l 1,59,60
 1385 1347 1385 1347 1344.5 1340.5 c 128,-1,61
 1304 1334 1304 1334 1277 1322 c 0,62,63
 1225 1297 1225 1297 1199.5 1268 c 128,-1,64
 1174 1239 1174 1239 1131 1184 c 0,65,66
 1051 1081 1051 1081 983.5 990.5 c 128,-1,67
 916 900 916 900 821 770 c 1,68,69
 901 656 901 656 999.5 511 c 128,-1,70
 1098 366 1098 366 1188 234 c 0,71,72
 1219 189 1219 189 1259 148.5 c 128,-1,73
 1299 108 1299 108 1324 93 c 0,74,75
 1348 79 1348 79 1388.5 75.5 c 128,-1,76
 1429 72 1429 72 1457 71 c 1,77,-1
 1457 0 l 1,0,-1
1447 10 m 1,78,-1
 1447 61.4064604726 l 1,79,80
 1421.18391085 62.6381920873 1421.18391085 62.6381920873 1387.63901158 65.5371339996 c 0,81,82
 1344.90134399 69.2305126801 1344.90134399 69.2305126801 1318.90797209 84.3933129557 c 0,83,84
 1309.90947725 89.7924098581 1309.90947725 89.7924098581 1299.45616751 97.9749761793 c 128,-1,85
 1289.00285778 106.1575425 1289.00285778 106.1575425 1277.26295287 116.911078983 c 128,-1,86
 1265.52304797 127.664615466 1265.52304797 127.664615466 1251.88514975 141.472987409 c 128,-1,87
 1238.35232327 155.174974226 1238.35232327 155.174974226 1225.82984025 169.389602401 c 128,-1,88
 1213.30735724 183.604230575 1213.30735724 183.604230575 1201.78789699 198.342071788 c 128,-1,89
 1190.26843674 213.079913002 1190.26843674 213.079913002 1179.76492399 228.326947637 c 0,90,91
 1089.69495844 360.429563784 1089.69495844 360.429563784 991.228083244 505.380801376 c 128,-1,92
 892.759619273 650.333852178 892.759619273 650.333852178 812.814433075 764.255742509 c 2,93,-1
 808.700613084 770.117935997 l 1,94,-1
 812.926088777 775.900165893 l 2,95,96
 907.942774541 905.923334545 907.942774541 905.923334545 975.484084987 996.478721143 c 128,-1,97
 1043.05047426 1087.06730523 1043.05047426 1087.06730523 1123.10235089 1190.13409639 c 0,98,99
 1144.72429965 1217.79007737 1144.72429965 1217.79007737 1161.90563593 1238.8595339 c 128,-1,100
 1179.0869722 1259.92899044 1179.0869722 1259.92899044 1191.99029686 1274.60335966 c 0,101,102
 1205.63233078 1290.11782961 1205.63233078 1290.11782961 1225.71427294 1304.10584026 c 128,-1,103
 1245.7962151 1318.0938509 1245.7962151 1318.0938509 1272.80189598 1331.07735133 c 0,104,105
 1301.12906826 1343.66720567 1301.12906826 1343.66720567 1342.915341 1350.37364451 c 0,106,107
 1376.48328364 1355.76109209 1376.48328364 1355.76109209 1400 1357.4518364 c 1,108,-1
 1400 1409 l 1,109,-1
 891 1409 l 1,110,-1
 891 1357.52143451 l 1,111,112
 931.240099572 1355.3756336 931.240099572 1355.3756336 961.944996195 1350.54300304 c 128,-1,113
 992.649892818 1345.71037249 992.649892818 1345.71037249 1011.21390676 1338.28476691 c 0,114,115
 1025.02902562 1332.75871937 1025.02902562 1332.75871937 1034.72985769 1324.68184249 c 128,-1,116
 1044.43068976 1316.60496562 1044.43068976 1316.60496562 1049.71534488 1305.74750943 c 128,-1,117
 1055 1294.89005324 1055 1294.89005324 1055 1282 c 0,118,119
 1055 1241.97224362 1055 1241.97224362 971.320502943 1116.45299804 c 0,120,121
 889.155435551 993.21000102 889.155435551 993.21000102 776.043946132 840.059046321 c 2,122,-1
 767.762572469 828.846212953 l 1,123,-1
 759.794707999 840.283953887 l 2,124,125
 697.667245491 929.466924261 697.667245491 929.466924261 654.548065764 997.655394527 c 128,-1,126
 611.537006638 1065.67282711 611.537006638 1065.67282711 576.52001696 1121.7000106 c 0,127,128
 542.330921221 1176.00033913 542.330921221 1176.00033913 517.150817776 1223.84253567 c 0,129,130
 491 1273.52908945 491 1273.52908945 491 1295 c 0,131,132
 491 1313.86663587 491 1313.86663587 509.501346154 1325.23260668 c 128,-1,133
 528.002692308 1336.59857749 528.002692308 1336.59857749 561.538838649 1343.30580676 c 0,134,135
 619.602013909 1354.91844181 619.602013909 1354.91844181 674 1357.59097489 c 1,136,-1
 674 1409 l 1,137,-1
 37 1409 l 1,138,-1
 37 1357.14051708 l 1,139,140
 60.7517216365 1354.77778037 60.7517216365 1354.77778037 96.011832333 1349.38505756 c 0,141,142
 139.894758935 1342.67355114 139.894758935 1342.67355114 165.166547105 1331.09064823 c 0,143,144
 179.354003453 1324.51597334 179.354003453 1324.51597334 191.653866575 1317.13036785 c 128,-1,145
 203.953729696 1309.74476236 203.953729696 1309.74476236 214.525252234 1301.4076928 c 128,-1,146
 225.096774773 1293.07062324 225.096774773 1293.07062324 233.777889718 1283.85801146 c 0,147,148
 238.883993909 1278.43928865 238.883993909 1278.43928865 244.683151162 1271.57610965 c 128,-1,149
 250.482308415 1264.71293064 250.482308415 1264.71293064 256.945247686 1256.44962935 c 128,-1,150
 263.408186956 1248.18632806 263.408186956 1248.18632806 270.617753923 1238.4193353 c 128,-1,151
 277.827320891 1228.65234253 277.827320891 1228.65234253 285.704646062 1217.50168249 c 128,-1,152
 293.581971232 1206.35102245 293.581971232 1206.35102245 302.259498735 1193.63743564 c 0,153,154
 404.24038361 1044.66535872 404.24038361 1044.66535872 494.232127859 914.177329558 c 128,-1,155
 584.238943125 783.667560389 584.238943125 783.667560389 642.260216904 698.636383299 c 2,156,-1
 646.191865045 692.874485161 l 1,157,-1
 642.142425697 687.194752049 l 2,158,159
 565.034854031 579.045466833 565.034854031 579.045466833 464.95987197 447.446865422 c 128,-1,160
 364.993118866 315.988700305 364.993118866 315.988700305 301.087360843 228.118283023 c 0,161,162
 268.672076021 183.547266393 268.672076021 183.547266393 236.680676752 150.540267148 c 0,163,164
 204.103600332 116.928997825 204.103600332 116.928997825 150.60762413 88.1234721773 c 0,165,166
 122.988898921 74.3141095732 122.988898921 74.3141095732 80.8456727237 68.5909553982 c 0,167,168
 47.4953790068 64.061903165 47.4953790068 64.061903165 23 61.8067730342 c 1,169,-1
 23 10 l 1,170,-1
 533 10 l 1,171,-1
 533 61.4083694701 l 1,172,173
 434.831993578 65.9009308737 434.831993578 65.9009308737 403.969501519 81.5851481498 c 0,174,175
 392.3683096 87.4808358464 392.3683096 87.4808358464 384.335306623 96.0071822601 c 128,-1,176
 376.302303646 104.533528674 376.302303646 104.533528674 372.151151823 115.406230304 c 128,-1,177
 368 126.278931935 368 126.278931935 368 139 c 0,178,179
 368 157.686419088 368 157.686419088 394.959348 203.747363344 c 128,-1,180
 421.918696001 249.8083076 421.918696001 249.8083076 481.750022784 337.151360539 c 0,181,182
 509.778947365 378.068585261 509.778947365 378.068585261 536.305096454 416.012349542 c 128,-1,183
 562.831245544 453.956113822 562.831245544 453.956113822 587.866386529 488.942931193 c 128,-1,184
 612.901527515 523.929748564 612.901527515 523.929748564 636.443621951 555.955584956 c 128,-1,185
 659.985716386 587.981421349 659.985716386 587.981421349 682.033087291 617.043864814 c 2,186,-1
 690.42251531 628.102656294 l 1,187,-1
 698.255635012 616.643092286 l 2,188,189
 752.349435175 537.505866122 752.349435175 537.505866122 807.4386228 450.865598312 c 128,-1,190
 862.452210372 364.344425669 862.452210372 364.344425669 902.47998304 300.2999894 c 0,191,192
 938.761553218 241.846348557 938.761553218 241.846348557 961.98216722 194.39552864 c 0,193,194
 986 145.315609482 986 145.315609482 986 128 c 0,195,196
 986 92.3221148208 986 92.3221148208 928.082579404 76.839240008 c 0,197,198
 879.492854982 63.8499077369 879.492854982 63.8499077369 803 61.2849461317 c 1,199,-1
 803 10 l 1,200,-1
 1447 10 l 1,78,-1
EndSplineSet
Validated: 524289
EndChar

StartChar: Y
Encoding: 89 89 60
Width: 1260
GlyphClass: 2
Flags: W
LayerCount: 2
Fore
SplineSet
1314 1348 m 1,0,1
 1297 1347 1297 1347 1260 1334.5 c 128,-1,2
 1223 1322 1223 1322 1207 1310 c 0,3,4
 1168 1286 1168 1286 1154 1273 c 128,-1,5
 1140 1260 1140 1260 1100 1205 c 0,6,7
 1022 1095 1022 1095 956 982 c 128,-1,8
 890 869 890 869 791 695 c 0,9,10
 754 631 754 631 742 592 c 128,-1,11
 730 553 730 553 730 479 c 2,12,-1
 730 208 l 2,13,14
 730 172 730 172 744.5 145.5 c 128,-1,15
 759 119 759 119 794 103 c 0,16,17
 815 95 815 95 869 83.5 c 128,-1,18
 923 72 923 72 956 71 c 1,19,-1
 956 0 l 1,20,-1
 292 0 l 1,21,-1
 292 71 l 1,22,23
 320 73 320 73 376 78.5 c 128,-1,24
 432 84 432 84 454 93 c 0,25,26
 490 108 490 108 503.5 134 c 128,-1,27
 517 160 517 160 517 198 c 2,28,-1
 517 543 l 2,29,30
 517 559 517 559 497.5 601.5 c 128,-1,31
 478 644 478 644 451 696 c 0,32,33
 391 812 391 812 318 947 c 128,-1,34
 245 1082 245 1082 191 1178 c 0,35,36
 158 1235 158 1235 132.5 1264 c 128,-1,37
 107 1293 107 1293 74 1315 c 0,38,39
 50 1330 50 1330 16.5 1338 c 128,-1,40
 -17 1346 -17 1346 -44 1348 c 1,41,-1
 -44 1419 l 1,42,-1
 561 1419 l 1,43,-1
 561 1348 l 1,44,45
 459 1346 459 1346 417 1334 c 128,-1,46
 375 1322 375 1322 375 1300 c 0,47,48
 375 1294 375 1294 381 1279 c 128,-1,49
 387 1264 387 1264 398 1241 c 0,50,51
 411 1215 411 1215 429 1181.5 c 128,-1,52
 447 1148 447 1148 463 1117 c 0,53,54
 510 1028 510 1028 559 939.5 c 128,-1,55
 608 851 608 851 687 709 c 1,56,57
 844 962 844 962 926.5 1103.5 c 128,-1,58
 1009 1245 1009 1245 1009 1273 c 0,59,60
 1009 1296 1009 1296 992 1310 c 128,-1,61
 975 1324 975 1324 947 1332 c 0,62,63
 918 1340 918 1340 884 1342.5 c 128,-1,64
 850 1345 850 1345 821 1348 c 1,65,-1
 821 1419 l 1,66,-1
 1314 1419 l 1,67,-1
 1314 1348 l 1,0,1
1304 1356.88533983 m 1,68,-1
 1304 1409 l 1,69,-1
 831 1409 l 1,70,-1
 831 1357.04269869 l 1,71,72
 856.251414594 1354.56733359 856.251414594 1354.56733359 884.73331443 1352.47307625 c 0,73,74
 919.712659694 1349.90106557 919.712659694 1349.90106557 949.659289981 1341.63992618 c 0,75,76
 959.636146629 1338.78939571 959.636146629 1338.78939571 968.26767509 1335.25294771 c 128,-1,77
 976.89920355 1331.71649971 976.89920355 1331.71649971 984.462753174 1327.32468857 c 128,-1,78
 992.026302797 1322.93287743 992.026302797 1322.93287743 998.357072529 1317.71930236 c 0,79,80
 1008.5022792 1309.36442627 1008.5022792 1309.36442627 1013.7511396 1297.94059544 c 128,-1,81
 1019 1286.51676461 1019 1286.51676461 1019 1273 c 0,82,83
 1019 1255.44702647 1019 1255.44702647 998.953161583 1214.4889917 c 128,-1,84
 978.906323166 1173.53095694 978.906323166 1173.53095694 935.138895966 1098.46318786 c 0,85,86
 852.539416915 956.795688863 852.539416915 956.795688863 695.496920526 703.727207421 c 2,87,-1
 686.529515277 689.276548008 l 1,88,-1
 678.261331627 704.138346468 l 2,89,90
 599.259236433 846.142087773 599.259236433 846.142087773 550.251441935 934.656165591 c 128,-1,91
 501.203735941 1023.2423083 501.203735941 1023.2423083 454.157292004 1112.33025533 c 0,92,93
 446.125119538 1127.89258948 446.125119538 1127.89258948 437.66086136 1143.94956852 c 128,-1,94
 429.196603182 1160.00654756 429.196603182 1160.00654756 420.191070767 1176.76684399 c 0,95,96
 402.121480578 1210.39635907 402.121480578 1210.39635907 389.016501845 1236.60631653 c 0,97,98
 377.837091397 1259.98144747 377.837091397 1259.98144747 371.715233091 1275.28609324 c 0,99,100
 365 1292.07417596 365 1292.07417596 365 1300 c 0,101,102
 365 1329.54301413 365 1329.54301413 414.252788721 1343.61523948 c 0,103,104
 455.155715005 1355.30178984 455.155715005 1355.30178984 551 1357.77994396 c 1,105,-1
 551 1409 l 1,106,-1
 -34 1409 l 1,107,-1
 -34 1357.1359411 l 1,108,109
 -22.8796374051 1355.95375302 -22.8796374051 1355.95375302 -8.94923569083 1353.49285373 c 128,-1,110
 4.98116602348 1351.03195444 4.98116602348 1351.03195444 18.8227468206 1347.72650231 c 0,111,112
 53.9132875686 1339.34667168 53.9132875686 1339.34667168 79.4246680754 1323.40205887 c 0,113,114
 113.64126699 1300.59099292 113.64126699 1300.59099292 140.009703139 1270.60335966 c 0,115,116
 166.160479799 1240.86326071 166.160479799 1240.86326071 199.685343313 1182.95667828 c 0,117,118
 253.756651138 1086.82990881 253.756651138 1086.82990881 326.796328366 951.756533116 c 128,-1,119
 399.832653867 816.689972814 399.832653867 816.689972814 459.882176432 700.594229189 c 0,120,121
 473.423231342 674.515160472 473.423231342 674.515160472 485.103842888 650.7770916 c 128,-1,122
 496.784454434 627.039022728 496.784454434 627.039022728 506.588959939 605.670228678 c 0,123,124
 511.738435856 594.447011935 511.738435856 594.447011935 515.374939584 585.65130051 c 128,-1,125
 519.011443312 576.855589085 519.011443312 576.855589085 521.704853209 568.93452363 c 128,-1,126
 524.398263105 561.013458174 524.398263105 561.013458174 525.699131553 554.614936088 c 128,-1,127
 527 548.216414003 527 548.216414003 527 543 c 2,128,-1
 527 198 l 2,129,130
 527 157.558589518 527 157.558589518 512.374960768 129.391847294 c 0,131,132
 497.200443755 100.166851565 497.200443755 100.166851565 457.846153846 83.7692307692 c 0,133,134
 445.606395606 78.7620569437 445.606395606 78.7620569437 425.743022944 75.074275487 c 128,-1,135
 405.879650281 71.3864940303 405.879650281 71.3864940303 376.977439956 68.5478840876 c 0,136,137
 329.547302442 63.8895670104 329.547302442 63.8895670104 302 61.7241218442 c 1,138,-1
 302 10 l 1,139,-1
 946 10 l 1,140,-1
 946 61.4863412475 l 1,141,142
 930.69365655 62.5242238516 930.69365655 62.5242238516 910.513448093 65.628391126 c 128,-1,143
 890.333239636 68.7325584004 890.333239636 68.7325584004 866.917080196 73.7193330958 c 0,144,145
 839.390307344 79.5815162032 839.390307344 79.5815162032 820.503908668 84.4892788045 c 128,-1,146
 801.617509992 89.3970414057 801.617509992 89.3970414057 790.440046724 93.6551226507 c 2,147,-1
 789.842402397 93.9052552441 l 0,148,149
 780.522862775 98.1656162141 780.522862775 98.1656162141 772.481801308 103.186849143 c 128,-1,150
 764.44073984 108.208082072 764.44073984 108.208082072 757.62379289 114.040240463 c 128,-1,151
 750.80684594 119.872398853 750.80684594 119.872398853 745.304878341 126.561948254 c 128,-1,152
 739.802910742 133.251497655 739.802910742 133.251497655 735.727377581 140.699885846 c 0,153,154
 720 169.443024183 720 169.443024183 720 208 c 2,155,-1
 720 479 l 2,156,157
 720 554.503676272 720 554.503676272 732.442209913 594.940858488 c 0,158,159
 744.775473086 635.023963801 744.775473086 635.023963801 782.342651689 700.005029492 c 0,160,161
 881.346960747 874.012602988 881.346960747 874.012602988 947.364983865 987.043460751 c 0,162,163
 1013.58748596 1100.42441131 1013.58748596 1100.42441131 1091.87736295 1210.8332122 c 0,164,165
 1112.58565738 1239.30711703 1112.58565738 1239.30711703 1125.96544063 1256.17276002 c 128,-1,166
 1139.34522387 1273.03840301 1139.34522387 1273.03840301 1147.19548901 1280.32793492 c 128,-1,167
 1155.08537887 1287.65426122 1155.08537887 1287.65426122 1167.73770408 1296.49193298 c 128,-1,168
 1180.39002929 1305.32960473 1180.39002929 1305.32960473 1201.37796414 1318.28249856 c 0,169,170
 1205.70833031 1321.46068617 1205.70833031 1321.46068617 1211.39579865 1324.68612197 c 128,-1,171
 1217.083267 1327.91155778 1217.083267 1327.91155778 1224.03384421 1331.13676642 c 128,-1,172
 1230.98442142 1334.36197506 1230.98442142 1334.36197506 1239.21041001 1337.58638583 c 128,-1,173
 1247.43639859 1340.8107966 1247.43639859 1340.8107966 1256.79934034 1343.97395259 c 0,174,175
 1272.02430801 1349.11752275 1272.02430801 1349.11752275 1282.95353642 1352.13575154 c 128,-1,176
 1293.88276483 1355.15398034 1293.88276483 1355.15398034 1304 1356.88533983 c 1,68,-1
EndSplineSet
Validated: 524289
EndChar

StartChar: Z
Encoding: 90 90 61
Width: 1232
GlyphClass: 2
Flags: W
LayerCount: 2
Fore
SplineSet
1214 443 m 1,0,-1
 1167 0 l 1,1,-1
 27 0 l 1,2,-1
 27 35 l 1,3,-1
 920 1340 l 1,4,-1
 593 1340 l 2,5,6
 536 1340 536 1340 497.5 1338 c 128,-1,7
 459 1336 459 1336 427 1330 c 0,8,9
 361 1317 361 1317 278.5 1221 c 128,-1,10
 196 1125 196 1125 154 1018 c 1,11,-1
 84 1018 l 1,12,-1
 127 1419 l 1,13,-1
 1190 1419 l 1,14,-1
 1190 1384 l 1,15,-1
 297 79 l 1,16,-1
 634 79 l 2,17,18
 719 79 719 79 815 91 c 128,-1,19
 911 103 911 103 940 132 c 0,20,21
 1005 194 1005 194 1061 284 c 128,-1,22
 1117 374 1117 374 1144 443 c 1,23,-1
 1214 443 l 1,0,-1
1202.88292887 433 m 1,24,-1
 1150.78313083 433 l 1,25,26
 1123.12703993 364.918457033 1123.12703993 364.918457033 1069.49056604 278.716981132 c 0,27,28
 1012.8202426 187.639675604 1012.8202426 187.639675604 946.98756291 124.845427287 c 0,29,30
 915.644929644 93.5027940201 915.644929644 93.5027940201 816.240347346 81.0772212329 c 0,31,32
 767.948701231 75.0407654686 767.948701231 75.0407654686 722.391334512 72.0203827343 c 128,-1,33
 676.833967793 69 676.833967793 69 634 69 c 2,34,-1
 297 69 l 1,35,-1
 278.039933219 69 l 1,36,-1
 288.747237632 84.6472925631 l 1,37,-1
 1180 1387.09393858 l 1,38,-1
 1180 1409 l 1,39,-1
 135.98500989 1409 l 1,40,-1
 95.1296482943 1028 l 1,41,-1
 147.220600088 1028 l 1,42,43
 168.62803727 1080.65850945 168.62803727 1080.65850945 199.533532169 1130.537963 c 128,-1,44
 230.439027067 1180.41741655 230.439027067 1180.41741655 270.915805169 1227.51766743 c 0,45,46
 313.107976883 1276.6140127 313.107976883 1276.6140127 351.395612126 1304.72794134 c 128,-1,47
 389.683247368 1332.84186997 389.683247368 1332.84186997 425.06743522 1339.81148273 c 0,48,49
 441.544636408 1342.90095795 441.544636408 1342.90095795 459.459621234 1344.93448343 c 128,-1,50
 477.37460606 1346.9680089 477.37460606 1346.9680089 496.981219 1347.98653425 c 128,-1,51
 516.398925628 1348.99524628 516.398925628 1348.99524628 540.388748533 1349.49762314 c 128,-1,52
 564.378571438 1350 564.378571438 1350 593 1350 c 2,53,-1
 920 1350 l 1,54,-1
 938.960066781 1350 l 1,55,-1
 928.252762368 1334.35270744 l 1,56,-1
 37 31.9060614228 l 1,57,-1
 37 10 l 1,58,-1
 1158.00482503 10 l 1,59,-1
 1202.88292887 433 l 1,24,-1
EndSplineSet
Validated: 524289
EndChar

StartChar: bracketleft
Encoding: 91 91 62
Width: 768
GlyphClass: 2
Flags: W
LayerCount: 2
Fore
SplineSet
701 -310 m 1,0,-1
 168 -310 l 1,1,-1
 168 1519 l 1,2,-1
 701 1519 l 1,3,-1
 701 1428 l 1,4,-1
 346 1428 l 1,5,-1
 346 -218 l 1,6,-1
 701 -218 l 1,7,-1
 701 -310 l 1,0,-1
EndSplineSet
Validated: 1
EndChar

StartChar: backslash
Encoding: 92 92 63
Width: 960
GlyphClass: 2
Flags: W
LayerCount: 2
Fore
SplineSet
911 -424 m 1,0,-1
 781 -424 l 1,1,-1
 90 1523 l 1,2,-1
 222 1523 l 1,3,-1
 911 -424 l 1,0,-1
EndSplineSet
Validated: 1
EndChar

StartChar: bracketright
Encoding: 93 93 64
Width: 768
GlyphClass: 2
Flags: W
LayerCount: 2
Fore
SplineSet
600 -310 m 1,0,-1
 67 -310 l 1,1,-1
 67 -218 l 1,2,-1
 422 -218 l 1,3,-1
 422 1428 l 1,4,-1
 67 1428 l 1,5,-1
 67 1519 l 1,6,-1
 600 1519 l 1,7,-1
 600 -310 l 1,0,-1
EndSplineSet
Validated: 1
EndChar

StartChar: asciicircum
Encoding: 94 94 65
Width: 1317
GlyphClass: 2
Flags: W
LayerCount: 2
Fore
SplineSet
1126 796 m 1,0,-1
 981 796 l 1,1,-1
 660 1320 l 1,2,-1
 336 796 l 1,3,-1
 191 796 l 1,4,-1
 603 1456 l 1,5,-1
 716 1456 l 1,6,-1
 1126 796 l 1,0,-1
EndSplineSet
Validated: 1
EndChar

StartChar: underscore
Encoding: 95 95 66
Width: 1317
GlyphClass: 2
Flags: W
LayerCount: 2
Fore
SplineSet
1322 -282 m 1,0,-1
 -5 -282 l 1,1,-1
 -5 -181 l 1,2,-1
 1322 -181 l 1,3,-1
 1322 -282 l 1,0,-1
EndSplineSet
Validated: 1
EndChar

StartChar: grave
Encoding: 96 96 67
Width: 1024
GlyphClass: 2
Flags: W
LayerCount: 2
Fore
SplineSet
739 1142 m 1,0,-1
 701 1110 l 1,1,2
 598 1192 598 1192 517 1253.5 c 128,-1,3
 436 1315 436 1315 397 1347 c 0,4,5
 359 1379 359 1379 343.5 1399 c 128,-1,6
 328 1419 328 1419 328 1460 c 0,7,8
 328 1489 328 1489 351 1513.5 c 128,-1,9
 374 1538 374 1538 410 1538 c 0,10,11
 449 1538 449 1538 477 1520 c 128,-1,12
 505 1502 505 1502 537 1450 c 0,13,14
 571 1395 571 1395 617 1324.5 c 128,-1,15
 663 1254 663 1254 739 1142 c 1,0,-1
EndSplineSet
Validated: 1
EndChar

